<svg width="27" height="27" viewBox="0 0 27 27" fill="none" xmlns="http://www.w3.org/2000/svg">
<rect x="0.0634766" y="11.5693" width="26" height="4" rx="2" fill="white"/>
<path d="M11.6373 1.14132C12.4023 0.378675 13.6427 0.378675 14.4077 1.14132L25.4897 12.1884C26.2547 12.9511 26.2547 14.1876 25.4897 14.9502C24.7246 15.7129 23.4843 15.7129 22.7192 14.9502L11.6373 3.9031C10.8722 3.14046 10.8722 1.90396 11.6373 1.14132Z" fill="white"/>
<path d="M25.4897 12.1884C26.2547 12.9511 26.2547 14.1876 25.4897 14.9502L14.4077 25.9974C13.6427 26.76 12.4023 26.76 11.6373 25.9974C10.8722 25.2347 10.8722 23.9982 11.6373 23.2356L22.7192 12.1884C23.4843 11.4258 24.7246 11.4258 25.4897 12.1884Z" fill="white"/>
</svg>
