<svg width="450" height="329" viewBox="0 0 450 329" fill="none" xmlns="http://www.w3.org/2000/svg">
<path opacity="0.2" d="M33.981 54.0586C33.981 51.8495 35.7718 50.0586 37.981 50.0586H410.247C412.456 50.0586 414.247 51.8495 414.247 54.0586V78.0915H33.981V54.0586Z" fill="#045996"/>
<path opacity="0.08" d="M46.9897 29.0293C46.9897 26.8202 48.7806 25.0293 50.9897 25.0293H391.233C393.442 25.0293 395.233 26.8202 395.233 29.0293V50.0586H46.9897V29.0293Z" fill="#045996"/>
<path opacity="0.04" d="M62.0005 4C62.0005 1.79086 63.7913 0 66.0005 0H376.223C378.432 0 380.223 1.79086 380.223 4V25.0293H62.0005V4Z" fill="#045996"/>
<rect x="14.6782" y="84.2305" width="60.5867" height="254.082" fill="#045996"/>
<g filter="url(#filter0_d)">
<path d="M13.7333 78.541C11.1192 78.541 9 80.6633 9 83.2813V339.259C9 341.877 11.1192 343.999 13.7333 343.999H430.267C432.881 343.999 435 341.877 435 339.259V83.2813C435 80.6633 432.881 78.541 430.267 78.541H13.7333Z" fill="#045996"/>
</g>
<path d="M51.5707 107.66V104.325C51.571 104.291 51.5577 104.259 51.5338 104.234C51.51 104.21 51.4775 104.197 51.4438 104.197H48.1387C48.1049 104.197 48.0725 104.21 48.0486 104.234C48.0248 104.259 48.0115 104.291 48.0117 104.325V107.66C48.0115 107.694 48.0248 107.726 48.0486 107.75C48.0725 107.775 48.1049 107.788 48.1387 107.788H51.4438C51.4778 107.789 51.5107 107.776 51.5347 107.751C51.5588 107.727 51.5718 107.694 51.5707 107.66Z" fill="white"/>
<path d="M51.5707 98.5854V95.2511C51.571 95.2171 51.5577 95.1843 51.5338 95.1603C51.51 95.1362 51.4775 95.1228 51.4438 95.1231H48.1387C48.1049 95.1228 48.0725 95.1362 48.0486 95.1603C48.0248 95.1843 48.0115 95.2171 48.0117 95.2511V98.5854C48.0115 98.6194 48.0248 98.6522 48.0486 98.6762C48.0725 98.7003 48.1049 98.7137 48.1387 98.7135H51.4438C51.4775 98.7137 51.51 98.7003 51.5338 98.6762C51.5577 98.6522 51.571 98.6194 51.5707 98.5854Z" fill="white"/>
<path d="M51.5707 112.203V108.868C51.571 108.834 51.5577 108.802 51.5338 108.777C51.51 108.753 51.4775 108.74 51.4438 108.74H48.1387C48.1049 108.74 48.0725 108.753 48.0486 108.777C48.0248 108.802 48.0115 108.834 48.0117 108.868V112.203C48.0115 112.237 48.0248 112.269 48.0486 112.293C48.0725 112.317 48.1049 112.331 48.1387 112.331H51.4438C51.5133 112.329 51.5694 112.273 51.5707 112.203Z" fill="white"/>
<path d="M33.5365 107.66V104.325C33.5368 104.291 33.5235 104.259 33.4996 104.234C33.4758 104.21 33.4433 104.197 33.4096 104.197H30.1045C30.0707 104.197 30.0383 104.21 30.0144 104.234C29.9906 104.259 29.9773 104.291 29.9775 104.325V107.66C29.9773 107.694 29.9906 107.726 30.0144 107.75C30.0383 107.775 30.0707 107.788 30.1045 107.788H33.4096C33.4436 107.789 33.4765 107.776 33.5006 107.751C33.5246 107.727 33.5376 107.694 33.5365 107.66Z" fill="white"/>
<path d="M33.5365 112.15V108.816C33.5368 108.782 33.5235 108.749 33.4996 108.725C33.4758 108.701 33.4433 108.687 33.4096 108.688H30.1045C30.0707 108.687 30.0383 108.701 30.0144 108.725C29.9906 108.749 29.9773 108.782 29.9775 108.816V112.15C29.9773 112.184 29.9906 112.217 30.0144 112.241C30.0383 112.265 30.0707 112.278 30.1045 112.278H33.4096C33.4792 112.277 33.5352 112.22 33.5365 112.15Z" fill="white"/>
<path opacity="0.6" d="M33.5365 98.5717V95.2374C33.5368 95.2034 33.5235 95.1707 33.4996 95.1466C33.4758 95.1225 33.4433 95.1091 33.4096 95.1094H30.1045C30.0707 95.1091 30.0383 95.1225 30.0144 95.1466C29.9906 95.1707 29.9773 95.2034 29.9775 95.2374V98.5717C29.9773 98.6058 29.9906 98.6385 30.0144 98.6626C30.0383 98.6866 30.0707 98.7 30.1045 98.6998H33.4096C33.4433 98.7 33.4758 98.6866 33.4996 98.6626C33.5235 98.6385 33.5368 98.6058 33.5365 98.5717Z" fill="white"/>
<path d="M33.5365 103.115V99.7804C33.5368 99.7464 33.5235 99.7136 33.4996 99.6896C33.4758 99.6655 33.4433 99.6521 33.4096 99.6523H30.1045C30.0707 99.6521 30.0383 99.6655 30.0144 99.6896C29.9906 99.7136 29.9773 99.7464 29.9775 99.7804V103.115C29.9773 103.149 29.9906 103.181 30.0144 103.206C30.0383 103.23 30.0707 103.243 30.1045 103.243H33.4096C33.4792 103.241 33.5352 103.185 33.5365 103.115Z" fill="white"/>
<path d="M51.5844 116.749V113.415C51.5847 113.381 51.5714 113.348 51.5475 113.324C51.5236 113.3 51.4912 113.287 51.4575 113.287H48.1523C48.1186 113.287 48.0861 113.3 48.0623 113.324C48.0384 113.348 48.0251 113.381 48.0254 113.415V116.749C48.0251 116.784 48.0384 116.816 48.0623 116.84C48.0861 116.864 48.1186 116.878 48.1523 116.878H51.4575C51.527 116.876 51.5831 116.82 51.5844 116.749Z" fill="white"/>
<path d="M47.0732 116.749V113.415C47.0734 113.381 47.0601 113.348 47.0363 113.324C47.0124 113.3 46.98 113.287 46.9462 113.287H43.6411C43.6074 113.287 43.5749 113.3 43.5511 113.324C43.5272 113.348 43.5139 113.381 43.5142 113.415V116.749C43.5139 116.784 43.5272 116.816 43.5511 116.84C43.5749 116.864 43.6074 116.878 43.6411 116.878H46.9413C47.0126 116.878 47.0713 116.821 47.0732 116.749Z" fill="white"/>
<path d="M42.5624 116.749V113.415C42.5627 113.381 42.5494 113.348 42.5255 113.324C42.5017 113.3 42.4692 113.287 42.4355 113.287H39.1304C39.0966 113.287 39.0642 113.3 39.0403 113.324C39.0165 113.348 39.0032 113.381 39.0034 113.415V116.749C39.0032 116.784 39.0165 116.816 39.0403 116.84C39.0642 116.864 39.0966 116.878 39.1304 116.878H42.4355C42.505 116.876 42.5611 116.82 42.5624 116.749Z" fill="white"/>
<path d="M33.5365 116.749V113.415C33.5368 113.381 33.5235 113.348 33.4996 113.324C33.4758 113.3 33.4433 113.287 33.4096 113.287H30.1045C30.0707 113.287 30.0383 113.3 30.0144 113.324C29.9906 113.348 29.9773 113.381 29.9775 113.415V116.749C29.9773 116.784 29.9906 116.816 30.0144 116.84C30.0383 116.864 30.0707 116.878 30.1045 116.878H33.4096C33.4792 116.876 33.5352 116.82 33.5365 116.749Z" fill="white"/>
<path d="M38.0517 116.749V113.415C38.0519 113.381 38.0386 113.348 38.0148 113.324C37.9909 113.3 37.9585 113.287 37.9247 113.287H34.6196C34.5859 113.287 34.5534 113.3 34.5296 113.324C34.5057 113.348 34.4924 113.381 34.4927 113.415V116.749C34.4924 116.784 34.5057 116.816 34.5296 116.84C34.5534 116.864 34.5859 116.878 34.6196 116.878H37.9247C37.9585 116.878 37.9909 116.864 38.0148 116.84C38.0386 116.816 38.0519 116.784 38.0517 116.749Z" fill="white"/>
<path opacity="0.2" d="M42.5543 98.5854V95.2511C42.5546 95.2171 42.5413 95.1843 42.5175 95.1603C42.4937 95.1362 42.4614 95.1228 42.4277 95.1231H39.1301C39.0964 95.1228 39.064 95.1362 39.0402 95.1603C39.0164 95.1843 39.0032 95.2171 39.0034 95.2511V98.5854C39.0032 98.6194 39.0164 98.6522 39.0402 98.6762C39.064 98.7003 39.0964 98.7137 39.1301 98.7135H42.4277C42.4614 98.7137 42.4937 98.7003 42.5175 98.6762C42.5413 98.6522 42.5546 98.6194 42.5543 98.5854Z" fill="white"/>
<path opacity="0.4" d="M38.0458 98.5854V95.2511C38.0461 95.2171 38.0328 95.1843 38.0089 95.1603C37.9851 95.1362 37.9526 95.1228 37.9189 95.1231H34.6138C34.58 95.1228 34.5476 95.1362 34.5237 95.1603C34.4999 95.1843 34.4866 95.2171 34.4868 95.2511V98.5854C34.4866 98.6194 34.4999 98.6522 34.5237 98.6762C34.5476 98.7003 34.58 98.7137 34.6138 98.7135H37.9189C37.9529 98.7146 37.9858 98.7014 38.0098 98.6772C38.0339 98.6529 38.0469 98.6197 38.0458 98.5854Z" fill="white"/>
<rect x="24.147" y="143.01" width="35.9733" height="3.79226" rx="1.89613" fill="#50A7E6"/>
<rect x="90.4131" y="104.141" width="18.9333" height="3.79226" rx="1.89613" fill="#34A5FF"/>
<rect x="125.439" y="104.141" width="18.9333" height="3.79226" rx="1.89613" fill="#34A5FF"/>
<rect width="11.3711" height="0.947143" rx="0.473571" transform="matrix(0.582728 -0.812667 0.811851 0.583865 114.081 110.535)" fill="#34A5FF"/>
<rect x="24.147" y="169.557" width="35.9733" height="3.79226" rx="1.89613" fill="#50A7E6"/>
<rect x="261.14" y="321.377" width="39.0458" height="4.0028" rx="2" transform="rotate(-90 261.14 321.377)" fill="#34A5FF"/>
<rect x="280.153" y="321.377" width="62.0728" height="5.0035" rx="2" transform="rotate(-90 280.153 321.377)" fill="#53E2EB"/>
<rect x="299.166" y="321.377" width="88.1033" height="5.0035" rx="2" transform="rotate(-90 299.166 321.377)" fill="#34A5FF"/>
<rect x="338.193" y="321.377" width="105.123" height="4.0028" rx="2" transform="rotate(-90 338.193 321.377)" fill="#34A5FF"/>
<rect x="357.207" y="321.377" width="75.088" height="5.0035" rx="2" transform="rotate(-90 357.207 321.377)" fill="#53E2EB"/>
<rect x="377.221" y="321.377" width="105.123" height="4.0028" rx="2" transform="rotate(-90 377.221 321.377)" fill="#34A5FF"/>
<rect x="319.18" y="321.377" width="33.0387" height="4.0028" rx="2" transform="rotate(-90 319.18 321.377)" fill="#53E2EB"/>
<rect x="24.147" y="196.104" width="35.9733" height="3.79226" rx="1.89613" fill="#50A7E6"/>
<rect x="24.147" y="222.648" width="35.9733" height="3.79226" rx="1.89613" fill="#50A7E6"/>
<rect x="24.147" y="249.195" width="35.9733" height="3.79226" rx="1.89613" fill="#50A7E6"/>
<rect x="24.147" y="275.738" width="35.9733" height="3.79226" rx="1.89613" fill="#50A7E6"/>
<ellipse cx="391.428" cy="106.982" rx="11.36" ry="11.3768" fill="#34A5FF"/>
<rect x="260.964" y="152.184" width="149.984" height="4.46155" rx="2" fill="#50A7E6"/>
<rect x="260.964" y="168.543" width="149.984" height="4.46155" rx="2" fill="#50A7E6"/>
<rect x="260.964" y="184.902" width="81.6744" height="4.46155" rx="2" fill="#50A7E6"/>
<rect x="112.929" y="284.283" width="85.2" height="3.79226" rx="1.89613" fill="#50A7E6"/>
<rect x="112.929" y="305.104" width="85.2" height="3.79226" rx="1.89613" fill="#50A7E6"/>
<ellipse cx="99.1005" cy="286.03" rx="4.45496" ry="4.46155" fill="#34A5FF"/>
<ellipse cx="99.1005" cy="306.85" rx="4.45496" ry="4.46155" fill="#34A5FF"/>
<path d="M194.093 193.728C194.093 221.388 171.629 243.286 144.558 243.286C116.911 243.286 95.0234 220.812 95.0234 193.728C95.0234 166.068 117.487 144.17 144.558 144.17V193.728H194.093Z" fill="#50A7E6"/>
<path d="M211.105 176.207H162.07V126.148C189.438 126.148 211.105 148.267 211.105 176.207Z" fill="#53E2EB" stroke="#53E2EB" stroke-width="3" stroke-miterlimit="10" stroke-linecap="round" stroke-linejoin="round"/>
<defs>
<filter id="filter0_d" x="0" y="60.541" width="450" height="289.458" filterUnits="userSpaceOnUse" color-interpolation-filters="sRGB">
<feFlood flood-opacity="0" result="BackgroundImageFix"/>
<feColorMatrix in="SourceAlpha" type="matrix" values="0 0 0 0 0 0 0 0 0 0 0 0 0 0 0 0 0 0 127 0"/>
<feOffset dx="3" dy="-6"/>
<feGaussianBlur stdDeviation="6"/>
<feColorMatrix type="matrix" values="0 0 0 0 0 0 0 0 0 0 0 0 0 0 0 0 0 0 0.07 0"/>
<feBlend mode="normal" in2="BackgroundImageFix" result="effect1_dropShadow"/>
<feBlend mode="normal" in="SourceGraphic" in2="effect1_dropShadow" result="shape"/>
</filter>
</defs>
</svg>
