<svg xmlns="http://www.w3.org/2000/svg" xmlns:xlink="http://www.w3.org/1999/xlink" viewBox="0 0 603 363.09"><defs><style>.cls-1,.cls-19,.cls-20,.cls-21,.cls-22,.cls-23{fill:none;}.cls-2,.cls-3{fill:#0075bf;}.cls-2{opacity:0.1;}.cls-3{opacity:0.08;}.cls-10,.cls-12,.cls-13,.cls-4,.cls-6{fill:#00adbc;}.cls-11,.cls-4{opacity:0.7;}.cls-5{clip-path:url(#clip-path);}.cls-16,.cls-7{fill:#50ba72;}.cls-17,.cls-18,.cls-7,.cls-9{opacity:0.5;}.cls-11,.cls-14,.cls-8,.cls-9{fill:#f0e918;}.cls-12,.cls-8{opacity:0.3;}.cls-10,.cls-21{opacity:0.2;}.cls-13,.cls-16{opacity:0.4;}.cls-15{fill:#1d2956;}.cls-17{fill:#86c66f;}.cls-18{fill:#9ecc40;}.cls-19,.cls-21,.cls-22,.cls-23{stroke:#00adbc;}.cls-19,.cls-20,.cls-21,.cls-22,.cls-23{stroke-miterlimit:10;}.cls-19,.cls-21{stroke-width:1.12px;}.cls-19,.cls-22{opacity:0.71;}.cls-20{stroke:#f8ec1f;}.cls-20,.cls-22,.cls-23{stroke-width:0.84px;}</style><clipPath id="clip-path" transform="translate(0 -6.12)"><path class="cls-1" d="M280.26,306h28.47V301H280.26V281.07h31.82v-4.94H274.75v55.75h38.36v-4.94H280.26Zm85.65.24a19.2,19.2,0,0,0,3.35-11.56q0-8.85-5.7-13.68t-16.15-4.83H326.59v55.75h5.5v-18h15.31q1.35,0,3.91-.16l12,18.18h6.38l-13.4-19.22A17.47,17.47,0,0,0,365.91,306.19Zm-18.5,2.71H332.09V281.07h15.31q8,0,12.28,3.51T364,294.79q0,6.86-4.31,10.49T347.41,308.9Zm76.16-2.71a19.2,19.2,0,0,0,3.35-11.56q0-8.85-5.7-13.68t-16.15-4.83H384.25v55.75h5.5v-18h15.31q1.35,0,3.91-.16l12,18.18h6.38L414,312.65A17.47,17.47,0,0,0,423.57,306.19Zm-18.5,2.71H389.75V281.07h15.31q8,0,12.28,3.51t4.31,10.21q0,6.86-4.31,10.49T405.06,308.9Zm165.71,3.75a17.47,17.47,0,0,0,9.57-6.46,19.2,19.2,0,0,0,3.35-11.56q0-8.85-5.7-13.68t-16.15-4.83H541v55.75h5.5v-18h15.31q1.35,0,3.91-.16l12,18.18h6.38Zm-8.93-3.75H546.53V281.07h15.31q8,0,12.28,3.51t4.31,10.21q0,6.86-4.31,10.49T561.85,308.9Z"/></clipPath></defs><title>Asset 1</title><g id="Layer_2" data-name="Layer 2"><g id="Layer_1-2" data-name="Layer 1"><path class="cls-2" d="M647.45,0" transform="translate(0 -6.12)"/><path class="cls-3" d="M643.36,392.67" transform="translate(0 -6.12)"/><path class="cls-4" d="M280.26,306h28.47V301H280.26V281.07h31.82v-4.94H274.75v55.75h38.36v-4.94H280.26Zm85.65.24a19.2,19.2,0,0,0,3.35-11.56q0-8.85-5.7-13.68t-16.15-4.83H326.59v55.75h5.5v-18h15.31q1.35,0,3.91-.16l12,18.18h6.38l-13.4-19.22A17.47,17.47,0,0,0,365.91,306.19Zm-18.5,2.71H332.09V281.07h15.31q8,0,12.28,3.51T364,294.79q0,6.86-4.31,10.49T347.41,308.9Zm76.16-2.71a19.2,19.2,0,0,0,3.35-11.56q0-8.85-5.7-13.68t-16.15-4.83H384.25v55.75h5.5v-18h15.31q1.35,0,3.91-.16l12,18.18h6.38L414,312.65A17.47,17.47,0,0,0,423.57,306.19Zm-18.5,2.71H389.75V281.07h15.31q8,0,12.28,3.51t4.31,10.21q0,6.86-4.31,10.49T405.06,308.9Zm165.71,3.75a17.47,17.47,0,0,0,9.57-6.46,19.2,19.2,0,0,0,3.35-11.56q0-8.85-5.7-13.68t-16.15-4.83H541v55.75h5.5v-18h15.31q1.35,0,3.91-.16l12,18.18h6.38Zm-8.93-3.75H546.53V281.07h15.31q8,0,12.28,3.51t4.31,10.21q0,6.86-4.31,10.49T561.85,308.9Z" transform="translate(0 -6.12)"/><g class="cls-5"><polygon class="cls-6" points="560.5 335.55 364 330.05 262 263.55 603 258.55 560.5 335.55"/><polygon class="cls-7" points="548.5 335.55 424 335.55 358.4 258.55 569 258.55 548.5 335.55"/><polygon class="cls-8" points="535 324.55 424.5 305.55 343 259.55 569 258.55 535 324.55"/><polygon class="cls-9" points="530.5 289.05 434.5 290.55 348.5 255.05 577.5 257.55 530.5 289.05"/></g><path class="cls-10" d="M239.59,6.12C121.56,6.12,23.43,119.89,2.94,270l-.05.27c0,.36-.09.73-.14,1.1-.07.54-.14,1.09-.21,1.64q-.38,2.9-.72,5.82c0,.41-.09.82-.14,1.23q-.36,3.24-.68,6.49L1,287c-.37,3.82-.7,7.65-1,11.51l0-.17c20.79-147.43,112.4-258.5,222.28-258.5,65,0,123.63,38.9,165,101.19H388l12-5.83C357.41,73.57,296.49,35,228.84,35,132,35,48.95,114.08,13.76,226.66c34.55-119.88,120.44-204.8,221-204.8,70.36,0,133.55,41.59,177,107.64l2.88-1.4L425.05,123C380.92,51.62,314.22,6.12,239.59,6.12Z" transform="translate(0 -6.12)"/><path class="cls-11" d="M388.38,140.85,400,135.21q-5.59-8.09-11.61-15.64Z" transform="translate(0 -6.12)"/><path class="cls-11" d="M388.38,75.09V98.57a294.77,294.77,0,0,1,23.36,30.93l2.88-1.4L425.05,123A295.18,295.18,0,0,0,388.38,75.09Z" transform="translate(0 -6.12)"/><path class="cls-9" d="M418.3,266.48c-4.3-1.7-11.29-5.56-15.51-7.79-30.28-16-56.16-43.63-72.89-78,10.8,6.83,27.9,8.74,47.72,5.73" transform="translate(0 -6.12)"/><path class="cls-9" d="M355.09,200.26l-1.7-12.68c-9.39-.73-17.43-3-23.49-6.85a185.6,185.6,0,0,0,37.3,51.9A203,203,0,0,1,355.09,200.26Z" transform="translate(0 -6.12)"/><path class="cls-10" d="M377.62,186.46c-12.3,1.87-23.55,1.84-32.9-.08v19.67c15.67,22.59,35.66,40.83,58.07,52.64,4.22,2.22,11.21,6.08,15.51,7.79Z" transform="translate(0 -6.12)"/><path class="cls-10" d="M377.62,186.46a119.82,119.82,0,0,1-13.79,1.31v41.5a157,157,0,0,0,39,29.42c4.22,2.22,11.21,6.08,15.51,7.79Z" transform="translate(0 -6.12)"/><path class="cls-10" d="M385.19,201.36v46.35a147.86,147.86,0,0,0,17.6,11c4.22,2.22,11.21,6.08,15.51,7.79Z" transform="translate(0 -6.12)"/><path class="cls-9" d="M469.69,142.24c15.59-11.16,24-29.62,25.14-42l.78-.38c16.73,34.42,22.55,72,16.37,105.71-.77,4.18-2.31,11.68-3.44,15.65" transform="translate(0 -6.12)"/><path class="cls-9" d="M512.27,152.37a187.61,187.61,0,0,0-16.66-52.46l-.78.38c-.58,6.19-3,13.91-7.22,21.48A201.08,201.08,0,0,1,512.27,152.37Z" transform="translate(0 -6.12)"/><path class="cls-10" d="M488,121.18a62.74,62.74,0,0,1-18.26,21.06l38.86,79c1.13-4,2.67-11.47,3.43-15.65,4.92-26.9,2.22-56.21-7.56-84.44Z" transform="translate(0 -6.12)"/><path class="cls-12" d="M476,136.92a56.61,56.61,0,0,1-6.35,5.32l38.86,79c1.13-4,2.67-11.47,3.43-15.65,4-21.93,3-45.46-2.87-68.7Z" transform="translate(0 -6.12)"/><path class="cls-13" d="M481.45,166.15l27.1,55.12c1.13-4,2.67-11.47,3.43-15.65a154,154,0,0,0,1.91-39.46Z" transform="translate(0 -6.12)"/><path class="cls-6" d="M515.73,300h-3.15a4.6,4.6,0,0,1-1.62,2.87,19.41,19.41,0,0,1-36.85,9.35,19.21,19.21,0,0,1-1.85-10.05,4.87,4.87,0,0,1-.86-2.17h-4a24.43,24.43,0,1,0,48.29,0Z" transform="translate(0 -6.12)"/><path class="cls-14" d="M513.56,293.09a24.42,24.42,0,0,0-46.11,7.06l4.81,2a19.4,19.4,0,0,1,38.71.57l4.77-2.59A24.32,24.32,0,0,0,513.56,293.09Z" transform="translate(0 -6.12)"/><path class="cls-10" d="M523.83,369.21c-45.59-9-85.37-55.75-117.44-121.43L365.3,163.25l47.25-23,47.25-23,41.08,84.53C534.77,264.64,544.88,327.77,523.83,369.21Zm-45.58-93a30.91,30.91,0,1,0,41.32,14.29A30.91,30.91,0,0,0,478.24,276.25Z" transform="translate(0 -6.12)"/><path class="cls-15" d="M523.83,369.21c-45.59-9-85.37-55.75-117.44-121.43L365.3,163.25l47.25-23,47.25-23,41.08,84.53C534.77,264.64,544.88,327.77,523.83,369.21ZM478.07,276a30.91,30.91,0,1,0,41.32,14.29A30.91,30.91,0,0,0,478.07,276Z" transform="translate(0 -6.12)"/><path class="cls-12" d="M415.93,265.85l113.24,8.08c-5.55-23.22-15.11-47.68-28.28-72.09l-41.08-84.53L365.3,163.25l41.08,84.53C410.83,256.88,411.19,257.52,415.93,265.85Z" transform="translate(0 -6.12)"/><path class="cls-12" d="M484.14,270.72l45,3.21c-5.55-23.22-15.11-47.68-28.28-72.09l-16.75-34.47Z" transform="translate(0 -6.12)"/><path class="cls-16" d="M410,254.95c.69-1.45,1.4-2.89,2.16-4.32a122.27,122.27,0,0,1,33.73-52.5,123,123,0,0,1,39.34-28.6l-25.38-52.22L365.3,163.25l41.08,84.53Q408.16,251.4,410,254.95Z" transform="translate(0 -6.12)"/><path class="cls-17" d="M444.44,162.24a201.83,201.83,0,0,1,39.09,3.87l-23.72-48.8L365.3,163.25l6.85,14.09A148.7,148.7,0,0,1,444.44,162.24Z" transform="translate(0 -6.12)"/><path class="cls-18" d="M408.66,155.74a147.34,147.34,0,0,1,61.62-16.9l-10.47-21.53L365.3,163.25l5.41,11.14A147,147,0,0,1,408.66,155.74Z" transform="translate(0 -6.12)"/><path class="cls-9" d="M433.93,129.89,365.3,163.25l5.41,11.14C378.27,169.19,432.67,131.75,433.93,129.89Z" transform="translate(0 -6.12)"/><line class="cls-10" x1="469.16" y1="135.04" x2="379.11" y2="178.81"/><path class="cls-10" d="M228.84,35c-43.49,0-84.19,16-119,43.72l1.26,2.55c32.86-26.35,70.81-41.4,111.23-41.4,65,0,123.63,38.9,165,101.19H388l12-5.83C357.41,73.57,296.49,35,228.84,35Z" transform="translate(0 -6.12)"/><path class="cls-10" d="M239.59,6.12c-51,0-98.3,21.27-137.22,57.53l4.46,9c36.91-32.15,80.8-50.8,127.91-50.8,70.36,0,133.55,41.59,177,107.64l2.88-1.4L425.05,123C380.92,51.62,314.22,6.12,239.59,6.12Z" transform="translate(0 -6.12)"/><path class="cls-12" d="M228.84,35a176.68,176.68,0,0,0-34.29,3.37v3.91a162,162,0,0,1,27.77-2.41c65,0,123.63,38.9,165,101.19H388l12-5.83C357.41,73.57,296.49,35,228.84,35Z" transform="translate(0 -6.12)"/><path class="cls-12" d="M239.59,6.12a182.71,182.71,0,0,0-45,5.65V26.47a177.66,177.66,0,0,1,40.2-4.62c70.36,0,133.55,41.59,177,107.64l2.88-1.4L425.05,123C380.92,51.62,314.22,6.12,239.59,6.12Z" transform="translate(0 -6.12)"/><path class="cls-10" d="M273.66,40.76v7.41c44.24,14.56,83.51,47.5,113.62,92.87H388l12-5.83C367.06,87.54,323.16,53.67,273.66,40.76Z" transform="translate(0 -6.12)"/><path class="cls-10" d="M273.66,9.32V26.17C328.21,38.4,376.48,75.89,411.74,129.5l2.88-1.4L425.05,123C387.76,62.69,334.35,20.84,273.66,9.32Z" transform="translate(0 -6.12)"/><path class="cls-15" d="M320.92,60.31V71.86c25,17.2,47.49,40.75,66.36,69.18H388l12-5.83C378,103.37,351.1,77.71,320.92,60.31Z" transform="translate(0 -6.12)"/><path class="cls-15" d="M320.92,25V43.8C356,62.39,387.07,92,411.74,129.5l2.88-1.4L425.05,123C397.8,78.93,361.94,44.74,320.92,25Z" transform="translate(0 -6.12)"/><path class="cls-18" d="M357.91,87.2v16.65A280.21,280.21,0,0,1,387.28,141H388l12-5.83A269.1,269.1,0,0,0,357.91,87.2Zm0-39.47V68.65c20.1,16.61,38.24,37.15,53.83,60.85l2.88-1.4L425.05,123C406.35,92.77,383.6,67.18,357.91,47.72Z" transform="translate(0 -6.12)"/><path class="cls-9" d="M373.13,121.55q7.37,9.32,14.15,19.49H388l12-5.83q-4.87-7.05-10.08-13.66Z" transform="translate(0 -6.12)"/><path class="cls-9" d="M406.3,121.55c1.84,2.61,3.66,5.25,5.44,7.95l2.88-1.4L425.05,123c-.31-.5-.62-1-.93-1.48Z" transform="translate(0 -6.12)"/><path class="cls-19" d="M335.08,61.2c26.25,17.2,49.81,40.77,69.59,69.23" transform="translate(0 -6.12)"/><path class="cls-20" d="M408.61,110.69a287.85,287.85,0,0,1,20.81,31.84" transform="translate(0 -6.12)"/><path class="cls-20" d="M366.58,67.11a231,231,0,0,1,25.36,23.63" transform="translate(0 -6.12)"/><path class="cls-19" d="M277.64,58.51C318.28,73,354.57,103.07,383.17,144" transform="translate(0 -6.12)"/><path class="cls-21" d="M108.75,92.11c31.89-26.4,72.37-43.27,113.56-43.27" transform="translate(0 -6.12)"/><line class="cls-20" x1="408.24" y1="130.8" x2="442.82" y2="194.24"/><line class="cls-20" x1="431.29" y1="140.92" x2="436.35" y2="150.11"/><line class="cls-20" x1="393.35" y1="147.11" x2="398.41" y2="156.29"/><line class="cls-20" x1="412.02" y1="159.97" x2="416.84" y2="169.29"/><path class="cls-20" d="M364.77,136.54l3.72,5.27,3.68,5.22" transform="translate(0 -6.12)"/><path class="cls-20" d="M339.24,110.67l4.63,4.52,4.59,4.48" transform="translate(0 -6.12)"/><path class="cls-20" d="M414.47,85.73l4,5.1c2,2.53,8.53,12.36,8.53,12.36" transform="translate(0 -6.12)"/><circle class="cls-20" cx="354.65" cy="122.93" r="2.62"/><circle class="cls-20" cx="327.66" cy="48.16" r="2.62"/><circle class="cls-22" cx="433.73" cy="44.98" r="2.62"/><circle class="cls-20" cx="401.48" cy="60.36" r="4.11"/><circle class="cls-19" cx="306.49" cy="113.17" r="4.11"/><circle class="cls-22" cx="442.14" cy="102.33" r="6.52"/><circle class="cls-22" cx="436.81" cy="316.99" r="6.52"/><circle class="cls-22" cx="378.05" cy="20.25" r="6.52"/><circle class="cls-22" cx="291.12" cy="75.9" r="2.62"/><line class="cls-23" x1="316.61" y1="87.7" x2="319.42" y2="90.51"/><line class="cls-23" x1="291.87" y1="97.26" x2="296.37" y2="100.07"/><line class="cls-23" x1="326.16" y1="111.31" x2="328.98" y2="113.56"/><line class="cls-23" x1="332.35" y1="95.57" x2="335.16" y2="97.82"/><line class="cls-23" x1="308.17" y1="134.93" x2="312.54" y2="139.73"/><line class="cls-23" x1="342.47" y1="154.6" x2="344.15" y2="156.29"/><line class="cls-23" x1="349.21" y1="138.86" x2="350.34" y2="141.11"/><line class="cls-23" x1="333.47" y1="130.99" x2="336.28" y2="133.8"/><line class="cls-23" x1="472.9" y1="73.65" x2="475.15" y2="75.9"/><line class="cls-23" x1="445.91" y1="69.71" x2="445.35" y2="68.59"/><line class="cls-23" x1="412.74" y1="21.36" x2="414.43" y2="23.05"/><line class="cls-23" x1="390.82" y1="36.54" x2="391.94" y2="38.23"/><line class="cls-23" x1="436.35" y1="15.18" x2="436.92" y2="17.43"/><line class="cls-23" x1="414.99" y1="46.66" x2="416.12" y2="47.79"/><line class="cls-23" x1="421.18" y1="62.97" x2="423.97" y2="65.96"/><line class="cls-23" x1="427.36" y1="77.02" x2="429.62" y2="79.46"/><line class="cls-23" x1="438.04" y1="77.58" x2="441.55" y2="81.34"/><line class="cls-23" x1="454.34" y1="48.35" x2="456.59" y2="51.16"/><line class="cls-23" x1="431.86" y1="92.2" x2="432.98" y2="93.32"/><line class="cls-23" x1="458.28" y1="98.38" x2="459.4" y2="100.63"/><line class="cls-23" x1="371.7" y1="38.23" x2="378.46" y2="43.99"/><line class="cls-23" x1="342.47" y1="11.24" x2="346.4" y2="13.49"/><line class="cls-23" x1="361.02" y1="7.31" x2="361.58" y2="7.87"/><line class="cls-23" x1="245.77" y1="58.47" x2="249.71" y2="59.03"/><line class="cls-23" x1="250.83" y1="132.12" x2="251.96" y2="132.68"/><line class="cls-23" x1="284.56" y1="180.46" x2="285.12" y2="182.15"/><line class="cls-23" x1="525.18" y1="64.65" x2="526.31" y2="67.46"/><line class="cls-23" x1="473.46" y1="149.54" x2="474.58" y2="151.23"/><line class="cls-20" x1="484.7" y1="137.74" x2="486.95" y2="142.8"/><line class="cls-20" x1="464.46" y1="154.04" x2="467.27" y2="158.54"/><line class="cls-20" x1="477.39" y1="115.81" x2="479.64" y2="120.87"/><line class="cls-20" x1="435.79" y1="115.81" x2="439.73" y2="122.56"/><line class="cls-20" x1="362.71" y1="169.22" x2="365.52" y2="173.72"/><line class="cls-20" x1="385.76" y1="181.59" x2="388.57" y2="184.96"/><line class="cls-20" x1="366.08" y1="201.26" x2="367.77" y2="208.01"/><line class="cls-20" x1="382.38" y1="203.51" x2="384.63" y2="206.89"/><line class="cls-20" x1="304.24" y1="161.35" x2="308.77" y2="167.35"/><line class="cls-20" x1="379.83" y1="259.05" x2="383.83" y2="263.22"/><line class="cls-20" x1="398.5" y1="262.88" x2="398" y2="256.55"/><line class="cls-20" x1="435.5" y1="292.55" x2="438" y2="290.55"/><line class="cls-20" x1="544" y1="255.55" x2="543.5" y2="259.05"/><line class="cls-20" x1="564.28" y1="316.19" x2="561.22" y2="314.42"/><line class="cls-20" x1="591.61" y1="300.19" x2="588.55" y2="298.42"/><line class="cls-20" x1="521" y1="263.55" x2="525.5" y2="264.55"/><line class="cls-23" x1="530.5" y1="209.55" x2="529.5" y2="217.88"/><line class="cls-23" x1="410.5" y1="263.22" x2="411" y2="266.22"/><line class="cls-23" x1="383.83" y1="250.22" x2="377.5" y2="241.88"/><line class="cls-23" x1="398.83" y1="331.22" x2="400.5" y2="327.55"/><line class="cls-23" x1="589.25" y1="314.96" x2="586.75" y2="311.81"/><line class="cls-23" x1="376.5" y1="282.22" x2="379.5" y2="285.05"/><line class="cls-23" x1="533" y1="250.55" x2="532.5" y2="245.05"/><line class="cls-23" x1="566.5" y1="260.55" x2="567" y2="258.05"/><circle class="cls-20" cx="479.5" cy="256.66" r="4.11"/><circle class="cls-20" cx="497.5" cy="291.48" r="3.07"/><line class="cls-20" x1="456.16" y1="267.22" x2="460.83" y2="271.88"/><line class="cls-23" x1="553.52" y1="315.88" x2="558.93" y2="323.28"/><line class="cls-23" x1="371.16" y1="334.88" x2="374.39" y2="330.05"/><line class="cls-23" x1="356.16" y1="262.55" x2="360.83" y2="266.88"/><line class="cls-23" x1="584.16" y1="269.88" x2="586.83" y2="267.22"/><path class="cls-7" d="M513.56,293.09a24.36,24.36,0,0,0-26.72-13.28v5.12a19.39,19.39,0,0,1,22.23,10.34,19.44,19.44,0,0,1-6.56,24.54v.27l3.66,3.28A24.42,24.42,0,0,0,513.56,293.09Z" transform="translate(0 -6.12)"/></g></g></svg>