<?xml version="1.0" encoding="UTF-8"?>
<svg width="662px" height="558px" viewBox="0 0 662 558" version="1.1" xmlns="http://www.w3.org/2000/svg" xmlns:xlink="http://www.w3.org/1999/xlink">
    <!-- Generator: Sketch 57.1 (83088) - https://sketch.com -->
    <title>Group 7</title>
    <desc>Created with Sketch.</desc>
    <defs>
        <polygon id="path-1" points="0 501.641888 618.168573 501.641888 618.168573 -1.13686838e-13 0 -1.13686838e-13"></polygon>
    </defs>
    <g id="Page-1" stroke="none" stroke-width="1" fill="none" fill-rule="evenodd">
        <g id="S01" transform="translate(-738.000000, -149.000000)">
            <g id="Group-7" transform="translate(738.000000, 149.000000)">
                <path d="M661.992465,89.7699975 C597.446117,-6.03782286 523.171661,-25.1568382 439.169096,32.4129514 C313.16525,118.767636 434.858818,309.22707 241.789783,283.584802 C48.7207485,257.942533 35.1263939,605.962008 200.878485,552.383141 C366.630576,498.804274 331.343386,359.210478 500.407864,482.909544 C613.117515,565.375588 672.648227,570.577429 679,498.515066 L661.992465,89.7699975 Z" id="Shape_1" fill-opacity="0.0525295017" fill="#3BC1C3"></path>
                <g id="Main_Pic" transform="translate(0.000000, 12.000000)">
                    <path d="M329.654542,250.420201 C336.168741,244.949281 340.309101,236.743532 340.309101,227.571992 C340.309101,211.103793 326.957512,197.751573 310.488682,197.751573 C294.019853,197.751573 280.668264,211.103793 280.668264,227.571992 C280.668264,241.049582 289.609223,252.438091 301.880993,256.130521 L302.132363,239.516162 L303.427013,219.488462 L305.674853,213.710733 L309.508403,211.335003 L313.760902,210.372363 L317.245432,210.747843 L320.484262,212.239683 L323.956192,214.953723 L326.615422,220.172642 L327.165412,226.940732 L327.882352,240.354692 L329.654542,250.420201 Z" id="Fill-1" fill="#E74C3C"></path>
                    <mask id="mask-2" fill="white">
                        <use xlink:href="#path-1"></use>
                    </mask>
                    <g id="Clip-4"></g>
                    <polygon id="Fill-3" fill="#333333" mask="url(#mask-2)" points="138.683784 146.321274 186.355252 146.321274 186.355252 143.171274 138.683784 143.171274"></polygon>
                    <polygon id="Fill-5" fill="#333333" mask="url(#mask-2)" points="190.393552 146.321274 198.509841 146.321274 198.509841 143.171274 190.393552 143.171274"></polygon>
                    <polygon id="Fill-6" fill="#333333" mask="url(#mask-2)" points="115.966615 158.130623 124.083535 158.130623 124.083535 154.980623 115.966615 154.980623"></polygon>
                    <polygon id="Fill-7" fill="#333333" mask="url(#mask-2)" points="128.196174 158.130623 175.867012 158.130623 175.867012 154.980623 128.196174 154.980623"></polygon>
                    <polygon id="Fill-8" fill="#333333" mask="url(#mask-2)" points="553.679256 137.491824 601.350094 137.491824 601.350094 134.341824 553.679256 134.341824"></polygon>
                    <polygon id="Fill-9" fill="#333333" mask="url(#mask-2)" points="605.389024 137.491824 613.505313 137.491824 613.505313 134.341824 605.389024 134.341824"></polygon>
                    <polygon id="Fill-10" fill="#333333" mask="url(#mask-2)" points="530.962087 149.301174 539.079007 149.301174 539.079007 146.151174 530.962087 146.151174"></polygon>
                    <polygon id="Fill-11" fill="#333333" mask="url(#mask-2)" points="543.190386 149.301174 590.861854 149.301174 590.861854 146.151174 543.190386 146.151174"></polygon>
                    <path d="M60.1117624,353.431938 L168.892598,353.431938 L168.892598,304.51874 C168.892598,303.93347 169.217678,303.39545 169.736798,303.12329 L185.038237,295.10591 L169.772708,287.60261 C169.234058,287.33801 168.892598,286.789911 168.892598,286.189521 L168.892598,276.256311 L60.1117624,276.256311 L60.1117624,353.431938 Z M170.467598,356.581937 L58.5367625,356.581937 C57.6667325,356.581937 56.9617625,355.876968 56.9617625,355.006938 L56.9617625,274.681311 C56.9617625,273.811281 57.6667325,273.106311 58.5367625,273.106311 L170.467598,273.106311 C171.337628,273.106311 172.042598,273.811281 172.042598,274.681311 L172.042598,285.208611 L189.211987,293.64746 C189.744337,293.90954 190.084537,294.44756 190.092225,295.04039 C190.099657,295.63385 189.773317,296.18069 189.248527,296.456 L172.042598,305.47193 L172.042598,355.006938 C172.042598,355.876968 171.337628,356.581937 170.467598,356.581937 L170.467598,356.581937 Z" id="Fill-12" fill="#333333" mask="url(#mask-2)"></path>
                    <polygon id="Fill-13" fill="#3BC1C3" mask="url(#mask-2)" points="68.050077 346.668195 161.257313 346.668195 161.257313 283.020558 68.050077 283.020558"></polygon>
                    <polygon id="Fill-14" fill="#333333" mask="url(#mask-2)" points="81.3802465 298.550687 133.518414 298.550687 133.518414 295.400687 81.3802465 295.400687"></polygon>
                    <polygon id="Fill-15" fill="#333333" mask="url(#mask-2)" points="137.935344 298.550687 146.813304 298.550687 146.813304 295.400687 137.935344 295.400687"></polygon>
                    <polygon id="Fill-16" fill="#333333" mask="url(#mask-2)" points="81.3802465 333.518205 133.518414 333.518205 133.518414 330.368206 81.3802465 330.368206"></polygon>
                    <polygon id="Fill-17" fill="#333333" mask="url(#mask-2)" points="137.935344 333.518205 146.813304 333.518205 146.813304 330.368206 137.935344 330.368206"></polygon>
                    <polygon id="Fill-18" fill="#333333" mask="url(#mask-2)" points="81.3802465 321.861316 133.518414 321.861316 133.518414 318.711316 81.3802465 318.711316"></polygon>
                    <polygon id="Fill-19" fill="#333333" mask="url(#mask-2)" points="137.935344 321.861316 146.813304 321.861316 146.813304 318.711316 137.935344 318.711316"></polygon>
                    <polygon id="Fill-20" fill="#333333" mask="url(#mask-2)" points="94.6751359 310.206316 146.813304 310.206316 146.813304 307.056317 94.6751359 307.056317"></polygon>
                    <polygon id="Fill-21" fill="#333333" mask="url(#mask-2)" points="81.3802465 310.206316 90.2582061 310.206316 90.2582061 307.056317 81.3802465 307.056317"></polygon>
                    <path d="M273.358122,367.450697 L219.347594,367.450697 C215.083125,367.450697 211.613085,363.412397 211.613085,358.448627 L211.613085,55.0677306 C211.613085,50.1033308 215.083125,46.064401 219.347594,46.064401 L401.629897,46.064401 C405.894996,46.064401 409.364406,50.1033308 409.364406,55.0677306 L409.364406,314.629609 L406.214406,314.629609 L406.214406,55.0677306 C406.214406,51.8402407 404.157456,49.2144009 401.629897,49.2144009 L219.347594,49.2144009 C216.819405,49.2144009 214.763085,51.8402407 214.763085,55.0677306 L214.763085,358.448627 C214.763085,361.675487 216.819405,364.300697 219.347594,364.300697 L273.358122,364.300697 L273.358122,367.450697 Z" id="Fill-22" fill="#333333" mask="url(#mask-2)"></path>
                    <path d="M273.624549,328.615231 L223.731071,328.615231 C222.861041,328.615231 222.156071,327.910261 222.156071,327.040231 L222.156071,85.8044213 C222.156071,84.9343913 222.861041,84.2294213 223.731071,84.2294213 L397.246924,84.2294213 C398.116324,84.2294213 398.821924,84.9343913 398.821924,85.8044213 L398.821924,317.429581 L395.671924,317.429581 L395.671924,87.3794212 L225.306071,87.3794212 L225.306071,325.465231 L273.624549,325.465231 L273.624549,328.615231 Z" id="Fill-23" fill="#333333" mask="url(#mask-2)"></path>
                    <path d="M293.910044,63.7827092 C293.617724,63.7827092 293.292644,64.1562992 293.292644,64.6924292 L293.292644,69.038169 C293.292644,69.573669 293.617724,69.946629 293.910044,69.946629 L327.067573,69.946629 C327.359263,69.946629 327.684343,69.573669 327.684343,69.038169 L327.684343,64.6924292 C327.684343,64.1562992 327.359263,63.7827092 327.067573,63.7827092 L293.910044,63.7827092 Z M327.067573,73.0966288 L293.910044,73.0966288 C291.832304,73.0966288 290.142644,71.2759289 290.142644,69.038169 L290.142644,64.6924292 C290.142644,62.4540393 291.832304,60.6327094 293.910044,60.6327094 L327.067573,60.6327094 C329.144683,60.6327094 330.834343,62.4540393 330.834343,64.6924292 L330.834343,69.038169 C330.834343,71.2759289 329.144683,73.0966288 327.067573,73.0966288 L327.067573,73.0966288 Z" id="Fill-24" fill="#333333" mask="url(#mask-2)"></path>
                    <path d="M213.071913,175.774402 L101.333858,175.774402 C101.069888,175.764952 81.0283285,174.690172 81.0283285,149.355983 L81.0283285,107.707315 L84.1783283,107.707315 L84.1783283,149.355983 C84.1783283,171.355583 100.343498,172.570222 101.371658,172.624402 L213.071913,172.624402 L213.071913,175.774402 Z" id="Fill-25" fill="#333333" mask="url(#mask-2)"></path>
                    <path d="M71.7113849,101.244272 C70.7537849,101.244272 69.686565,102.547742 69.686565,104.418211 C69.686565,106.289311 70.7537849,107.592781 71.7113849,107.592781 L94.2527839,107.592781 C95.2110139,107.592781 96.2782338,106.289311 96.2782338,104.418211 C96.2782338,102.547742 95.2110139,101.244272 94.2527839,101.244272 L71.7113849,101.244272 Z M94.2527839,110.742781 L71.7113849,110.742781 C68.858115,110.742781 66.5365651,107.905891 66.5365651,104.418211 C66.5365651,100.931162 68.858115,98.0942717 71.7113849,98.0942717 L94.2527839,98.0942717 C97.1066838,98.0942717 99.4282337,100.931162 99.4282337,104.418211 C99.4282337,107.905891 97.1066838,110.742781 94.2527839,110.742781 L94.2527839,110.742781 Z" id="Fill-26" fill="#333333" mask="url(#mask-2)"></path>
                    <path d="M102.933302,96.0160278 C102.933302,98.0326577 101.296562,99.6693977 99.2799317,99.6693977 L66.6843631,99.6693977 C64.6671032,99.6693977 63.0316233,98.0326577 63.0316233,96.0160278 L63.0316233,64.5966692 C63.0316233,62.5787793 64.6671032,60.9432993 66.6843631,60.9432993 L99.2799317,60.9432993 C101.296562,60.9432993 102.933302,62.5787793 102.933302,64.5966692 L102.933302,96.0160278 Z" id="Fill-27" fill="#3BC1C3" mask="url(#mask-2)"></path>
                    <path d="M66.6843001,62.5183623 C65.5389601,62.5183623 64.6065602,63.4507622 64.6065602,64.5967322 L64.6065602,96.0160908 C64.6065602,97.1620608 65.5389601,98.0944607 66.6843001,98.0944607 L99.2798687,98.0944607 C100.425839,98.0944607 101.358239,97.1620608 101.358239,96.0160908 L101.358239,64.5967322 C101.358239,63.4507622 100.425839,62.5183623 99.2798687,62.5183623 L66.6843001,62.5183623 Z M99.2798687,101.244461 L66.6843001,101.244461 C63.8014202,101.244461 61.4565603,98.8989707 61.4565603,96.0160908 L61.4565603,64.5967322 C61.4565603,61.7138523 63.8014202,59.3683624 66.6843001,59.3683624 L99.2798687,59.3683624 C102.162749,59.3683624 104.508238,61.7138523 104.508238,64.5967322 L104.508238,96.0160908 C104.508238,98.8989707 102.162749,101.244461 99.2798687,101.244461 L99.2798687,101.244461 Z" id="Fill-28" fill="#333333" mask="url(#mask-2)"></path>
                    <path d="M78.7859696,60.9433623 L75.6359697,60.9433623 L75.6359697,41.2142832 C75.6359697,40.0683133 74.7035697,39.1359133 73.5575998,39.1359133 L73.4089198,39.1359133 C72.2629499,39.1359133 71.3311799,40.0683133 71.3311799,41.2142832 L71.3311799,60.9433623 L68.18118,60.9433623 L68.18118,41.2142832 C68.18118,38.3307733 70.5260399,35.9859134 73.4089198,35.9859134 L73.5575998,35.9859134 C76.4404797,35.9859134 78.7859696,38.3307733 78.7859696,41.2142832 L78.7859696,60.9433623 Z" id="Fill-29" fill="#333333" mask="url(#mask-2)"></path>
                    <path d="M97.0535118,60.9433623 L93.9035119,60.9433623 L93.9035119,41.2142832 C93.9035119,40.0683133 92.971112,39.1359133 91.824512,39.1359133 L91.676462,39.1359133 C90.5304921,39.1359133 89.5974621,40.0683133 89.5974621,41.2142832 L89.5974621,60.9433623 L86.4474622,60.9433623 L86.4474622,41.2142832 C86.4474622,38.3307733 88.7929521,35.9859134 91.676462,35.9859134 L91.824512,35.9859134 C94.7080219,35.9859134 97.0535118,38.3307733 97.0535118,41.2142832 L97.0535118,60.9433623 Z" id="Fill-30" fill="#333333" mask="url(#mask-2)"></path>
                    <path d="M298.934042,380.639431 L298.484852,377.521562 C301.333082,377.110802 301.874252,373.980332 301.950482,373.395062 L300.435332,338.757033 C300.434072,338.731203 300.434072,338.704743 300.434072,338.678283 L301.152272,224.786258 C301.152272,215.287749 306.300632,209.143359 314.270131,209.143359 C322.478401,209.143359 328.215181,215.559909 328.232191,224.753498 L334.14222,335.096103 C334.14348,335.118783 334.14411,335.140833 334.14474,335.163513 C334.14537,335.206983 334.33689,339.778263 336.34974,339.778263 C337.29096,339.778263 337.6866,339.441213 337.90143,339.187953 C338.77146,338.166723 338.62656,335.965503 338.54025,335.431893 C338.53458,335.397243 338.5308,335.362593 338.52702,335.327313 L335.9919,308.279525 C335.98749,308.229755 335.98497,308.181245 335.98497,308.132105 C335.98497,299.647895 343.5393,292.480385 352.48089,292.480385 C361.093619,292.480385 368.103629,299.472125 368.133869,308.076665 L370.663319,345.188073 L367.520879,345.401643 L364.987649,308.239205 C364.985129,308.203295 364.983869,308.168015 364.983869,308.132105 C364.983869,301.239275 359.374979,295.630385 352.48089,295.630385 C345.39654,295.630385 339.1797,301.430165 339.13497,308.060915 L341.65875,334.985853 C341.75073,335.598843 342.16401,339.040533 340.30047,341.229783 C339.64086,342.004683 338.42055,342.928263 336.34974,342.928263 C332.203081,342.928263 331.033801,338.107503 330.995371,335.232183 L325.084711,224.880758 C325.082821,224.852408 325.082191,224.824688 325.082191,224.796338 C325.082191,218.572568 321.738781,212.293359 314.270131,212.293359 C305.020472,212.293359 304.302272,221.863688 304.302272,224.796338 L303.584072,338.658753 L305.103002,373.380572 C305.105522,373.448612 305.104262,373.516022 305.098592,373.584062 C304.912742,375.743702 303.385622,379.997461 298.934042,380.639431" id="Fill-31" fill="#333333" mask="url(#mask-2)"></path>
                    <path d="M395.675326,353.280612 L393.142096,314.730283 C393.139576,314.695633 393.138316,314.660983 393.138316,314.626963 C393.138316,307.734134 387.528796,302.127134 380.634706,302.127134 C373.762667,302.127134 368.168267,307.700114 368.133617,314.563333 L370.661807,345.164952 L367.522517,345.424512 L364.989287,314.756743 C364.985507,314.713273 364.983617,314.669803 364.983617,314.626963 C364.983617,305.997224 372.004967,298.977134 380.634706,298.977134 C389.248066,298.977134 396.259336,305.968874 396.288316,314.574043 L398.817766,353.073972 L395.675326,353.280612 Z" id="Fill-32" fill="#333333" mask="url(#mask-2)"></path>
                    <path d="M313.148416,501.641888 L310.004717,501.439028 L311.231326,482.401689 L311.618776,469.03687 C297.572297,458.28088 274.485318,422.773452 273.150348,416.807982 C270.368268,404.359812 270.767058,363.244124 271.913028,339.375945 C272.156208,334.305705 271.564638,329.196406 271.043628,324.689386 C270.229668,317.654806 269.586438,312.099466 272.486328,309.503867 C273.996438,308.151257 276.181908,307.828067 279.166848,308.512877 C291.746057,311.402056 298.196627,326.030026 298.465007,326.651206 C301.046117,332.799376 302.832167,337.398375 303.780317,340.336065 L300.782777,341.303115 C299.862347,338.451105 298.107167,333.936525 295.567007,327.885376 C295.514087,327.764416 289.474277,314.112316 278.461248,311.582866 C276.573138,311.150686 275.270298,311.239516 274.587378,311.850616 C272.903388,313.358206 273.519528,318.686116 274.172208,324.327136 C274.707708,328.954486 275.315028,334.199235 275.059248,339.527145 C273.921468,363.224594 273.505668,403.955352 276.224748,416.120652 C277.496718,421.807662 301.001387,457.48582 314.140036,466.98748 C314.562766,467.29303 314.807206,467.78821 314.791456,468.30922 L314.377546,482.548479 L313.148416,501.641888 Z" id="Fill-33" fill="#333333" mask="url(#mask-2)"></path>
                    <path d="M405.683316,501.544049 L402.533316,501.536489 L402.618366,467.456011 C402.618996,467.206531 402.678216,466.960831 402.792246,466.739701 C403.626366,465.116821 405.098046,462.997501 406.802196,460.544911 C410.473206,455.261101 415.499976,448.025552 417.776796,440.518472 C421.020666,429.828632 423.686826,374.082455 423.821016,371.231705 L421.304166,344.125956 C418.117626,326.766307 413.792046,317.359777 408.447126,316.167187 C408.413106,316.158997 408.379086,316.150807 408.346326,316.140727 C405.403596,315.278257 402.009787,315.835177 399.702727,317.563267 C398.366497,318.563707 396.775117,320.422207 396.757477,323.604967 L398.818207,353.066916 L395.675137,353.287416 L393.611257,323.767507 C393.608737,323.730967 393.607477,323.694427 393.607477,323.657887 C393.607477,320.132407 395.101837,317.072497 397.814617,315.041377 C400.923667,312.714787 405.275706,311.973907 409.184856,313.104757 C418.203936,315.174937 422.196246,331.509577 424.415106,343.626996 C424.423926,343.672356 424.430226,343.718346 424.434636,343.764966 L426.967865,371.049635 C426.974819,371.122085 426.976685,371.195795 426.972905,371.268245 C426.862025,373.667285 424.216026,430.144262 420.791346,441.432602 C418.370256,449.414701 413.179056,456.886501 409.389606,462.341671 C407.870046,464.529661 406.541376,466.441081 405.767106,467.853541 L405.683316,501.544049 Z" id="Fill-34" fill="#333333" mask="url(#mask-2)"></path>
                    <path d="M314.893831,218.637773 C311.763361,218.637773 309.216902,221.184863 309.216902,224.315963 L309.216902,230.964983 C309.216902,233.049023 310.095122,234.107423 314.893831,234.107423 C319.691911,234.107423 320.570131,233.049023 320.570131,230.964983 L320.570131,224.315963 C320.570131,221.184863 318.023671,218.637773 314.893831,218.637773 M314.893831,236.627423 C312.440611,236.627423 306.696902,236.627423 306.696902,230.964983 L306.696902,224.315963 C306.696902,219.795713 310.374211,216.117774 314.893831,216.117774 C319.413451,216.117774 323.090131,219.795713 323.090131,224.315963 L323.090131,230.964983 C323.090131,236.627423 317.346421,236.627423 314.893831,236.627423" id="Fill-35" fill="#333333" mask="url(#mask-2)"></path>
                    <path d="M274.702416,334.304886 L283.415316,334.304886 C283.683066,331.718107 284.023896,324.897727 280.934376,320.145007 C278.360196,316.186087 275.210826,315.418747 273.391386,315.349447 L274.702416,334.304886 Z M284.524746,336.824886 L273.526836,336.824886 C272.864706,336.824886 272.315346,336.312696 272.269986,335.651826 L270.789486,314.249467 C270.746016,313.616947 271.178826,313.050577 271.800636,312.926467 C271.853556,312.916387 272.340546,312.823777 273.102846,312.823777 C274.929846,312.823777 279.556566,313.403377 283.046766,318.772237 C287.452985,325.549777 285.837666,335.363286 285.766476,335.777196 C285.663156,336.382626 285.138366,336.824886 284.524746,336.824886 L284.524746,336.824886 Z" id="Fill-36" fill="#333333" mask="url(#mask-2)"></path>
                    <path d="M301.17596,268.771407 C299.87186,268.435617 298.57091,268.023597 297.30965,267.547317 L298.42349,264.600177 C299.57765,265.036767 300.76772,265.414137 301.96094,265.720947 L301.17596,268.771407 Z" id="Fill-37" fill="#333333" mask="url(#mask-2)"></path>
                    <path d="M301.21628,189.996148 L300.47351,186.934978 C303.10691,186.296158 305.82347,185.909968 308.54822,185.787118 L308.68997,188.933968 C306.16745,189.047998 303.65312,189.405208 301.21628,189.996148 L301.21628,189.996148 Z M323.559859,191.125108 C321.189799,190.287208 318.724609,189.676738 316.232959,189.311338 L316.690969,186.194728 C319.382959,186.589738 322.047229,187.249348 324.609439,188.155288 L323.559859,191.125108 Z M287.56985,196.287957 L285.725841,193.733938 C287.93336,192.140668 290.30279,190.755928 292.76861,189.618148 L294.08846,192.478348 C291.80597,193.531078 289.61294,194.813128 287.56985,196.287957 L287.56985,196.287957 Z M336.501318,198.767637 C334.618248,197.094987 332.565079,195.598737 330.399769,194.318578 L332.001859,191.607058 C334.341678,192.988648 336.558648,194.605858 338.593548,196.412067 L336.501318,198.767637 Z M277.281951,207.251847 L274.615161,205.574787 C276.062271,203.274657 277.739331,201.103047 279.600981,199.119177 L281.897961,201.275037 C280.174281,203.111487 278.621331,205.122447 277.281951,207.251847 L277.281951,207.251847 Z M345.633798,210.709287 C344.518068,208.457667 343.175538,206.300547 341.644638,204.299667 L344.146368,202.385727 C345.800748,204.547887 347.251008,206.877627 348.456828,209.311317 L345.633798,210.709287 Z M271.879701,221.272496 L268.776951,220.728176 C269.246931,218.048157 269.980881,215.403417 270.958641,212.867667 L273.897591,214.000407 C272.993541,216.346527 272.315031,218.792816 271.879701,221.272496 L271.879701,221.272496 Z M349.584528,225.205586 C349.402458,222.690626 348.975318,220.187636 348.315078,217.765287 L351.354198,216.937467 C352.067358,219.555746 352.529148,222.260966 352.725708,224.977526 L349.584528,225.205586 Z M269.068641,236.960756 C268.504161,234.312236 268.193571,231.586226 268.145061,228.857066 L271.294431,228.801626 C271.339791,231.327926 271.627071,233.852966 272.149341,236.304926 L269.068641,236.960756 Z M350.801688,241.104266 L347.804778,240.137216 C348.575268,237.745736 349.117698,235.264166 349.414428,232.760546 L352.542378,233.132246 C352.221078,235.837466 351.636438,238.519376 350.801688,241.104266 L350.801688,241.104266 Z M275.453061,251.892385 C273.921531,249.642025 272.603571,247.234165 271.535091,244.738105 L274.430571,243.498895 C275.419671,245.809735 276.639351,248.037415 278.057481,250.120825 L275.453061,251.892385 Z M342.934248,255.313285 L340.522608,253.286575 C342.142968,251.358145 343.582518,249.264655 344.801568,247.064065 L347.556558,248.590555 C346.239858,250.968175 344.685018,253.229875 342.934248,255.313285 L342.934248,255.313285 Z M286.982691,263.326885 C284.723511,261.817405 282.598521,260.080495 280.666941,258.165295 L282.885801,255.928165 C284.673741,257.702245 286.641231,259.310005 288.73346,260.708605 L286.982691,263.326885 Z" id="Fill-38" fill="#333333" mask="url(#mask-2)"></path>
                    <path d="M331.440529,263.498182 L329.666449,260.895652 C330.687679,260.199502 331.679299,259.441612 332.614219,258.642142 L334.660458,261.038032 C333.638598,261.909952 332.555629,262.738402 331.440529,263.498182" id="Fill-39" fill="#333333" mask="url(#mask-2)"></path>
                    <path d="M297.112649,279.720681 C295.829339,279.390561 294.538469,279.005631 293.275949,278.577231 L294.288359,275.594181 C295.476539,275.997381 296.691179,276.359631 297.898259,276.670221 L297.112649,279.720681 Z" id="Fill-40" fill="#333333" mask="url(#mask-2)"></path>
                    <path d="M316.850296,177.980662 C314.420386,177.674482 311.933146,177.547222 309.472367,177.592582 L309.410627,174.443212 C312.015676,174.392182 314.664196,174.530152 317.244046,174.855232 L316.850296,177.980662 Z M294.947087,180.027532 L293.975627,177.031252 C296.458457,176.226112 299.023187,175.599262 301.599257,175.168342 L302.119007,178.275502 C299.695397,178.680592 297.282497,179.270272 294.947087,180.027532 L294.947087,180.027532 Z M331.035376,181.952182 C328.790056,180.947332 326.452756,180.102502 324.087106,179.440372 L324.936346,176.406922 C327.450676,177.111262 329.935396,178.009012 332.322466,179.077492 L331.035376,181.952182 Z M281.761188,186.580162 L279.960648,183.994642 C282.105168,182.502172 284.375058,181.157122 286.709208,179.997292 L288.110957,182.817802 C285.914778,183.909592 283.778448,185.175262 281.761188,186.580162 L281.761188,186.580162 Z M343.456455,189.878842 C341.596695,188.266672 339.605265,186.779242 337.536345,185.459392 L339.231675,182.803942 C341.429115,184.206952 343.544655,185.786362 345.520335,187.499332 L343.456455,189.878842 Z M271.025358,196.668981 L268.557018,194.711572 C270.178008,192.667222 271.964688,190.724302 273.867288,188.935732 L276.024408,191.231452 C274.233318,192.914812 272.551218,194.744332 271.025358,196.668981 L271.025358,196.668981 Z M353.061435,201.047481 C351.749145,198.973521 350.271165,196.976421 348.667815,195.112882 L351.056145,193.058452 C352.759035,195.038542 354.328995,197.159751 355.723185,199.363491 L353.061435,201.047481 Z M263.656249,209.428371 L260.726749,208.270431 C261.685609,205.843041 262.835359,203.464791 264.143239,201.201201 L266.870508,202.776831 C265.640118,204.906861 264.559038,207.144621 263.656249,209.428371 L263.656249,209.428371 Z M359.020604,214.509321 C358.368554,212.144301 357.533804,209.804481 356.537774,207.557271 L359.418134,206.280891 C360.476534,208.670481 361.364204,211.157721 362.057834,213.672681 L359.020604,214.509321 Z M260.319769,223.77725 L257.179849,223.52147 C257.392159,220.91327 257.799139,218.30507 258.388189,215.768691 L261.456289,216.481851 C260.901889,218.86766 260.519479,221.32277 260.319769,223.77725 L260.319769,223.77725 Z M363.961064,229.20596 L360.812324,229.13036 C360.821774,228.72842 360.826814,228.32459 360.826814,227.92013 C360.826814,225.85877 360.700184,223.78418 360.452594,221.75306 L363.579284,221.37065 C363.843254,223.5284 363.976814,225.73151 363.976814,227.92013 C363.976814,228.34916 363.971774,228.77756 363.961064,229.20596 L363.961064,229.20596 Z M258.180289,239.13791 C257.636599,236.59082 257.276869,233.97506 257.111179,231.36308 L260.254879,231.164 C260.411119,233.62163 260.749429,236.0843 261.260989,238.48082 L258.180289,239.13791 Z M361.311914,244.637179 L358.319414,243.652489 C359.086124,241.321489 359.685884,238.90985 360.101054,236.48561 L363.205694,237.01733 C362.764694,239.59466 362.127134,242.158129 361.311914,244.637179 L361.311914,244.637179 Z M263.667589,253.799269 C262.400659,251.512999 261.295009,249.114589 260.381509,246.672079 L263.331169,245.568319 C264.191119,247.865929 265.231248,250.121959 266.423208,252.273409 L263.667589,253.799269 Z M354.288045,258.630739 L351.710085,256.819489 C353.123175,254.807899 354.398925,252.675349 355.500795,250.479799 L358.315634,251.893519 C357.144464,254.226409 355.789335,256.493149 354.288045,258.630739 L354.288045,258.630739 Z M273.168618,266.237988 C271.298148,264.414768 269.546748,262.439719 267.962928,260.366389 L270.465918,258.454339 C271.957128,260.406079 273.605838,262.265209 275.366688,263.981329 L273.168618,266.237988 Z M346.862235,267.138258 L344.719605,264.828678 C345.514035,264.092209 346.292085,263.321719 347.033595,262.539259 L349.321125,264.704568 C348.532995,265.537428 347.705805,266.355798 346.862235,267.138258 L346.862235,267.138258 Z M285.853668,275.409528 C283.537158,274.205598 281.289318,272.818968 279.173778,271.287438 L281.020308,268.735938 C283.011108,270.176748 285.126018,271.481478 287.306447,272.614218 L285.853668,275.409528 Z" id="Fill-41" fill="#333333" mask="url(#mask-2)"></path>
                    <path d="M340.579875,272.147766 L338.805795,269.545236 C339.840885,268.839006 340.860855,268.086786 341.836725,267.309366 L343.799175,269.772666 C342.763455,270.598596 341.679855,271.398066 340.579875,272.147766" id="Fill-42" fill="#333333" mask="url(#mask-2)"></path>
                    <path d="M514.675202,126.220369 L439.073945,126.220369 C438.573095,126.220369 438.101855,125.982229 437.804495,125.578399 C437.508395,125.174569 437.421455,124.653559 437.570765,124.175389 L444.637475,101.56721 C444.842855,100.90949 445.451435,100.46156 446.140655,100.46156 L455.219584,100.46156 L455.219584,103.611559 L447.298595,103.611559 L441.215945,123.070369 L512.533202,123.070369 L506.451182,103.611559 L498.530822,103.611559 L498.530822,100.46156 L507.609122,100.46156 C508.298342,100.46156 508.906922,100.90949 509.112302,101.56721 L516.178382,124.175389 C516.327692,124.653559 516.240752,125.174569 515.944652,125.578399 C515.647292,125.982229 515.176052,126.220369 514.675202,126.220369" id="Fill-43" fill="#333333" mask="url(#mask-2)"></path>
                    <polygon id="Fill-44" fill="#333333" mask="url(#mask-2)" points="461.8492 103.611685 491.644419 103.611685 491.644419 100.461686 461.8492 100.461686"></polygon>
                    <path d="M455.225065,67.6653991 C455.162065,67.6653991 455.099695,67.6679191 455.035435,67.6742191 C453.961915,67.7762791 453.170635,68.733879 453.272695,69.808659 L457.345645,110.586667 C457.404235,111.032077 457.714195,112.112527 459.285415,112.112527 C459.384325,112.112527 459.486385,112.108747 459.592225,112.100557 C460.219705,112.053937 460.663855,111.875017 460.912705,111.568837 C461.308345,111.083107 461.250385,110.288047 461.249755,110.280487 L457.171135,69.446409 C457.074745,68.427069 456.238105,67.6653991 455.225065,67.6653991 M459.286045,115.262527 L459.285415,115.262527 C455.606845,115.262527 454.357555,112.406107 454.211395,110.895997 L450.137815,70.1135789 C449.871325,67.3025191 451.935205,64.8045692 454.738075,64.5387092 C457.588195,64.2633992 460.041415,66.3430291 460.306015,69.140859 L464.378335,109.920757 C464.401015,110.088337 464.610175,112.017397 463.355215,113.558377 C462.793885,114.248227 461.724775,115.100617 459.825955,115.242367 C459.638845,115.256227 459.459295,115.262527 459.286045,115.262527" id="Fill-45" fill="#333333" mask="url(#mask-2)"></path>
                    <path d="M498.523451,67.6653991 C497.511041,67.6653991 496.674401,68.427069 496.579271,69.438219 L492.505062,110.233867 C492.477342,110.701957 492.656262,111.559387 494.191571,111.782407 C494.374271,111.808867 494.548781,111.822727 494.710691,111.822727 C495.968801,111.822727 496.317191,110.938207 496.411691,110.510437 L500.478341,69.800469 C500.579141,68.733879 499.787231,67.7762791 498.713081,67.6742191 C498.649451,67.6679191 498.586451,67.6653991 498.523451,67.6653991 M494.710691,114.972727 L494.710061,114.972727 C494.396951,114.972727 494.069981,114.948157 493.737342,114.899647 C490.203042,114.385567 489.190632,111.634987 489.372072,109.911937 L493.443762,69.133299 C493.707732,66.3436591 496.161581,64.2646592 499.010441,64.5387092 C501.813941,64.8045692 503.878451,67.3025191 503.613221,70.1060189 L499.538381,110.899777 C499.535231,110.932537 499.531451,110.964667 499.526411,110.996797 C499.302131,112.371457 498.007481,114.972727 494.710691,114.972727" id="Fill-46" fill="#333333" mask="url(#mask-2)"></path>
                    <path d="M514.675202,137.880282 L439.073945,137.880282 C438.203915,137.880282 437.498945,137.175312 437.498945,136.305282 L437.498945,124.645243 L440.648945,124.645243 L440.648945,134.730282 L513.100202,134.730282 L513.100202,124.645243 L516.250202,124.645243 L516.250202,136.305282 C516.250202,137.175312 515.545232,137.880282 514.675202,137.880282" id="Fill-47" fill="#333333" mask="url(#mask-2)"></path>
                    <path d="M245.415418,99.4551977 C245.415418,97.5601578 243.878848,96.0235878 241.983808,96.0235878 C240.087509,96.0235878 238.551569,97.5601578 238.551569,99.4551977 C238.551569,101.350238 240.087509,102.886178 241.983808,102.886178 C243.878848,102.886178 245.415418,101.350238 245.415418,99.4551977" id="Fill-48" fill="#333333" mask="url(#mask-2)"></path>
                    <path d="M255.097384,99.4551977 C255.097384,97.5601578 253.561444,96.0235878 251.666404,96.0235878 C249.770734,96.0235878 248.233534,97.5601578 248.233534,99.4551977 C248.233534,101.350238 249.770734,102.886178 251.666404,102.886178 C253.561444,102.886178 255.097384,101.350238 255.097384,99.4551977" id="Fill-49" fill="#333333" mask="url(#mask-2)"></path>
                    <path d="M264.780546,99.4551977 C264.780546,97.5601578 263.243977,96.0235878 261.348307,96.0235878 C259.453897,96.0235878 257.916697,97.5601578 257.916697,99.4551977 C257.916697,101.350238 259.453897,102.886178 261.348307,102.886178 C263.243977,102.886178 264.780546,101.350238 264.780546,99.4551977" id="Fill-50" fill="#333333" mask="url(#mask-2)"></path>
                    <path d="M363.545264,101.523236 L364.878974,101.523236 L364.878974,97.3891758 L363.545264,97.3891758 L363.545264,101.523236 Z M365.823974,103.413235 L362.600264,103.413235 C362.078624,103.413235 361.655264,102.989876 361.655264,102.468236 L361.655264,96.4435458 C361.655264,95.9219058 362.078624,95.4985458 362.600264,95.4985458 L365.823974,95.4985458 C366.345614,95.4985458 366.768974,95.9219058 366.768974,96.4435458 L366.768974,102.468236 C366.768974,102.989876 366.345614,103.413235 365.823974,103.413235 L365.823974,103.413235 Z" id="Fill-51" fill="#333333" mask="url(#mask-2)"></path>
                    <path d="M367.097834,103.190846 L371.026514,103.190846 L371.026514,95.7215658 L367.097834,95.7215658 L367.097834,103.190846 Z M371.971514,105.080845 L366.839534,105.080845 C365.939894,105.080845 365.207834,104.393515 365.207834,103.548685 L365.207834,95.3630958 C365.207834,94.5182659 365.939894,93.8315659 366.839534,93.8315659 L371.971514,93.8315659 C372.493154,93.8315659 372.916514,94.2542959 372.916514,94.7765659 L372.916514,104.135845 C372.916514,104.658115 372.493154,105.080845 371.971514,105.080845 L371.971514,105.080845 Z" id="Fill-52" fill="#333333" mask="url(#mask-2)"></path>
                    <path d="M372.916514,103.190846 L376.731794,103.190846 L376.731794,95.7215658 L372.916514,95.7215658 L372.916514,103.190846 Z M377.676794,105.080845 L371.971514,105.080845 C371.449874,105.080845 371.026514,104.658115 371.026514,104.135845 L371.026514,94.7765659 C371.026514,94.2542959 371.449874,93.8315659 371.971514,93.8315659 L377.676794,93.8315659 C378.198434,93.8315659 378.621794,94.2542959 378.621794,94.7765659 L378.621794,104.135845 C378.621794,104.658115 378.198434,105.080845 377.676794,105.080845 L377.676794,105.080845 Z" id="Fill-53" fill="#333333" mask="url(#mask-2)"></path>
                    <path d="M378.621794,103.190846 L382.219093,103.190846 L382.219093,95.7215658 L378.621794,95.7215658 L378.621794,103.190846 Z M382.477393,105.080845 L377.676794,105.080845 C377.155154,105.080845 376.731794,104.658115 376.731794,104.135845 L376.731794,94.7765659 C376.731794,94.2542959 377.155154,93.8315659 377.676794,93.8315659 L382.477393,93.8315659 C383.377033,93.8315659 384.109093,94.5182659 384.109093,95.3630958 L384.109093,103.548685 C384.109093,104.393515 383.377033,105.080845 382.477393,105.080845 L382.477393,105.080845 Z" id="Fill-54" fill="#333333" mask="url(#mask-2)"></path>
                    <polygon id="Fill-55" fill="#BCBCBC" mask="url(#mask-2)" points="297.945257 102.231356 324.361156 102.231356 324.361156 96.6804258 297.945257 96.6804258"></polygon>
                    <path d="M475.172439,145.496604 L478.322439,145.496604 L478.322439,137.936604 L475.172439,137.936604 L475.172439,145.496604 Z M475.172439,160.616603 L478.322439,160.616603 L478.322439,153.056603 L475.172439,153.056603 L475.172439,160.616603 Z M475.172439,175.736602 L478.322439,175.736602 L478.322439,168.176603 L475.172439,168.176603 L475.172439,175.736602 Z M475.172439,190.856602 L478.322439,190.856602 L478.322439,183.296602 L475.172439,183.296602 L475.172439,190.856602 Z M484.507779,203.837121 C481.814529,202.942521 479.410449,201.173481 477.738429,198.857601 L480.293079,197.013591 C481.580799,198.797751 483.430479,200.159811 485.500659,200.847771 L484.507779,203.837121 Z M492.497439,204.524451 L500.057438,204.524451 L500.057438,201.374451 L492.497439,201.374451 L492.497439,204.524451 Z M507.617438,204.524451 L515.177438,204.524451 L515.177438,201.374451 L507.617438,201.374451 L507.617438,204.524451 Z M522.737437,204.524451 L530.297437,204.524451 L530.297437,201.374451 L522.737437,201.374451 L522.737437,204.524451 Z M537.857437,204.524451 L545.417436,204.524451 L545.417436,201.374451 L537.857437,201.374451 L537.857437,204.524451 Z" id="Fill-56" fill="#333333" mask="url(#mask-2)"></path>
                    <polygon id="Fill-57" fill="#3BC1C3" mask="url(#mask-2)" points="369.732116 161.727356 276.0486 161.727356 269.06379 173.608525 262.877191 161.727356 252.540781 161.727356 252.540781 125.972968 369.732116 125.972968"></polygon>
                    <path d="M254.116096,160.152356 L262.876876,160.152356 C263.464036,160.152356 264.002686,160.479326 264.274215,160.999706 L269.147265,170.358986 L274.690635,160.929146 C274.973505,160.447826 275.490105,160.152356 276.048285,160.152356 L368.157431,160.152356 L368.157431,127.547967 L254.116096,127.547967 L254.116096,160.152356 Z M269.064105,175.183525 C269.050245,175.183525 269.037015,175.183525 269.023155,175.182895 C268.450485,175.168405 267.931365,174.843955 267.666765,174.336175 L261.921796,163.302356 L252.541096,163.302356 C251.671066,163.302356 250.966096,162.597386 250.966096,161.727356 L250.966096,125.972968 C250.966096,125.102938 251.671066,124.397968 252.541096,124.397968 L369.732431,124.397968 C370.601831,124.397968 371.307431,125.102938 371.307431,125.972968 L371.307431,161.727356 C371.307431,162.597386 370.601831,163.302356 369.732431,163.302356 L276.949815,163.302356 L270.421755,174.406735 C270.138255,174.889315 269.621025,175.183525 269.064105,175.183525 L269.064105,175.183525 Z" id="Fill-58" fill="#333333" mask="url(#mask-2)"></path>
                    <polygon id="Fill-59" fill="#333333" mask="url(#mask-2)" points="350.625855 138.699534 358.633784 138.699534 358.633784 135.549534 350.625855 135.549534"></polygon>
                    <polygon id="Fill-60" fill="#FFFFFF" mask="url(#mask-2)" points="264.255378 148.267974 337.768815 148.267974 337.768815 145.117974 264.255378 145.117974"></polygon>
                    <polygon id="Fill-61" fill="#FFFFFF" mask="url(#mask-2)" points="264.255378 141.189924 337.768815 141.189924 337.768815 138.039924 264.255378 138.039924"></polygon>
                    <path d="M459.524941,39.1640743 C458.356921,39.1640743 457.192051,38.7312643 456.289261,37.8486344 C454.455331,36.0644744 454.413751,33.1286746 456.199171,31.2947446 C467.677771,19.4992552 486.61305,19.2315052 498.408539,30.7050647 C500.246879,32.4892246 500.287199,35.4256545 498.500519,37.2646244 C496.713839,39.0985543 493.77678,39.1388743 491.94348,37.3528244 C483.819,29.4438047 470.762251,29.6302847 462.848821,37.7591744 C461.939731,38.6972443 460.731391,39.1640743 459.524941,39.1640743" id="Fill-62" fill="#3BC1C3" mask="url(#mask-2)"></path>
                    <path d="M448.981702,21.4896141 C447.816203,21.4896141 446.650073,21.0549141 445.746653,20.1798441 C443.912093,18.3956842 443.870513,15.4592543 445.655933,13.6228044 C454.031782,5.00629478 465.261532,0.169784993 477.273741,0.00283499988 C489.287211,-0.122534995 500.648,4.35298481 509.26136,12.7275744 C511.09592,14.5155144 511.13876,17.4519442 509.35523,19.2883942 C507.5654,21.1254741 504.63401,21.1613841 502.79567,19.3791142 C495.95513,12.7294644 486.917151,9.2172146 477.401001,9.2758046 C467.869102,9.40873459 458.953342,13.2485844 452.307472,20.0866041 C451.395862,21.0208941 450.187522,21.4896141 448.981702,21.4896141" id="Fill-63" fill="#3BC1C3" mask="url(#mask-2)"></path>
                    <path d="M483.818685,50.4560678 C483.818685,54.0269076 480.921315,56.9230175 477.347955,56.9230175 C473.782155,56.9230175 470.884786,54.0269076 470.884786,50.4560678 C470.884786,46.884598 473.782155,43.9922681 477.347955,43.9922681 C480.921315,43.9922681 483.818685,46.884598 483.818685,50.4560678" id="Fill-64" fill="#3BC1C3" mask="url(#mask-2)"></path>
                    <path d="M458.969407,307.627727 C456.270487,307.627727 454.074307,309.823277 454.074307,312.522826 L454.074307,371.819054 C454.074307,374.517974 456.270487,376.713524 458.969407,376.713524 L563.452382,376.713524 C566.151932,376.713524 568.348112,374.517974 568.348112,371.819054 L568.348112,312.522826 C568.348112,309.823277 566.151932,307.627727 563.452382,307.627727 L458.969407,307.627727 Z M563.452382,379.863523 L458.969407,379.863523 C454.533577,379.863523 450.924307,376.254884 450.924307,371.819054 L450.924307,312.522826 C450.924307,308.086997 454.533577,304.477727 458.969407,304.477727 L563.452382,304.477727 C567.888842,304.477727 571.498112,308.086997 571.498112,312.522826 L571.498112,371.819054 C571.498112,376.254884 567.888842,379.863523 563.452382,379.863523 L563.452382,379.863523 Z" id="Fill-65" fill="#333333" mask="url(#mask-2)"></path>
                    <path d="M474.977769,314.576815 C468.65005,314.576815 463.50169,319.725175 463.50169,326.052895 C463.50169,332.380615 468.65005,337.528974 474.977769,337.528974 C481.304859,337.528974 486.452589,332.380615 486.452589,326.052895 C486.452589,319.725175 481.304859,314.576815 474.977769,314.576815 M474.977769,340.678974 C466.91314,340.678974 460.35169,334.117524 460.35169,326.052895 C460.35169,317.988265 466.91314,311.426815 474.977769,311.426815 C483.041769,311.426815 489.602589,317.988265 489.602589,326.052895 C489.602589,334.117524 483.041769,340.678974 474.977769,340.678974" id="Fill-66" fill="#333333" mask="url(#mask-2)"></path>
                    <path d="M479.598189,326.052769 C479.598189,328.604899 477.528639,330.673819 474.977769,330.673819 C472.425639,330.673819 470.35672,328.604899 470.35672,326.052769 C470.35672,323.500639 472.425639,321.431719 474.977769,321.431719 C477.528639,321.431719 479.598189,323.500639 479.598189,326.052769" id="Fill-67" fill="#E74C3C" mask="url(#mask-2)"></path>
                    <path d="M474.977769,323.006719 C473.298189,323.006719 471.931719,324.373189 471.931719,326.052769 C471.931719,327.732349 473.298189,329.098819 474.977769,329.098819 C476.656719,329.098819 478.023189,327.732349 478.023189,326.052769 C478.023189,324.373189 476.656719,323.006719 474.977769,323.006719 M474.977769,332.248819 C471.561279,332.248819 468.78172,329.469259 468.78172,326.052769 C468.78172,322.636279 471.561279,319.856719 474.977769,319.856719 C478.394259,319.856719 481.173189,322.636279 481.173189,326.052769 C481.173189,329.469259 478.394259,332.248819 474.977769,332.248819" id="Fill-68" fill="#333333" mask="url(#mask-2)"></path>
                    <polygon id="Fill-69" fill="#333333" mask="url(#mask-2)" points="479.889249 327.627706 488.027589 327.627706 488.027589 324.477706 479.889249 324.477706"></polygon>
                    <path d="M474.977202,346.812654 C471.912252,346.812654 469.030633,348.006504 466.862803,350.173704 C462.389173,354.647334 462.389803,361.927613 466.864063,366.403763 C469.031263,368.570333 471.912882,369.764183 474.977832,369.764183 C478.042152,369.764183 480.923772,368.570333 483.091602,366.403763 C485.258802,364.235933 486.452652,361.353683 486.452652,358.288733 C486.452652,355.223154 485.258172,352.340904 483.090972,350.173704 C480.923142,348.006504 478.041522,346.812654 474.977202,346.812654 M474.977832,372.914183 C471.071202,372.914183 467.398933,371.393363 464.636383,368.630813 C458.933623,362.926163 458.933623,353.647524 464.635753,347.946654 C467.398303,345.184104 471.070572,343.662654 474.977202,343.662654 C478.883202,343.662654 482.555472,345.184104 485.318022,347.946654 C488.081202,350.708574 489.602652,354.381474 489.602652,358.288733 C489.602652,362.195363 488.081202,365.868263 485.318652,368.630813 C482.556102,371.393363 478.883832,372.914183 474.977832,372.914183" id="Fill-70" fill="#333333" mask="url(#mask-2)"></path>
                    <path d="M478.244697,361.554275 C476.440377,363.359855 473.514027,363.358595 471.709707,361.554275 C469.906018,359.751215 469.904758,356.824235 471.709707,355.019916 C473.514027,353.218116 476.440377,353.218116 478.244697,355.019916 C480.049017,356.822975 480.049017,359.751215 478.244697,361.554275" id="Fill-71" fill="#E74C3C" mask="url(#mask-2)"></path>
                    <path d="M474.977202,355.243188 C474.163242,355.243188 473.397792,355.560078 472.822602,356.134008 C472.248042,356.708567 471.931152,357.473387 471.931152,358.287347 C471.931152,359.100677 472.248042,359.865497 472.823232,360.440057 C473.399052,361.015877 474.163872,361.333397 474.977832,361.333397 C475.791162,361.333397 476.555982,361.016507 477.130542,360.440687 C477.706362,359.865497 478.023252,359.100677 478.023252,358.287347 C478.023252,357.473387 477.706362,356.708567 477.131172,356.134008 C476.556612,355.560078 475.791162,355.243188 474.977202,355.243188 M474.977832,364.483397 C473.322822,364.483397 471.766092,363.838907 470.596183,362.667737 C469.425643,361.498457 468.781783,359.942987 468.781153,358.287977 C468.781153,356.632337 469.425643,355.075608 470.596183,353.905698 C471.766722,352.736418 473.322822,352.093188 474.977202,352.093188 C476.631582,352.093188 478.187682,352.736418 479.357592,353.905698 C480.528762,355.074978 481.173252,356.631077 481.173252,358.287347 C481.173252,359.942987 480.528762,361.499087 479.358222,362.668367 C478.188942,363.838907 476.632842,364.483397 474.977832,364.483397" id="Fill-72" fill="#333333" mask="url(#mask-2)"></path>
                    <polygon id="Fill-73" fill="#333333" mask="url(#mask-2)" points="483.091539 368.630687 477.336489 362.875007 479.563539 360.647957 485.318589 366.403637"></polygon>
                    <polygon id="Fill-74" fill="#3BC1C3" mask="url(#mask-2)" points="538.689667 360.507404 550.983486 360.507404 550.983486 354.037305 538.689667 354.037305"></polygon>
                    <path d="M540.264666,358.932404 L549.408486,358.932404 L549.408486,355.612305 L540.264666,355.612305 L540.264666,358.932404 Z M550.983486,362.082404 L538.689667,362.082404 C537.819637,362.082404 537.114667,361.376804 537.114667,360.507404 L537.114667,354.037305 C537.114667,353.167275 537.819637,352.462305 538.689667,352.462305 L550.983486,352.462305 C551.852886,352.462305 552.558486,353.167275 552.558486,354.037305 L552.558486,360.507404 C552.558486,361.376804 551.852886,362.082404 550.983486,362.082404 L550.983486,362.082404 Z" id="Fill-75" fill="#333333" mask="url(#mask-2)"></path>
                    <polygon id="Fill-76" fill="#3BC1C3" mask="url(#mask-2)" points="538.689667 354.037305 550.983486 354.037305 550.983486 347.569725 538.689667 347.569725"></polygon>
                    <path d="M540.264666,352.462305 L549.408486,352.462305 L549.408486,349.144725 L540.264666,349.144725 L540.264666,352.462305 Z M550.983486,355.612305 L538.689667,355.612305 C537.819637,355.612305 537.114667,354.907335 537.114667,354.037305 L537.114667,347.569725 C537.114667,346.700325 537.819637,345.994725 538.689667,345.994725 L550.983486,345.994725 C551.852886,345.994725 552.558486,346.700325 552.558486,347.569725 L552.558486,354.037305 C552.558486,354.907335 551.852886,355.612305 550.983486,355.612305 L550.983486,355.612305 Z" id="Fill-77" fill="#333333" mask="url(#mask-2)"></path>
                    <polygon id="Fill-78" fill="#3BC1C3" mask="url(#mask-2)" points="538.689667 347.924415 550.983486 347.924415 550.983486 341.454315 538.689667 341.454315"></polygon>
                    <path d="M540.264666,346.349415 L549.408486,346.349415 L549.408486,343.029315 L540.264666,343.029315 L540.264666,346.349415 Z M550.983486,349.499415 L538.689667,349.499415 C537.819637,349.499415 537.114667,348.794445 537.114667,347.924415 L537.114667,341.454315 C537.114667,340.584915 537.819637,339.879315 538.689667,339.879315 L550.983486,339.879315 C551.852886,339.879315 552.558486,340.584915 552.558486,341.454315 L552.558486,347.924415 C552.558486,348.794445 551.852886,349.499415 550.983486,349.499415 L550.983486,349.499415 Z" id="Fill-79" fill="#333333" mask="url(#mask-2)"></path>
                    <path d="M540.264666,340.050045 L549.408486,340.050045 L549.408486,336.731205 L540.264666,336.731205 L540.264666,340.050045 Z M550.983486,343.200045 L538.689667,343.200045 C537.819637,343.200045 537.114667,342.495075 537.114667,341.625045 L537.114667,335.156205 C537.114667,334.286175 537.819637,333.581205 538.689667,333.581205 L550.983486,333.581205 C551.852886,333.581205 552.558486,334.286175 552.558486,335.156205 L552.558486,341.625045 C552.558486,342.495075 551.852886,343.200045 550.983486,343.200045 L550.983486,343.200045 Z" id="Fill-80" fill="#333333" mask="url(#mask-2)"></path>
                    <path d="M540.264666,333.524505 L549.408486,333.524505 L549.408486,330.205666 L540.264666,330.205666 L540.264666,333.524505 Z M550.983486,336.674505 L538.689667,336.674505 C537.819637,336.674505 537.114667,335.969535 537.114667,335.099505 L537.114667,328.631296 C537.114667,327.761266 537.819637,327.056296 538.689667,327.056296 L550.983486,327.056296 C551.852886,327.056296 552.558486,327.761266 552.558486,328.631296 L552.558486,335.099505 C552.558486,335.969535 551.852886,336.674505 550.983486,336.674505 L550.983486,336.674505 Z" id="Fill-81" fill="#333333" mask="url(#mask-2)"></path>
                    <path d="M501.076022,315.609763 C499.803422,315.609763 498.768962,316.583113 498.768962,317.779483 L498.768962,366.561011 C498.768962,367.756751 499.803422,368.730101 501.076022,368.730101 L557.36841,368.730101 C558.64038,368.730101 559.67547,367.756751 559.67547,366.561011 L559.67547,317.779483 C559.67547,316.583113 558.64038,315.609763 557.36841,315.609763 L501.076022,315.609763 Z M557.36841,371.880101 L501.076022,371.880101 C498.067142,371.880101 495.618962,369.493661 495.618962,366.561011 L495.618962,317.779483 C495.618962,314.846203 498.067142,312.459763 501.076022,312.459763 L557.36841,312.459763 C560.37729,312.459763 562.82547,314.846203 562.82547,317.779483 L562.82547,366.561011 C562.82547,369.493661 560.37729,371.880101 557.36841,371.880101 L557.36841,371.880101 Z" id="Fill-82" fill="#333333" mask="url(#mask-2)"></path>
                    <path d="M507.17606,359.607071 L510.43757,356.183021 C512.78936,353.714052 514.67621,351.594102 514.67621,349.474782 C514.67621,347.424762 513.55859,346.609542 511.39202,346.609542 C510.20447,346.609542 508.8065,347.192292 507.87473,347.751732 L507.38585,345.515232 C508.52741,344.839872 510.25109,344.211132 512.20724,344.211132 C515.93369,344.211132 517.844479,346.004112 517.844479,349.078512 C517.844479,352.106922 515.25833,354.808992 513.18563,356.951621 L511.18223,359.001641 L517.983709,359.001641 L517.983709,361.377371 L507.17606,361.377371 L507.17606,359.607071 Z" id="Fill-83" fill="#333333" mask="url(#mask-2)"></path>
                    <path d="M529.211317,356.089782 C529.211317,353.807292 527.930527,352.968762 526.206217,352.968762 C524.972047,352.968762 523.737877,353.830602 523.155127,354.622512 L523.155127,354.762372 C523.155127,357.650921 524.040277,359.420591 526.276777,359.420591 C528.093697,359.420591 529.211317,358.209101 529.211317,356.089782 M520.104037,354.156942 L520.104037,352.945452 C520.104037,346.586862 523.341607,344.234442 527.394397,344.234442 C529.094767,344.234442 530.631967,344.769942 531.353947,345.188892 L530.771827,347.424762 C530.119147,347.075742 528.675187,346.679472 527.557567,346.679472 C525.041977,346.679472 523.364917,347.914272 523.132447,352.270092 C523.993657,351.524802 525.344377,350.778882 527.091997,350.778882 C530.026537,350.778882 532.145857,352.619112 532.145857,355.857312 C532.145857,359.118191 530.119147,361.679771 526.346077,361.679771 C522.246667,361.679771 520.104037,358.815161 520.104037,354.156942" id="Fill-84" fill="#333333" mask="url(#mask-2)"></path>
                    <path d="M556.828563,176.504068 C554.454723,176.504068 552.523773,178.435648 552.523773,180.809488 L552.523773,258.705835 C552.523773,261.079045 554.454723,263.009995 556.828563,263.009995 L610.71435,263.009995 C613.08819,263.009995 615.01851,261.079045 615.01851,258.705835 L615.01851,180.809488 C615.01851,178.435648 613.08819,176.504068 610.71435,176.504068 L556.828563,176.504068 Z M610.71435,266.159994 L556.828563,266.159994 C552.718443,266.159994 549.373773,262.815955 549.373773,258.705835 L549.373773,180.809488 C549.373773,176.698738 552.718443,173.354068 556.828563,173.354068 L610.71435,173.354068 C614.8251,173.354068 618.16851,176.698738 618.16851,180.809488 L618.16851,258.705835 C618.16851,262.815955 614.8251,266.159994 610.71435,266.159994 L610.71435,266.159994 Z" id="Fill-85" fill="#333333" mask="url(#mask-2)"></path>
                    <polygon id="Fill-86" fill="#E74C3C" mask="url(#mask-2)" points="562.588086 219.63311 604.954954 219.63311 604.954954 190.590742 562.588086 190.590742"></polygon>
                    <path d="M564.163085,218.058111 L603.379954,218.058111 L603.379954,192.165742 L564.163085,192.165742 L564.163085,218.058111 Z M604.954954,221.20811 L562.588086,221.20811 C561.718056,221.20811 561.013086,220.50314 561.013086,219.63311 L561.013086,190.591372 C561.013086,189.721342 561.718056,189.016372 562.588086,189.016372 L604.954954,189.016372 C605.824354,189.016372 606.529954,189.721342 606.529954,190.591372 L606.529954,219.63311 C606.529954,220.50314 605.824354,221.20811 604.954954,221.20811 L604.954954,221.20811 Z" id="Fill-87" fill="#333333" mask="url(#mask-2)"></path>
                    <path d="M564.163085,247.349959 L603.379954,247.349959 L603.379954,221.45696 L564.163085,221.45696 L564.163085,247.349959 Z M604.954954,250.499959 L562.588086,250.499959 C561.718056,250.499959 561.013086,249.794989 561.013086,248.924959 L561.013086,219.88259 C561.013086,219.01256 561.718056,218.30759 562.588086,218.30759 L604.954954,218.30759 C605.824354,218.30759 606.529954,219.01256 606.529954,219.88259 L606.529954,248.924959 C606.529954,249.794989 605.824354,250.499959 604.954954,250.499959 L604.954954,250.499959 Z" id="Fill-88" fill="#333333" mask="url(#mask-2)"></path>
                    <polygon id="Fill-89" fill="#FFFFFF" mask="url(#mask-2)" points="594.769114 213.587001 598.052044 213.587001 598.052044 196.638111 594.769114 196.638111"></polygon>
                    <polygon id="Fill-90" fill="#BCBCBC" mask="url(#mask-2)" points="594.769114 242.879479 598.052044 242.879479 598.052044 225.9287 594.769114 225.9287"></polygon>
                    <path d="M509.635958,211.424841 L512.785958,211.424841 L512.785958,203.864841 L509.635958,203.864841 L509.635958,211.424841 Z M509.635958,226.54484 L512.785958,226.54484 L512.785958,218.98484 L509.635958,218.98484 L509.635958,226.54484 Z M509.635958,241.664839 L512.785958,241.664839 L512.785958,234.10484 L509.635958,234.10484 L509.635958,241.664839 Z M509.635958,256.784839 L512.785958,256.784839 L512.785958,249.224839 L509.635958,249.224839 L509.635958,256.784839 Z M509.635958,271.904838 L512.785958,271.904838 L512.785958,264.344838 L509.635958,264.344838 L509.635958,271.904838 Z M509.635958,287.024838 L512.785958,287.024838 L512.785958,279.464838 L509.635958,279.464838 L509.635958,287.024838 Z M509.635958,302.144837 L512.785958,302.144837 L512.785958,294.584837 L509.635958,294.584837 L509.635958,302.144837 Z" id="Fill-91" fill="#333333" mask="url(#mask-2)"></path>
                    <path d="M52.6587997,178.921315 C41.6533302,178.921315 33.6661905,187.723675 33.6661905,199.851804 L33.6661905,212.648994 C33.6661905,224.358173 41.2986402,232.224983 52.6587997,232.224983 L57.5942195,232.224983 C68.954379,232.224983 76.5868287,224.358173 76.5868287,212.648994 L76.5868287,199.851804 C76.5868287,187.723675 68.599689,178.921315 57.5942195,178.921315 L52.6587997,178.921315 Z M57.5942195,235.374983 L52.6587997,235.374983 C39.4143103,235.374983 30.5161907,226.241873 30.5161907,212.648994 L30.5161907,199.851804 C30.5161907,185.898565 39.8282203,175.771315 52.6587997,175.771315 L57.5942195,175.771315 C70.4247989,175.771315 79.7368285,185.898565 79.7368285,199.851804 L79.7368285,212.648994 C79.7368285,226.241873 70.8387089,235.374983 57.5942195,235.374983 L57.5942195,235.374983 Z" id="Fill-92" fill="#333333" mask="url(#mask-2)"></path>
                    <path d="M68.306676,200.013399 C68.306676,207.293049 62.4060963,213.194259 55.1258166,213.194259 C47.8461669,213.194259 41.9443272,207.293049 41.9443272,200.013399 C41.9443272,192.73312 47.8461669,186.83128 55.1258166,186.83128 C62.4060963,186.83128 68.306676,192.73312 68.306676,200.013399" id="Fill-93" fill="#E74C3C" mask="url(#mask-2)"></path>
                    <path d="M55.1258796,188.406406 C48.7263399,188.406406 43.5193901,193.613356 43.5193901,200.013525 C43.5193901,206.413065 48.7263399,211.619385 55.1258796,211.619385 C61.5254193,211.619385 66.7317391,206.413065 66.7317391,200.013525 C66.7317391,193.613356 61.5254193,188.406406 55.1258796,188.406406 M55.1258796,214.769385 C46.9888,214.769385 40.3693902,208.149975 40.3693902,200.013525 C40.3693902,191.876446 46.9888,185.256406 55.1258796,185.256406 C63.2623292,185.256406 69.881739,191.876446 69.881739,200.013525 C69.881739,208.149975 63.2623292,214.769385 55.1258796,214.769385" id="Fill-94" fill="#333333" mask="url(#mask-2)"></path>
                    <path d="M62.7185133,200.013399 C62.7185133,204.205419 59.3190334,207.604899 55.1257536,207.604899 C50.9337338,207.604899 47.5342539,204.205419 47.5342539,200.013399 C47.5342539,195.820119 50.9337338,192.42064 55.1257536,192.42064 C59.3190334,192.42064 62.7185133,195.820119 62.7185133,200.013399" id="Fill-95" fill="#333333" mask="url(#mask-2)"></path>
                    <path d="M84.0855923,256.036021 L26.1665449,256.036021 C21.946805,256.036021 17.9954452,252.642211 17.3585152,248.470981 L12.8206254,218.765852 C12.4968055,216.647793 13.0442754,214.636833 14.3616054,213.103413 C15.6783053,211.569993 17.5834252,210.725163 19.7260551,210.725163 L32.4300046,210.725163 L32.4300046,213.875163 L19.7260551,213.875163 C18.5164552,213.875163 17.4599452,214.330023 16.7511953,215.155953 C16.0418153,215.981253 15.7520153,217.094463 15.9340853,218.290202 L20.4719751,247.994701 C20.8770651,250.646371 23.485265,252.886021 26.1665449,252.886021 L84.0855923,252.886021 C86.7675022,252.886021 89.3750721,250.646371 89.7801621,247.994701 L94.3180519,218.290202 C94.5007519,217.094463 94.2109519,215.981253 93.5015719,215.155953 C92.792192,214.330023 91.735682,213.875163 90.5267121,213.875163 L79.0462226,213.875163 L79.0462226,210.725163 L90.5267121,210.725163 C92.668712,210.725163 94.5738319,211.569993 95.8911618,213.103413 C97.2084918,214.636833 97.7553317,216.647793 97.4321418,218.765852 L92.893622,248.470981 C92.256692,252.642211 88.3053322,256.036021 84.0855923,256.036021" id="Fill-96" fill="#333333" mask="url(#mask-2)"></path>
                    <polygon id="Fill-97" fill="#BCBCBC" mask="url(#mask-2)" points="63.9424772 247.813639 83.3527764 247.813639 83.3527764 243.492469 63.9424772 243.492469"></polygon>
                    <path d="M525.889642,74.3016298 C525.417772,74.3016298 524.946532,74.3728198 524.489782,74.5126798 C521.977342,75.2844297 520.561102,77.9562596 521.332222,80.4686995 C521.950882,82.4828094 523.780402,83.8360494 525.885862,83.8360494 C526.358362,83.8360494 526.829602,83.7648594 527.286982,83.6243694 C529.798792,82.8526194 531.214402,80.1820495 530.443912,77.6714996 C529.824622,75.6554997 527.994472,74.3016298 525.889642,74.3016298 M525.885862,86.9860492 C522.388102,86.9860492 519.348352,84.7382093 518.320822,81.3929095 C517.040032,77.2197896 519.392452,72.7826998 523.565572,71.5019099 C524.321572,71.2694399 525.103402,71.1516299 525.889642,71.1516299 C529.386772,71.1516299 532.427152,73.4000998 533.454682,76.7466597 C534.736102,80.9172595 532.384312,85.3537193 528.212452,86.6357692 C527.454562,86.8682392 526.672102,86.9860492 525.885862,86.9860492" id="Fill-98" fill="#333333" mask="url(#mask-2)"></path>
                    <path d="M537.155239,60.0946264 C536.865439,60.0946264 536.575639,60.1380964 536.294659,60.2244064 C534.754309,60.6975364 533.886169,62.3374263 534.359299,63.8790362 C534.739189,65.1157262 535.861849,65.9466961 537.152719,65.9466961 C537.442519,65.9466961 537.731689,65.9025961 538.013299,65.8162861 C539.554909,65.3431562 540.423678,63.7032662 539.950549,62.1616563 C539.571289,60.9255963 538.447369,60.0946264 537.155239,60.0946264 M537.152719,69.096696 C534.469549,69.096696 532.137289,67.3717561 531.347899,64.8038762 C530.365729,61.6009563 532.170049,58.1958065 535.370449,57.2130065 C535.951939,57.0347165 536.552329,56.9446265 537.155239,56.9446265 C539.840299,56.9446265 542.173818,58.6695664 542.961948,61.2368163 C543.944748,64.4391062 542.139798,67.843626 538.938139,68.827686 C538.356649,69.005976 537.756259,69.096696 537.152719,69.096696" id="Fill-99" fill="#333333" mask="url(#mask-2)"></path>
                    <polygon id="Fill-100" fill="#333333" mask="url(#mask-2)" points="13.1921994 160.502573 16.3421993 160.502573 16.3421993 152.763023 13.1921994 152.763023"></polygon>
                    <polygon id="Fill-101" fill="#333333" mask="url(#mask-2)" points="13.1921994 184.288222 16.3421993 184.288222 16.3421993 176.549302 13.1921994 176.549302"></polygon>
                    <polygon id="Fill-102" fill="#333333" mask="url(#mask-2)" points="27.2791878 178.241167 20.7246681 174.127267 22.399208 171.458588 28.9537277 175.573117"></polygon>
                    <polygon id="Fill-103" fill="#333333" mask="url(#mask-2)" points="7.13544269 165.591965 0.579662975 161.478695 2.2535729 158.810015 8.80935262 162.923915"></polygon>
                    <polygon id="Fill-104" fill="#333333" mask="url(#mask-2)" points="1.42669794 177.071635 -0.000251999989 174.263095 6.9020277 170.756516 8.32897764 173.565055"></polygon>
                    <polygon id="Fill-105" fill="#333333" mask="url(#mask-2)" points="22.633505 166.294226 21.2059251 163.486316 28.1069448 159.978476 29.5345247 162.786386"></polygon>
                    <polygon id="Fill-106" fill="#333333" mask="url(#mask-2)" points="113.434015 202.333311 116.584015 202.333311 116.584015 198.066951 113.434015 198.066951"></polygon>
                    <polygon id="Fill-107" fill="#333333" mask="url(#mask-2)" points="113.434015 215.449281 116.584015 215.449281 116.584015 211.182291 113.434015 211.182291"></polygon>
                    <polygon id="Fill-108" fill="#333333" mask="url(#mask-2)" points="121.532476 212.713065 117.918796 210.443805 119.593336 207.776385 123.207016 210.045645"></polygon>
                    <polygon id="Fill-109" fill="#333333" mask="url(#mask-2)" points="110.425639 205.739091 106.810699 203.469831 108.485239 200.801781 112.100179 203.071041"></polygon>
                    <polygon id="Fill-110" fill="#333333" mask="url(#mask-2)" points="107.974561 212.099067 106.546981 209.291157 110.352181 207.357687 111.779761 210.165597"></polygon>
                    <polygon id="Fill-111" fill="#333333" mask="url(#mask-2)" points="119.667361 206.157726 118.239151 203.349816 122.043721 201.415086 123.471931 204.222996"></polygon>
                    <polygon id="Fill-112" fill="#BCBCBC" mask="url(#mask-2)" points="185.639572 404.258382 201.090321 404.258382 201.090321 388.807633 185.639572 388.807633"></polygon>
                    <polygon id="Fill-113" fill="#BCBCBC" mask="url(#mask-2)" points="169.784363 386.271883 183.103192 386.271883 183.103192 372.952424 169.784363 372.952424"></polygon>
                    <polygon id="Fill-114" fill="#BCBCBC" mask="url(#mask-2)" points="447.354791 234.62522 462.80554 234.62522 462.80554 219.17447 447.354791 219.17447"></polygon>
                    <polygon id="Fill-115" fill="#BCBCBC" mask="url(#mask-2)" points="431.499581 216.638721 444.819041 216.638721 444.819041 203.319261 431.499581 203.319261"></polygon>
                    <polygon id="Fill-116" fill="#BCBCBC" mask="url(#mask-2)" points="146.127234 101.985656 161.579873 101.985656 161.579873 86.5349062 146.127234 86.5349062"></polygon>
                    <polygon id="Fill-117" fill="#BCBCBC" mask="url(#mask-2)" points="163.461683 83.5978464 178.912432 83.5978464 178.912432 68.147097 163.461683 68.147097"></polygon>
                    <polygon id="Fill-118" fill="#BCBCBC" mask="url(#mask-2)" points="148.260414 65.6705671 161.579873 65.6705671 161.579873 52.3523677 148.260414 52.3523677"></polygon>
                    <polygon id="Fill-119" fill="#BCBCBC" mask="url(#mask-2)" points="432.615941 250.367659 445.934771 250.367659 445.934771 237.04883 432.615941 237.04883"></polygon>
                    <polygon id="Fill-120" fill="#333333" mask="url(#mask-2)" points="34.3261785 295.354067 37.4761784 295.354067 37.4761784 279.745818 34.3261785 279.745818"></polygon>
                    <polygon id="Fill-121" fill="#333333" mask="url(#mask-2)" points="28.0973688 289.125257 43.7056181 289.125257 43.7056181 285.975258 28.0973688 285.975258"></polygon>
                    <polygon id="Fill-122" fill="#333333" mask="url(#mask-2)" points="477.268323 272.408649 475.041273 270.181599 480.290433 264.933699 482.517483 267.160749"></polygon>
                    <polygon id="Fill-123" fill="#333333" mask="url(#mask-2)" points="480.29037 282.284403 475.04247 277.035873 477.26952 274.808823 482.51742 280.057353"></polygon>
                    <polygon id="Fill-124" fill="#333333" mask="url(#mask-2)" points="470.880313 272.408649 465.633043 267.160749 467.860093 264.933699 473.107362 270.181599"></polygon>
                    <polygon id="Fill-125" fill="#333333" mask="url(#mask-2)" points="467.860156 282.284403 465.633106 280.057353 470.880376 274.810083 473.107425 277.037133"></polygon>
                    <path d="M110.73604,16.8421673 L109.4269,13.9769274 C110.61004,13.4363874 111.87319,13.1617074 113.17981,13.1617074 L113.40913,13.1648574 C113.56663,13.1680074 113.72539,13.1768274 113.88226,13.1887974 L113.64475,16.3293473 C113.54206,16.3217873 113.43811,16.3167473 113.33416,16.3142273 L113.17981,16.3117073 C112.32805,16.3117073 111.5059,16.4899973 110.73604,16.8421673 L110.73604,16.8421673 Z M121.97713,24.3152269 L118.91407,23.581907 C119.00983,23.181227 119.06401,22.766687 119.07472,22.350887 L119.07661,22.199687 C119.07661,21.2401971 118.8517,20.3241771 118.40944,19.4787172 L121.20034,18.0177472 C121.87192,19.3010572 122.22661,20.7469071 122.22661,22.199687 L122.22346,22.428377 C122.20708,23.065937 122.12455,23.700347 121.97713,24.3152269 L121.97713,24.3152269 Z M104.76994,25.5216769 C104.35288,24.4657969 104.1412,23.350697 104.1412,22.208507 L104.14372,21.979187 C104.15191,21.6610371 104.17585,21.3416271 104.2168,21.0291471 L107.34034,21.4354971 C107.31388,21.6389871 107.29813,21.845627 107.29309,22.055417 L107.2912,22.208507 C107.2912,22.953167 107.42854,23.678927 107.69944,24.3649969 L104.76994,25.5216769 Z M113.18485,31.2464866 L112.95742,31.2433366 C112.48051,31.2313666 112.0036,31.1822266 111.5374,31.0959166 L112.10818,27.9982068 C112.41247,28.0542768 112.72432,28.0870368 113.03554,28.0945968 L113.18485,28.0964868 C113.8243,28.0964868 114.45241,27.9944268 115.0528,27.7934568 L116.05324,30.7802867 C115.13029,31.0896166 114.16513,31.2464866 113.18485,31.2464866 L113.18485,31.2464866 Z" id="Fill-126" fill="#333333" mask="url(#mask-2)"></path>
                    <path d="M29.4758717,81.2922355 L28.3494318,78.3507656 C29.6900717,77.8373156 31.1006416,77.5494056 32.5408216,77.4958556 L32.6586316,80.6433355 C31.5636916,80.6842855 30.4933217,80.9028955 29.4758717,81.2922355 L29.4758717,81.2922355 Z M40.0567213,83.5129854 C39.2774113,82.7437554 38.3853313,82.1118654 37.4044214,81.6349554 L38.7816013,78.8024756 C40.0718413,79.4293255 41.2455312,80.2602955 42.2692812,81.2714455 L40.0567213,83.5129854 Z M23.800202,86.8393852 L20.8845621,85.6474253 C21.4276221,84.3193853 22.182362,83.0946654 23.127362,82.0079154 L25.5043519,84.0743153 C24.7861519,84.9008753 24.2128519,85.8313853 23.800202,86.8393852 L23.800202,86.8393852 Z M46.174651,90.950135 L43.0259111,90.871385 C43.0284311,90.785705 43.0290611,90.7006551 43.0290611,90.6156051 C43.0290611,89.6050851 42.8778611,88.6084251 42.5805011,87.6520852 L45.588121,86.7159052 C45.979981,87.9752752 46.179061,89.2875651 46.179061,90.6156051 C46.179061,90.7264851 46.177801,90.837995 46.174651,90.950135 L46.174651,90.950135 Z M21.0968721,96.0846348 C20.4983721,94.7780149 20.1210021,93.3888649 19.9767321,91.956245 L23.110352,91.639985 C23.220602,92.726735 23.506622,93.7813549 23.960852,94.7729749 L21.0968721,96.0846348 Z M43.9746911,97.9078547 L41.3545212,96.1583448 C41.9624712,95.2486249 42.4129212,94.2532249 42.6926411,93.1998649 L45.737431,94.0100449 C45.367621,95.3985648 44.7747911,96.7095948 43.9746911,97.9078547 L43.9746911,97.9078547 Z M28.8546917,103.071965 C27.4938918,102.614585 26.2231819,101.939225 25.0778419,101.064785 L26.9898918,98.5611647 C27.8599218,99.2258147 28.8250817,99.7386347 29.8576517,100.086395 L28.8546917,103.071965 Z M35.2088715,103.577854 L34.6929015,100.470065 C35.7689414,100.291145 36.8027714,99.9383447 37.7660414,99.4204847 L39.2572513,102.195005 C37.9884313,102.876665 36.6270014,103.342235 35.2088715,103.577854 L35.2088715,103.577854 Z" id="Fill-127" fill="#333333" mask="url(#mask-2)"></path>
                    <polygon id="Fill-128" fill="#333333" mask="url(#mask-2)" points="99.0851357 235.50155 102.897896 235.50155 102.897896 232.35155 99.0851357 232.35155"></polygon>
                    <path d="M111.050725,235.50155 L119.204185,235.50155 L119.204185,232.35155 L111.050725,232.35155 L111.050725,235.50155 Z M127.357014,235.50155 L135.510474,235.50155 L135.510474,232.35155 L127.357014,232.35155 L127.357014,235.50155 Z M143.663304,235.50155 L151.816763,235.50155 L151.816763,232.35155 L143.663304,232.35155 L143.663304,235.50155 Z M159.970853,235.50155 L168.123683,235.50155 L168.123683,232.35155 L159.970853,232.35155 L159.970853,235.50155 Z M176.277142,235.50155 L184.429972,235.50155 L184.429972,232.35155 L176.277142,232.35155 L176.277142,235.50155 Z M192.583432,235.50155 L200.736891,235.50155 L200.736891,232.35155 L192.583432,232.35155 L192.583432,235.50155 Z" id="Fill-129" fill="#333333" mask="url(#mask-2)"></path>
                    <polygon id="Fill-130" fill="#333333" mask="url(#mask-2)" points="208.889721 235.50155 212.702481 235.50155 212.702481 232.35155 208.889721 232.35155"></polygon>
                </g>
            </g>
        </g>
    </g>
</svg>