<svg id="Layer_1" data-name="Layer 1" xmlns="http://www.w3.org/2000/svg" xmlns:xlink="http://www.w3.org/1999/xlink" viewBox="0 0 1920 690"><defs><style>.cls-1,.cls-5{fill:none;}.cls-2{fill:url(#linear-gradient);}.cls-3{clip-path:url(#clip-path);}.cls-4{opacity:0.2;}.cls-5{stroke:#fff;stroke-miterlimit:10;}</style><linearGradient id="linear-gradient" x1="960" y1="692" x2="960" y2="2" gradientTransform="matrix(1, 0, 0, -1, 0, 692)" gradientUnits="userSpaceOnUse"><stop offset="0" stop-color="#17abe3"/><stop offset="1" stop-color="#1d3b6c"/></linearGradient><clipPath id="clip-path"><rect class="cls-1" width="1920" height="690"/></clipPath></defs><rect class="cls-2" width="1920" height="690"/><g class="cls-3"><g class="cls-4"><path class="cls-5" d="M2042.2,340.5c-165.4,0-347.6,351.5-857.6,285.4C869.1,585.1,826.9,481.5,739,354.9,641.3,213.9,545,40.3,99.7,40.3c-166.2,0-227-201.9-275.1-50.6"/><path class="cls-5" d="M2048.7,345.7c-98.8-.6-199.2,123-370.2,205.7-121.8,58.9-274.1,94.6-481.3,65.3-310.8-45-355.7-141.9-445.7-264-26.9-36.5-53.4-75.7-87-113.3C573.1,137,430.9,46.2,110.8,45.6A210.5,210.5,0,0,1,28.2,28.3C-76-16-124.4-123.2-165.2-3.3c-42.2,123.6-230.6,144.5-379.4,158"/><path class="cls-5" d="M2054.9,350.5c-100.5-1.2-198.7,125.2-369.5,203.9-122.8,56.6-272.6,84.6-476,52.6-306.3-48.2-353.8-139.3-446-256.9-27.5-35-54.3-73.1-88.3-109.5C582.1,141.2,437,52.1,121.9,51A216.7,216.7,0,0,1,39.5,34c-103-42.9-152-147-194.4-30.4C-199,123.9-385.5,145.1-534.3,160"/><path class="cls-5" d="M2061.3,355.7C1959,354,1863.1,483,1692.6,557.7c-123.9,54.3-271.1,74.3-470.7,39.9C920.3,545.9,870.2,461,775.8,347.9c-28-33.5-55.1-70.5-89.6-105.7C591.2,145.3,443,58.7,133,56.3A220.1,220.1,0,0,1,50.7,39.6C-50.9-1.9-100.4-102.8-144.6,10.5c-45.7,117.2-230.6,139-379.4,154.7"/><path class="cls-5" d="M2067.8,360.7c-104-2.3-197.8,129.5-368,200.2-125,52-269.5,63.9-465.3,27.3C937.3,532.8,884.8,454.3,788,345.6c-28.5-32-55.9-67.8-91-101.9C600.2,149.4,449,64.8,144,61.6A225,225,0,0,1,62,45.2C-38.2,5.1-88.4-92.6-134.4,17.5c-47.5,113.9-230.6,136.2-379.4,153"/><path class="cls-5" d="M2074.1,365.9c-105.8-2.9-197.4,131.5-367.2,198.4-126.1,49.6-268,53.6-460,14.6C954.4,519.6,899.4,447.5,800.2,343.3c-29-30.5-56.8-65.2-92.3-98.1C609.2,153.6,455.1,70.9,155.2,67A232.2,232.2,0,0,1,73.3,50.9C-25.6,12.1-76.5-82.4-124.1,24.4c-49.3,110.7-230.6,133.3-379.5,151.3"/><path class="cls-5" d="M2080.3,371.1c-107.6-3.5-197,133.6-366.5,196.6-127.2,47.3-266.5,43.2-454.7,2C971.4,506.5,914,440.8,812.5,341c-29.5-29-57.6-62.5-93.6-94.3C618.2,157.7,461.1,77,166.3,72.3A236.7,236.7,0,0,1,84.5,56.4C-12.9,19.1-64.6-72.2-113.9,31.3-165,138.8-344.5,161.8-493.3,181"/><path class="cls-5" d="M2086.9,376c-109.3-4.1-196.6,135.6-365.7,194.7-128.4,44.9-265,32.8-449.4-10.7C988.5,493.3,928.7,434,824.7,338.7c-30-27.5-58.5-59.8-94.9-90.5C627.2,161.8,467.1,83,177.4,77.7A245.2,245.2,0,0,1,95.8,62.1C-.3,26-52.6-62.1-103.6,38.3c-53,104.3-230.7,127.6-379.5,148-30.5,4.2-59.7,7.7-86,11.9"/><path class="cls-5" d="M2093.3,381.1c-111.1-4.7-196.3,137.5-365,192.9-129.5,42.5-263.5,22.4-444.1-23.3C1005.5,480.1,943.4,427.3,837,336.4c-30.4-26-59.4-57.2-96.3-86.7C636.1,166,473.1,89.1,188.5,83a251.4,251.4,0,0,1-81.4-15.3C12.4,33-40.7-51.9-93.3,45.2-148.2,146.3-324,170-472.9,191.5c-30.3,4.4-59.4,8.1-85.6,12.5"/><path class="cls-5" d="M2099.7,386.1c-112.8-5.2-196,139.5-364.2,191.1-130.7,40.1-262,12-438.7-36C1022.5,466.8,958.2,420.4,849.2,334c-30.9-24.5-60.2-54.5-97.6-82.9-106.6-81-272.4-156-552-162.8a255.8,255.8,0,0,1-81.2-15C25.1,39.9-28.8-41.7-83.1,52.1-139.7,150-313.8,174-462.6,196.8c-30.1,4.6-59,8.5-85.2,13"/><path class="cls-5" d="M2106.1,391.3c-114.6-5.8-195.8,141.4-363.4,189.3-131.9,37.7-260.5,1.5-433.4-48.6-269.8-78.2-336.2-118.2-447.8-200.1-31.3-23-61.1-51.8-98.9-79.1C654,174.5,485.2,101.3,210.7,93.8a267.6,267.6,0,0,1-81.1-14.7C37.7,46.8-16.9-31.5-72.8,59.1c-58.5,94.7-230.7,119-379.6,143-29.9,4.8-58.6,8.9-84.9,13.6"/><path class="cls-5" d="M2112.4,396.4C1996,390,1916.9,539.6,1749.7,583.9c-133.2,35.2-259-8.9-428.1-61.3-265.2-82.1-333.8-115.5-448-193-31.7-21.5-62-49.2-100.2-75.3C662.8,178.5,491.2,107.1,221.7,99a275.3,275.3,0,0,1-80.9-14.4C50.4,53.8-5-21.3-62.6,66c-60.3,91.5-230.7,116.1-379.6,141.3-29.6,5-58.3,9.3-84.5,14.2"/><path class="cls-5" d="M2118.9,401.4c-118.1-7-195.3,145-361.9,185.6-134.4,32.8-257.5-19.4-422.8-73.9-260.7-86-331.3-112.9-448.3-185.9-32.1-20.1-62.9-46.5-101.6-71.5C671.6,182.8,497.2,113.2,232.8,104.4a284.3,284.3,0,0,1-80.7-14.2C63.1,60.7,6.9-11.1-52.3,72.9-114.5,161.1-283,186.1-431.9,212.5c-29.4,5.2-57.9,9.7-84.1,14.8"/><path class="cls-5" d="M2125.3,406.4c-119.9-7.6-195.1,146.8-361.2,183.8-135.7,30.2-256-29.9-417.5-86.6-256.2-89.9-328.8-110.4-448.5-178.8-32.5-18.6-63.8-43.8-102.9-67.7C680.4,186.9,503.2,119,243.8,109.7a298,298,0,0,1-80.5-13.9C75.8,67.6,18.8-.9-42,79.9c-64.1,85-230.7,110.3-379.6,137.9-29.2,5.4-57.6,10.1-83.7,15.4"/><path class="cls-5" d="M2132,411.5c-121.6-8.2-194.9,148.5-360.4,182-136.9,27.7-254.5-40.5-412.1-99.2-251.7-93.9-326.2-107.9-448.7-171.7-32.9-17.1-64.7-41.1-104.2-63.9C689.3,191.1,509.3,125,255,115a309.8,309.8,0,0,1-80.4-13.6C88.4,74.4,30.6,9.3-31.8,86.8c-65.9,81.8-230.8,107.4-379.6,136.3-28.9,5.6-57.2,10.5-83.4,16"/><path class="cls-5" d="M2138,416.6c-123.4-8.7-194.7,150.2-359.7,180.2-138.2,25.1-253-51-406.8-111.9C1124.5,387,1048,379.5,922.7,320.2c-33.2-15.7-65.7-38.4-105.6-60.1-119-64.7-301.8-129.2-551-139.7a326.6,326.6,0,0,1-80.2-13.3C101.2,81.4,42.5,19.5-21.5,93.8c-67.8,78.6-230.8,104.5-379.7,134.6-28.7,5.8-56.8,10.9-83,16.6"/><path class="cls-5" d="M2144.6,421.7C2019.5,412.4,1950,573.5,1785.7,600c-139.5,22.5-251.5-61.6-401.5-124.6-242.6-101.9-320.9-103-449.2-157.6-33.6-14.3-66.6-35.7-106.9-56.3C707,199.6,521.4,136.8,277.3,125.6a339.5,339.5,0,0,1-80-13c-83.3-24.5-142.8-83-208.5-12C-81,176.1-242.1,202.2-391,233.6c-28.5,6-56.5,11.3-82.6,17.1"/><path class="cls-5" d="M2150.7,426.5c-126.9-9.9-194.4,153.4-358.2,176.5-140.8,19.9-250-72.2-396.2-137.2-238.1-105.9-318.2-100.6-449.4-150.5-33.9-12.9-67.5-33-108.2-52.5-123.2-59.1-311.6-120.3-550.6-132a360.4,360.4,0,0,1-79.8-12.7C126.6,95.1,66.2,39.9-1,107.6c-71.6,72.2-230.8,98.6-379.7,131.2-28.3,6.2-56.1,11.7-82.2,17.7"/><path class="cls-5" d="M2157.2,431.8c-128.7-10.5-194.3,155-357.4,174.7-142.1,17.2-248.5-82.8-390.9-149.9-233.5-110-315.5-98.3-449.6-143.4-34.3-11.5-68.4-30.3-109.5-48.7C724.4,208.2,533.3,148.6,299.3,136.3a386.6,386.6,0,0,1-79.7-12.4C139.2,101.9,78,50,9.1,114.5c-73.6,68.9-230.8,95.6-379.7,129.6-28,6.4-55.7,12.1-81.8,18.3"/><path class="cls-5" d="M2163.6,436.9c-130.4-11.1-194.1,156.5-356.6,172.9-143.4,14.5-247-93.4-385.5-162.5-229-114.2-312.8-96.1-449.9-136.3-34.6-10.1-69.4-27.5-110.9-44.9C733.2,212.7,539.4,154.5,310.4,141.7a398.2,398.2,0,0,1-79.5-12.2c-79-20.8-141.1-69.4-211.5-8.1-75.5,65.7-230.9,92.7-379.7,127.9-27.8,6.6-55.4,12.5-81.5,18.9"/><path class="cls-5" d="M2170,442.1c-132.2-11.6-194,158-355.9,171-144.7,11.7-245.4-104.1-380.2-175.2-224.4-118.3-310.1-94-450.1-129.2-34.9-8.8-70.3-24.8-112.2-41.1C742,217,545.5,160.4,321.6,147.1a428.6,428.6,0,0,1-79.3-11.9c-77.5-19.6-140.5-64.8-212.5-6.8C-47.6,190.9-201.1,218.1-350,254.6c-27.6,6.8-55,12.9-81.1,19.5"/><path class="cls-5" d="M2176.4,446.9c-133.9-12.2-193.9,159.4-355.1,169.2-146.1,8.9-243.9-114.8-374.9-187.8-219.8-122.5-307.3-91.9-450.3-122.1-35.2-7.4-71.3-22-113.5-37.3C750.8,221.3,551.5,166,332.7,152.2a467.4,467.4,0,0,1-79.2-11.6c-76.1-18.4-140-60.3-213.5-5.5-79.4,59.2-230.9,86.7-379.8,124.5-27.4,7-54.6,13.3-80.7,20.1"/><path class="cls-5" d="M2182.9,451.9c-135.7-12.8-193.7,160.8-354.4,167.4-147.4,6.1-242.3-125.5-369.6-200.5-215.2-126.8-304.6-89.9-450.5-115-35.6-6.1-72.2-19.3-114.8-33.5-134-44.7-336-98.5-549.8-112.8a511.1,511.1,0,0,1-79-11.3C190.2,129,125.4,90.4,50.3,142.1-31,198.2-180.7,226-329.5,265.2c-27.1,7.1-54.3,13.7-80.3,20.7"/><path class="cls-5" d="M2189.3,457.1c-137.5-13.4-193.6,162.1-353.6,165.6-148.7,3.2-240.8-136.3-364.2-213.1-210.5-131.1-301.9-87.9-450.8-107.9-35.9-4.8-73.1-16.5-116.2-29.7-136.2-41.7-340.9-94.2-549.6-109a564.8,564.8,0,0,1-78.8-11c-73.2-16.1-138.9-51.3-215.5-2.8-83.3,52.7-231,80.7-379.8,121.2-26.9,7.3-53.9,14.1-80,21.2"/><path class="cls-5" d="M2195.6,462.2c-139.2-14-193.4,163.5-352.9,163.8-150,.3-239.2-147-358.9-225.8-205.8-135.4-299.2-86.1-451-100.8-36.2-3.5-74.1-13.7-117.5-25.9C777,234.8,569.6,183.6,366,168.4a611.3,611.3,0,0,1-78.6-10.7c-71.7-14.9-138.4-46.8-216.5-1.5-85.2,49.4-231,77.7-379.9,119.5-26.7,7.5-53.5,14.5-79.6,21.8"/><path class="cls-5" d="M2202.3,467.2c-141-14.6-193.2,164.7-352.1,161.9-151.2-2.7-237.6-157.8-353.6-238.4-201.1-139.8-296.5-84.2-451.2-93.7-36.6-2.2-75-11-118.8-22.1-140.9-35.6-351-85.5-549.6-101.1a673.5,673.5,0,0,1-78.5-10.5C228.3,149.5,160.7,121,81,163.1-6.1,209.2-150,237.8-298.8,281c-26.5,7.7-53.2,14.9-79.2,22.4"/><path class="cls-5" d="M2208.2,472.3c-142.7-15.1-193,166-351.4,160.1-152.5-5.7-235.9-168.6-348.3-251.1-196.4-144.2-293.9-82.5-451.5-86.6-36.9-1-76-8.2-120.2-18.3C794.1,243.7,581.3,195,387.8,179a774,774,0,0,1-78.3-10.2c-68.8-12.6-137.3-37.9-218.5,1.1C1.9,212.6-140.1,241.6-288.9,286.1c-26.3,7.9-52.8,15.3-78.8,23"/><path class="cls-5" d="M2214.9,477.4c-144.5-15.7-192.8,167.2-350.6,158.3-153.8-8.7-234.3-179.4-343-263.8-191.5-148.6-291.3-80.8-451.7-79.5-37.3.3-76.9-5.4-121.5-14.5-144.8-29.6-360.4-77.2-548.9-93.6-29.4-2.6-55.7-6-78.1-9.9-67.3-11.5-136.7-33.4-219.5,2.4-91.1,39.4-231.2,68.6-379.9,114.5-26,8-52.4,15.7-78.4,23.6"/><path class="cls-5" d="M2221.2,482.5c-146.3-16.3-192.6,168.4-349.8,156.5-155-11.8-232.6-190.3-337.6-276.4-186.7-153.1-288.7-79.1-451.9-72.4-37.7,1.6-77.8-2.6-122.8-10.7-147-26.6-365.3-72.9-548.7-89.7-29.3-2.7-55.6-6.1-77.9-9.6-65.9-10.4-136.2-29-220.5,3.7C19,220-119.2,249.5-267.9,296.7c-25.8,8.2-52.1,16.1-78.1,24.2"/><path class="cls-5" d="M2227.5,487.6c-148-16.9-192.4,169.6-349.1,154.6s-230.9-201.1-332.3-289.1c-181.8-157.6-286.2-77.5-452.1-65.3-38.1,2.8-78.8.2-124.1-6.9C820.8,257.5,599.8,212.2,421.4,195c-29.2-2.8-55.4-6.1-77.8-9.3-64.4-9.4-135.7-24.5-221.5,5.1-95,32.7-231.3,62.5-380,111.1-25.6,8.4-51.7,16.5-77.7,24.8"/><path class="cls-5" d="M2234,492.7c-149.8-17.5-192.1,170.7-348.3,152.8s-229.1-212-327-301.7c-176.8-162.1-283.7-75.9-452.4-58.2-38.5,4-79.7,3-125.5-3.1-151.3-20.3-375-64.5-548.3-82-29.2-2.9-55.3-6.1-77.6-9-62.9-8.3-135.1-20.1-222.6,6.4-96.9,29.3-231.4,59.4-380,109.5-25.4,8.6-51.3,16.9-77.3,25.3"/><path class="cls-5" d="M2240.4,497.8c-151.5-18-191.8,171.8-347.6,151-158.6-21.2-227.3-222.8-321.7-314.4-171.8-166.7-281.3-74.3-452.6-51.1-38.9,5.3-80.6,5.9-126.8.7-153.4-17.1-379.9-60.4-548.1-78.2-29.1-3.1-55.2-6.1-77.4-8.8-61.5-7.3-134.6-15.7-223.6,7.7-98.9,26-231.4,56.3-380,107.8-25.2,8.7-51,17.3-76.9,25.9"/><path class="cls-5" d="M2246.7,502.8C2093.5,484.2,2055.3,675.7,1900,652c-159.8-24.4-225.5-233.7-316.4-327-166.7-171.3-278.9-72.8-452.8-44a501.4,501.4,0,0,1-128.1,4.5c-155.5-14-384.7-56.2-548-74.3-29-3.2-55.1-6.2-77.2-8.5-60-6.2-134-11.3-224.6,9-100.8,22.6-231.5,53.2-380,106.1-25,8.9-50.6,17.7-76.6,26.5"/><path class="cls-5" d="M2253.2,508c-155-19.2-191.2,173.9-346.1,147.4-160.9-27.6-223.7-244.6-311-339.7-161.5-175.9-276.5-71.2-453-36.9a495.4,495.4,0,0,1-129.4,8.3c-157.6-10.8-389.6-52.3-547.8-70.5-28.9-3.4-55-6.2-77.1-8.2-58.6-5.2-133.5-7-225.6,10.3-102.8,19-231.7,50-380,104.4-24.8,9-50.2,18.1-76.2,27.1"/><path class="cls-5" d="M2259.6,513.2c-156.8-19.8-190.8,175-345.3,145.5-162-30.9-221.8-255.5-305.7-352.3-191.4-220.9-325.2-5.4-584-17.7-189.8-9-485.6-64.3-624.5-74.6-120.9-8.9-325.5,8.7-606.6,114.4"/></g></g></svg>