<svg id="Layer_1" data-name="Layer 1" xmlns="http://www.w3.org/2000/svg" xmlns:xlink="http://www.w3.org/1999/xlink" viewBox="0 0 500 500"><defs><style>.cls-1{opacity:0.15;}.cls-13,.cls-2{fill:#0562e8;}.cls-3{opacity:0.35;}.cls-4{fill:#bcbec0;}.cls-5{fill:#f1f2f2;}.cls-6{fill:#fff;}.cls-7{fill:#d1d3d4;}.cls-8{fill:#e6e7e8;}.cls-18,.cls-26,.cls-27,.cls-9{opacity:0.5;}.cls-26,.cls-27,.cls-9{isolation:isolate;}.cls-9{fill:url(#linear-gradient);}.cls-10,.cls-16{fill:#F99316;}.cls-10{opacity:0.15;}.cls-11{fill:#b3b3b3;}.cls-12{fill:#3dba85;}.cls-13{opacity:0.06;}.cls-14,.cls-18{fill:#999;}.cls-15{fill:#e6e6e6;}.cls-17{fill:#4c9aff;}.cls-19{fill:#ccc;}.cls-20{opacity:0.25;}.cls-21,.cls-22,.cls-23,.cls-24,.cls-25,.cls-26,.cls-27{fill:none;stroke-miterlimit:10;}.cls-21,.cls-22,.cls-23,.cls-24,.cls-25{stroke:#0562e8;stroke-width:2px;}.cls-22{stroke-dasharray:11.66 11.66;}.cls-23{stroke-dasharray:10.34 10.34;}.cls-24{stroke-dasharray:12.91 12.91;}.cls-25{stroke-dasharray:4.01;}.cls-26{stroke:#F99316;}.cls-26,.cls-27{stroke-width:3px;}.cls-27{stroke:#3dba85;}</style><linearGradient id="linear-gradient" x1="341.59" y1="-129.6" x2="286.52" y2="-185.88" gradientTransform="matrix(1, 0, 0, -1, 80.63, 154.86)" gradientUnits="userSpaceOnUse"><stop offset="0" stop-color="#32b44a" stop-opacity="0"/><stop offset="1" stop-color="#32b44a"/></linearGradient></defs><title>internet-of-things-platform-banner</title><g class="cls-1"><path class="cls-2" d="M429.37,317.77a.51.51,0,0,0,.42.56c1.44.43,2.78.89,4.17,1.32a.84.84,0,0,1,.58.59c.49,1.18,1.08,2.4,1.66,3.62a.85.85,0,0,1,0,.83l-1.76,3.95v0a.56.56,0,0,0,.16.76c1.08,1,2.14,2,3.2,3v0a.55.55,0,0,0,.77.07c1.28-.67,2.63-1.32,3.88-2a.78.78,0,0,1,.74,0c1.26.52,2.55,1,3.82,1.49a1.05,1.05,0,0,1,.54.48c.54,1.34,1.08,2.7,1.61,4.07v0a.49.49,0,0,0,.59.38c1.49-.06,3-.1,4.5-.13a.57.57,0,0,0,.51-.39c.47-1.43.91-2.77,1.34-4.17a.94.94,0,0,1,.62-.62c1.19-.49,2.41-1.07,3.63-1.66a.83.83,0,0,1,.78,0c1.36.62,2.67,1.17,4,1.78a.55.55,0,0,0,.73-.14q1.5-1.63,3-3.23a.54.54,0,0,0,.08-.74c-.67-1.29-1.32-2.63-2-3.88a.82.82,0,0,1,0-.79c.52-1.25,1-2.51,1.45-3.78a.78.78,0,0,1,.52-.59l4.13-1.59h0a.57.57,0,0,0,.34-.54c0-1.57-.09-3.11-.16-4.65a.61.61,0,0,0-.38-.39c-1.41-.47-2.82-.9-4.21-1.38a1,1,0,0,1-.51-.52c-.58-1.23-1.15-2.51-1.73-3.73a.73.73,0,0,1,0-.73c.61-1.37,1.16-2.67,1.77-4a.56.56,0,0,0-.15-.78c-1.08-1-2.15-2-3.19-3a.56.56,0,0,0-.78-.09c-1.28.68-2.63,1.32-3.89,2a.76.76,0,0,1-.73,0c-1.27-.52-2.56-1-3.82-1.48a1,1,0,0,1-.55-.48c-.54-1.34-1.08-2.7-1.61-4.08a.52.52,0,0,0-.6-.42c-1.49.06-3,.09-4.49.14a.57.57,0,0,0-.52.39c-.46,1.42-.91,2.78-1.33,4.16a1,1,0,0,1-.63.63c-1.19.51-2.39,1-3.61,1.62a1,1,0,0,1-.88,0L437.48,298a.53.53,0,0,0-.73.14c-1,1.09-2,2.18-3,3.23h0a.52.52,0,0,0-.07.73c.68,1.31,1.36,2.62,2,3.95a1,1,0,0,1,0,.66c-.47,1.28-1,2.55-1.45,3.84a.79.79,0,0,1-.53.59c-1.33.47-2.67,1-4,1.56h0a.54.54,0,0,0-.43.64C429.27,314.78,429.3,316.26,429.37,317.77Zm22.19,5.86a8.55,8.55,0,1,1,.05,0Z"/></g><g class="cls-3"><path class="cls-2" d="M422.65,331.09a.28.28,0,0,0,.22.3c.76.19,1.49.45,2.22.7a.51.51,0,0,1,.32.32c.31.67.57,1.29.88,1.93a.46.46,0,0,1,0,.44c-.32.7-.62,1.41-.94,2.11a.29.29,0,0,0,.08.41c.57.54,1.14,1.07,1.69,1.61h0a.29.29,0,0,0,.41,0l2.07-1.07a.41.41,0,0,1,.39,0c.66.31,1.35.55,2,.79a.55.55,0,0,1,.3.26c.33.73.58,1.44.84,2.16.09.14.14.24.33.23l2.39-.08a.29.29,0,0,0,.27-.2c.21-.76.46-1.49.72-2.22a.46.46,0,0,1,.33-.33c.66-.3,1.29-.57,1.93-.87a.45.45,0,0,1,.42,0c.7.33,1.42.63,2.13,1a.29.29,0,0,0,.39-.08c.52-.57,1.07-1.15,1.61-1.71a.29.29,0,0,0,.06-.4c-.37-.68-.71-1.38-1.08-2.07a.43.43,0,0,1,0-.41c.29-.66.53-1.33.77-2a.46.46,0,0,1,.28-.31l2.2-.85h0a.32.32,0,0,0,.19-.29l-.09-2.47a.32.32,0,0,0-.21-.21l-2.22-.78a.59.59,0,0,1-.27-.27c-.3-.66-.6-1.33-.91-2a.41.41,0,0,1,0-.39c.32-.71.62-1.43,1-2.12a.31.31,0,0,0-.08-.42c-.57-.53-1.14-1.06-1.7-1.6h0a.29.29,0,0,0-.41-.05l-2.07,1.07a.41.41,0,0,1-.39,0,19.42,19.42,0,0,0-2-.8.5.5,0,0,1-.29-.24c-.34-.74-.58-1.45-.85-2.18h0a.27.27,0,0,0-.32-.22l-2.39.07a.33.33,0,0,0-.28.21l-.7,2.22a.54.54,0,0,1-.33.33c-.7.28-1.29.56-1.92.87a.49.49,0,0,1-.47,0l-2.1-.93a.28.28,0,0,0-.39.07c-.53.59-1.07,1.16-1.62,1.73a.27.27,0,0,0,0,.39c.36.69.72,1.4,1.07,2.1a.53.53,0,0,1,0,.35c-.28.67-.52,1.36-.76,2.05a.47.47,0,0,1-.29.31l-2.14.83a.29.29,0,0,0-.24.34C422.63,329.47,422.65,330.26,422.65,331.09Zm11.87,3.08h0a4.68,4.68,0,1,1,4.55-4.84,4.69,4.69,0,0,1-4.55,4.84Z"/></g><polygon class="cls-4" points="384.13 136.26 361.87 136.26 361.87 107.91 379.52 107.91 381.46 109.89 384.13 112.66 384.13 136.26"/><polygon class="cls-5" points="384.96 113.03 384.96 135.61 362.7 135.61 362.7 107.27 379.2 107.27 384.96 113.03"/><polygon class="cls-4" points="379.2 113.03 379.2 107.27 384.96 113.03 379.2 113.03"/><circle class="cls-2" cx="368.73" cy="113.57" r="3.85"/><circle class="cls-6" cx="368.73" cy="112.4" r="1.85"/><path class="cls-6" d="M371.66,116.05a3.83,3.83,0,0,1-5.87,0,3.29,3.29,0,0,1,5.87,0Z"/><rect class="cls-7" x="364.6" y="119.79" width="16.97" height="1.76"/><rect class="cls-7" x="364.6" y="122.73" width="16.97" height="1.76"/><rect class="cls-8" x="364.6" y="125.6" width="16.97" height="0.88"/><rect class="cls-8" x="364.6" y="127.36" width="16.97" height="0.88"/><rect class="cls-8" x="364.6" y="129.13" width="16.97" height="0.88"/><rect class="cls-8" x="364.6" y="130.89" width="16.97" height="0.88"/><rect class="cls-8" x="364.6" y="132.65" width="16.97" height="0.88"/><rect class="cls-7" x="374.07" y="113.94" width="7.5" height="1.76"/><rect class="cls-7" x="374.07" y="111.29" width="4.14" height="1.76"/><rect class="cls-7" x="374.07" y="108.64" width="4.14" height="1.76"/><rect class="cls-7" x="374.07" y="116.88" width="7.5" height="1.76"/><polygon class="cls-4" points="73.14 115.48 50.88 115.48 50.88 87.14 68.53 87.14 70.47 89.12 73.14 91.88 73.14 115.48"/><polygon class="cls-5" points="73.97 92.25 73.97 114.83 51.71 114.83 51.71 86.49 68.21 86.49 73.97 92.25"/><polygon class="cls-4" points="68.21 92.25 68.21 86.49 73.97 92.25 68.21 92.25"/><circle class="cls-2" cx="57.74" cy="92.79" r="3.85"/><circle class="cls-6" cx="57.74" cy="91.63" r="1.85"/><path class="cls-6" d="M60.68,95.27a3.84,3.84,0,0,1-5.88,0,3.31,3.31,0,0,1,5.88,0Z"/><rect class="cls-7" x="53.61" y="99.02" width="16.97" height="1.76"/><rect class="cls-7" x="53.61" y="101.95" width="16.97" height="1.76"/><rect class="cls-8" x="53.61" y="104.82" width="16.97" height="0.88"/><rect class="cls-8" x="53.61" y="106.59" width="16.97" height="0.88"/><rect class="cls-8" x="53.61" y="108.35" width="16.97" height="0.88"/><rect class="cls-8" x="53.61" y="110.11" width="16.97" height="0.88"/><rect class="cls-8" x="53.61" y="111.88" width="16.97" height="0.88"/><rect class="cls-7" x="63.08" y="93.16" width="7.5" height="1.76"/><rect class="cls-7" x="63.08" y="90.51" width="4.14" height="1.76"/><rect class="cls-7" x="63.08" y="87.86" width="4.14" height="1.76"/><rect class="cls-7" x="63.08" y="96.1" width="7.5" height="1.76"/><path class="cls-9" d="M396.32,286.13h0a24.58,24.58,0,0,1,24.58,24.58h0a6.32,6.32,0,0,1-6.32,6.31H396.32a6.32,6.32,0,0,1-6.32-6.31V292.49a6.32,6.32,0,0,1,6.32-6.32Z"/><path class="cls-10" d="M108.65,125.56h0A24.57,24.57,0,0,1,133.23,101h0a6.31,6.31,0,0,1,6.31,6.31v18.26a6.32,6.32,0,0,1-6.31,6.32H115a6.32,6.32,0,0,1-6.31-6.32Z"/><path class="cls-11" d="M77.66,330.84a10.48,10.48,0,1,0,10.48,10.48A10.48,10.48,0,0,0,77.66,330.84Zm0,18.48a8,8,0,1,1,8-8A8,8,0,0,1,77.66,349.32Z"/><path class="cls-12" d="M154,56.89a13.25,13.25,0,1,0,13.25,13.25A13.25,13.25,0,0,0,154,56.89Zm0,21.85a8.6,8.6,0,1,1,8.6-8.6A8.6,8.6,0,0,1,154,78.74Z"/><path class="cls-13" d="M353.92,92C315,86.26,276.48,106.1,240.55,90.17c-50.19-22.27-102.1-35.72-159.7,13.74-72,61.83-27.78,123.85-3.52,145.75s43.43,21.14-11,94.35C24.66,400,15.42,469.19,108.55,473.93s156.52-4.13,243.39,9.18-14.08-83.71,28.18-143.35S409.86,306.6,449,258s43.82-156.57-31.31-159.7A609.34,609.34,0,0,1,353.92,92Z"/><path class="cls-14" d="M333.5,212.38l-5.07-89.23-37.34,19.51V123.34l-37.22,19.72v-18.9l-35.79,18.9-3.72-63.88H203.57s9.08,0,11.66-11.82c0,0,19.43,2,22-14.84,0,0,16.18,12.8,22,1.63s-8.85-30.28-24.17-26.42-17.7,7.52-22.88,4.06-11.87-1-14,5.9S180.7,53.55,195,62.89c0,0-6.26,16.26,5.61,16.26h-9.5l-7.33,133.23Z"/><path class="cls-15" d="M335.56,210.65l-5.07-89.24-37.33,19.51V121.61l-37.23,19.72v-18.9l-35.78,18.9-3.73-63.88H205.63s9.08,0,11.67-11.83c0,0,19.42,2,22-14.83,0,0,16.19,12.8,22,1.62S252.47,22.14,237.15,26s-17.7,7.51-22.88,4.06-11.87-1-14,5.89S182.76,51.81,197,61.16c0,0-6.26,16.26,5.61,16.26h-9.5l-7.33,133.23Z"/><polygon class="cls-14" points="293.15 140.92 340.77 116.05 340.77 112.24 293.15 137.12 293.15 140.92"/><polygon class="cls-14" points="255.93 141.33 303.8 116.05 303.8 112.24 255.93 137.53 255.93 141.33"/><polygon class="cls-14" points="220.15 141.33 268.02 116.05 268.02 112.24 219.93 137.64 220.15 141.33"/><rect class="cls-6" x="221.12" y="150.18" width="30.35" height="7.59"/><rect class="cls-6" x="259.26" y="150.18" width="30.35" height="7.59"/><rect class="cls-6" x="297.41" y="150.18" width="30.35" height="7.59"/><polygon class="cls-16" points="327.64 210.65 297.41 210.65 298.52 166.82 325.43 166.82 327.64 210.65"/><circle class="cls-17" cx="228.2" cy="184.6" r="7.15"/><circle class="cls-17" cx="251.46" cy="184.6" r="7.15"/><circle class="cls-17" cx="274.72" cy="184.6" r="7.15"/><path class="cls-18" d="M255.66,48.39c-4.68,7.66-17.72-1.11-17.72-1.11-2.08,11.56-22.26,15.2-22.26,15.2-2.07,8.08-9.94,12.18-9.94,12.18l-2.41,0c-9.57,0-4-15.22-4-15.22-11.46-6.4,2-15.42,3.77-20.16a7.8,7.8,0,0,1,11.29-4c4.17,2.37,9.46-2.28,21.8-4.93S260.35,40.73,255.66,48.39Z"/><path class="cls-11" d="M469.75,151.05a3.22,3.22,0,0,0-1.64,4.24l2.36,5.33-2.37,1-3.2-4.72-1.34-5.54,2.87-3L463,140.54l3.63-1.6,3.49,7.88,4.1-.11,3.2,4.72,1.34,5.54L476.34,158,474,152.69A3.21,3.21,0,0,0,469.75,151.05Z"/><polygon class="cls-15" points="452.48 228.25 452.48 239.1 358.42 239.1 358.42 228.25 372.08 228.25 372.08 202.44 439.99 202.44 439.99 228.25 452.48 228.25"/><polygon class="cls-19" points="401.19 239.1 425.73 202.44 439.99 202.44 439.99 228.25 452.48 228.25 452.48 239.1 401.19 239.1"/><polygon class="cls-15" points="421.35 204.79 389.54 204.79 393.31 151.04 415.94 151.04 421.35 204.79"/><polygon class="cls-15" points="415.94 151.04 397.9 141.94 429.49 117.46 440.3 131.73 415.94 151.04"/><polygon class="cls-15" points="438.35 116.43 466.23 135.2 463.58 145.22 431.68 133.19 438.35 116.43"/><circle class="cls-14" cx="405.45" cy="204.79" r="15.91"/><circle class="cls-14" cx="404.62" cy="151.04" r="11.32"/><circle class="cls-14" cx="434.69" cy="124.75" r="8.96"/><circle class="cls-14" cx="464.86" cy="140.19" r="5.19"/><circle class="cls-6" cx="405.45" cy="204.79" r="8.49"/><circle class="cls-17" cx="405.45" cy="204.79" r="4.99"/><circle class="cls-6" cx="404.62" cy="151.04" r="7.24"/><circle class="cls-16" cx="404.62" cy="151.04" r="4.84"/><circle class="cls-6" cx="434.69" cy="124.75" r="5.12"/><circle class="cls-17" cx="434.69" cy="124.75" r="2.99"/><circle class="cls-15" cx="464.86" cy="140.19" r="2.46"/><rect class="cls-11" x="358.42" y="228.25" width="94.07" height="10.85"/><polygon class="cls-14" points="102.97 180.9 164.51 180.9 166.07 179.34 104.54 164.8 102.97 166.36 102.97 180.9"/><rect class="cls-15" x="104.54" y="164.8" width="61.54" height="14.54" transform="translate(270.61 344.14) rotate(-180)"/><circle class="cls-6" cx="157.45" cy="172.07" r="5.1"/><circle class="cls-16" cx="157.45" cy="172.07" r="3.41"/><circle class="cls-6" cx="145.45" cy="172.07" r="3.79"/><circle class="cls-2" cx="145.45" cy="172.07" r="2.16"/><rect class="cls-6" x="107.75" y="170.7" width="7.82" height="2.87" transform="translate(223.32 344.27) rotate(-180)"/><rect class="cls-6" x="117.02" y="170.7" width="7.82" height="2.87" transform="translate(241.87 344.27) rotate(-180)"/><rect class="cls-19" x="108.57" y="171.42" width="6.19" height="1.43" transform="translate(223.32 344.27) rotate(-180)"/><rect class="cls-19" x="117.84" y="171.42" width="6.19" height="1.43" transform="translate(241.87 344.27) rotate(-180)"/><rect class="cls-6" x="126.3" y="170.7" width="7.82" height="2.87" transform="translate(260.42 344.27) rotate(-180)"/><polygon class="cls-14" points="102.97 198.39 164.51 198.39 166.07 196.83 104.54 182.29 102.97 183.85 102.97 198.39"/><rect class="cls-15" x="104.54" y="182.29" width="61.54" height="14.54" transform="translate(270.61 379.11) rotate(-180)"/><circle class="cls-6" cx="157.45" cy="189.56" r="5.1"/><circle class="cls-2" cx="157.45" cy="189.56" r="3.41"/><circle class="cls-6" cx="145.45" cy="189.56" r="3.79"/><circle class="cls-12" cx="145.45" cy="189.56" r="2.16"/><rect class="cls-6" x="107.75" y="188.19" width="7.82" height="2.87" transform="translate(223.32 379.25) rotate(-180)"/><rect class="cls-6" x="117.02" y="188.19" width="7.82" height="2.87" transform="translate(241.87 379.25) rotate(-180)"/><rect class="cls-19" x="108.57" y="188.91" width="6.19" height="1.43" transform="translate(223.32 379.25) rotate(-180)"/><rect class="cls-19" x="117.84" y="188.91" width="6.19" height="1.43" transform="translate(241.87 379.25) rotate(-180)"/><rect class="cls-6" x="126.3" y="188.19" width="7.82" height="2.87" transform="translate(260.42 379.25) rotate(-180)"/><polygon class="cls-14" points="102.97 215.88 164.51 215.88 166.07 214.31 104.54 199.77 102.97 201.34 102.97 215.88"/><rect class="cls-15" x="104.54" y="199.77" width="61.54" height="14.54" transform="translate(270.61 414.09) rotate(-180)"/><circle class="cls-6" cx="157.45" cy="207.04" r="5.1"/><circle class="cls-12" cx="157.45" cy="207.04" r="3.41"/><circle class="cls-6" cx="145.45" cy="207.04" r="3.79"/><circle class="cls-16" cx="145.45" cy="207.04" r="2.16"/><rect class="cls-6" x="107.75" y="205.67" width="7.82" height="2.87" transform="translate(223.32 414.22) rotate(-180)"/><rect class="cls-6" x="117.02" y="205.67" width="7.82" height="2.87" transform="translate(241.87 414.22) rotate(-180)"/><rect class="cls-19" x="108.57" y="206.39" width="6.19" height="1.43" transform="translate(223.32 414.22) rotate(-180)"/><rect class="cls-19" x="117.84" y="206.39" width="6.19" height="1.43" transform="translate(241.87 414.22) rotate(-180)"/><rect class="cls-6" x="126.3" y="205.67" width="7.82" height="2.87" transform="translate(260.42 414.22) rotate(-180)"/><polygon class="cls-14" points="102.97 233.36 164.51 233.36 166.07 231.8 104.54 217.26 102.97 218.82 102.97 233.36"/><rect class="cls-15" x="104.54" y="217.26" width="61.54" height="14.54" transform="translate(270.61 449.06) rotate(-180)"/><circle class="cls-6" cx="157.45" cy="224.53" r="5.1"/><circle class="cls-2" cx="157.45" cy="224.53" r="3.41"/><circle class="cls-6" cx="145.45" cy="224.53" r="3.79"/><circle class="cls-12" cx="145.45" cy="224.53" r="2.16"/><rect class="cls-6" x="107.75" y="223.16" width="7.82" height="2.87" transform="translate(223.32 449.19) rotate(-180)"/><rect class="cls-6" x="117.02" y="223.16" width="7.82" height="2.87" transform="translate(241.87 449.19) rotate(-180)"/><rect class="cls-19" x="108.57" y="223.88" width="6.19" height="1.43" transform="translate(223.32 449.19) rotate(-180)"/><rect class="cls-19" x="117.84" y="223.88" width="6.19" height="1.43" transform="translate(241.87 449.19) rotate(-180)"/><rect class="cls-6" x="126.3" y="223.16" width="7.82" height="2.87" transform="translate(260.42 449.19) rotate(-180)"/><polygon class="cls-14" points="102.97 250.85 164.51 250.85 166.07 249.29 104.54 234.75 102.97 236.31 102.97 250.85"/><rect class="cls-15" x="104.54" y="234.75" width="61.54" height="14.54" transform="translate(270.61 484.03) rotate(-180)"/><circle class="cls-6" cx="157.45" cy="242.02" r="5.1"/><circle class="cls-16" cx="157.45" cy="242.02" r="3.41"/><circle class="cls-6" cx="145.45" cy="242.02" r="3.79"/><circle class="cls-2" cx="145.45" cy="242.02" r="2.16"/><rect class="cls-6" x="107.75" y="240.65" width="7.82" height="2.87" transform="translate(223.32 484.17) rotate(-180)"/><rect class="cls-6" x="117.02" y="240.65" width="7.82" height="2.87" transform="translate(241.87 484.17) rotate(-180)"/><rect class="cls-19" x="108.57" y="241.37" width="6.19" height="1.43" transform="translate(223.32 484.17) rotate(-180)"/><rect class="cls-19" x="117.84" y="241.37" width="6.19" height="1.43" transform="translate(241.87 484.17) rotate(-180)"/><rect class="cls-6" x="126.3" y="240.65" width="7.82" height="2.87" transform="translate(260.42 484.17) rotate(-180)"/><polygon class="cls-14" points="35.19 180.9 96.72 180.9 98.29 179.34 36.75 164.8 35.19 166.36 35.19 180.9"/><rect class="cls-15" x="36.75" y="164.8" width="61.54" height="14.54" transform="translate(135.04 344.14) rotate(-180)"/><circle class="cls-6" cx="89.67" cy="172.07" r="5.1"/><circle class="cls-2" cx="89.67" cy="172.07" r="3.41"/><circle class="cls-6" cx="77.66" cy="172.07" r="3.79"/><circle class="cls-16" cx="77.66" cy="172.07" r="2.16"/><rect class="cls-6" x="39.96" y="170.7" width="7.82" height="2.87" transform="translate(87.75 344.27) rotate(-180)"/><rect class="cls-6" x="49.24" y="170.7" width="7.82" height="2.87" transform="translate(106.3 344.27) rotate(-180)"/><rect class="cls-19" x="40.78" y="171.42" width="6.19" height="1.43" transform="translate(87.75 344.27) rotate(-180)"/><rect class="cls-19" x="50.06" y="171.42" width="6.19" height="1.43" transform="translate(106.3 344.27) rotate(-180)"/><rect class="cls-6" x="58.52" y="170.7" width="7.82" height="2.87" transform="translate(124.85 344.27) rotate(-180)"/><polygon class="cls-14" points="35.19 198.39 96.72 198.39 98.29 196.83 36.75 182.29 35.19 183.85 35.19 198.39"/><rect class="cls-15" x="36.75" y="182.29" width="61.54" height="14.54" transform="translate(135.04 379.11) rotate(-180)"/><circle class="cls-6" cx="89.67" cy="189.56" r="5.1"/><circle class="cls-12" cx="89.67" cy="189.56" r="3.41"/><circle class="cls-6" cx="77.66" cy="189.56" r="3.79"/><circle class="cls-2" cx="77.66" cy="189.56" r="2.16"/><rect class="cls-6" x="39.96" y="188.19" width="7.82" height="2.87" transform="translate(87.75 379.25) rotate(-180)"/><rect class="cls-6" x="49.24" y="188.19" width="7.82" height="2.87" transform="translate(106.3 379.25) rotate(-180)"/><rect class="cls-19" x="40.78" y="188.91" width="6.19" height="1.43" transform="translate(87.75 379.25) rotate(-180)"/><rect class="cls-19" x="50.06" y="188.91" width="6.19" height="1.43" transform="translate(106.3 379.25) rotate(-180)"/><rect class="cls-6" x="58.52" y="188.19" width="7.82" height="2.87" transform="translate(124.85 379.25) rotate(-180)"/><polygon class="cls-14" points="35.19 215.88 96.72 215.88 98.29 214.31 36.75 199.77 35.19 201.34 35.19 215.88"/><rect class="cls-15" x="36.75" y="199.77" width="61.54" height="14.54" transform="translate(135.04 414.09) rotate(-180)"/><circle class="cls-6" cx="89.67" cy="207.04" r="5.1"/><circle class="cls-16" cx="89.67" cy="207.04" r="3.41"/><circle class="cls-6" cx="77.66" cy="207.04" r="3.79"/><circle class="cls-12" cx="77.66" cy="207.04" r="2.16"/><rect class="cls-6" x="39.96" y="205.67" width="7.82" height="2.87" transform="translate(87.75 414.22) rotate(-180)"/><rect class="cls-6" x="49.24" y="205.67" width="7.82" height="2.87" transform="translate(106.3 414.22) rotate(-180)"/><rect class="cls-19" x="40.78" y="206.39" width="6.19" height="1.43" transform="translate(87.75 414.22) rotate(-180)"/><rect class="cls-19" x="50.06" y="206.39" width="6.19" height="1.43" transform="translate(106.3 414.22) rotate(-180)"/><rect class="cls-6" x="58.52" y="205.67" width="7.82" height="2.87" transform="translate(124.85 414.22) rotate(-180)"/><polygon class="cls-14" points="35.19 233.36 96.72 233.36 98.29 231.8 36.75 217.26 35.19 218.82 35.19 233.36"/><rect class="cls-15" x="36.75" y="217.26" width="61.54" height="14.54" transform="translate(135.04 449.06) rotate(-180)"/><circle class="cls-6" cx="89.67" cy="224.53" r="5.1"/><circle class="cls-12" cx="89.67" cy="224.53" r="3.41"/><circle class="cls-6" cx="77.66" cy="224.53" r="3.79"/><circle class="cls-2" cx="77.66" cy="224.53" r="2.16"/><rect class="cls-6" x="39.96" y="223.16" width="7.82" height="2.87" transform="translate(87.75 449.19) rotate(-180)"/><rect class="cls-6" x="49.24" y="223.16" width="7.82" height="2.87" transform="translate(106.3 449.19) rotate(-180)"/><rect class="cls-19" x="40.78" y="223.88" width="6.19" height="1.43" transform="translate(87.75 449.19) rotate(-180)"/><rect class="cls-19" x="50.06" y="223.88" width="6.19" height="1.43" transform="translate(106.3 449.19) rotate(-180)"/><rect class="cls-6" x="58.52" y="223.16" width="7.82" height="2.87" transform="translate(124.85 449.19) rotate(-180)"/><polygon class="cls-14" points="35.19 250.85 96.72 250.85 98.29 249.29 36.75 234.75 35.19 236.31 35.19 250.85"/><rect class="cls-15" x="36.75" y="234.75" width="61.54" height="14.54" transform="translate(135.04 484.03) rotate(-180)"/><circle class="cls-6" cx="89.67" cy="242.02" r="5.1"/><circle class="cls-2" cx="89.67" cy="242.02" r="3.41"/><circle class="cls-6" cx="77.66" cy="242.02" r="3.79"/><circle class="cls-16" cx="77.66" cy="242.02" r="2.16"/><rect class="cls-6" x="39.96" y="240.65" width="7.82" height="2.87" transform="translate(87.75 484.17) rotate(-180)"/><rect class="cls-6" x="49.24" y="240.65" width="7.82" height="2.87" transform="translate(106.3 484.17) rotate(-180)"/><rect class="cls-19" x="40.78" y="241.37" width="6.19" height="1.43" transform="translate(87.75 484.17) rotate(-180)"/><rect class="cls-19" x="50.06" y="241.37" width="6.19" height="1.43" transform="translate(106.3 484.17) rotate(-180)"/><rect class="cls-6" x="58.52" y="240.65" width="7.82" height="2.87" transform="translate(124.85 484.17) rotate(-180)"/><g class="cls-20"><line class="cls-21" x1="134.52" y1="250.85" x2="134.52" y2="256.85"/><polyline class="cls-21" points="134.52 259.83 134.52 265.83 140.52 265.83"/><line class="cls-22" x1="152.18" y1="265.83" x2="239.63" y2="265.83"/><polyline class="cls-21" points="245.46 265.83 251.46 265.83 251.46 271.83"/><line class="cls-21" x1="251.46" y1="280.55" x2="251.46" y2="286.55"/></g><g class="cls-20"><line class="cls-21" x1="251.46" y1="212.38" x2="251.46" y2="218.38"/><line class="cls-23" x1="251.46" y1="228.72" x2="251.46" y2="244.22"/><polyline class="cls-21" points="251.46 249.39 251.46 255.39 257.46 255.39"/><line class="cls-24" x1="270.37" y1="255.39" x2="393" y2="255.39"/><polyline class="cls-21" points="399.45 255.39 405.45 255.39 405.45 249.39"/><line class="cls-21" x1="405.45" y1="245.1" x2="405.45" y2="239.1"/></g><g class="cls-20"><line class="cls-25" x1="251.46" y1="262.79" x2="251.46" y2="258.78"/></g><rect class="cls-26" x="350.8" y="343.61" width="63.14" height="63.14" rx="6.44"/><rect class="cls-27" x="49.8" y="287.91" width="106.34" height="106.34" rx="10.84" transform="translate(-211.02 172.71) rotate(-45)"/><path class="cls-11" d="M135.33,287.85h228a11.24,11.24,0,0,1,11.24,11.24V448.67a0,0,0,0,1,0,0H124.09a0,0,0,0,1,0,0V299.08A11.24,11.24,0,0,1,135.33,287.85Z"/><path class="cls-15" d="M138.65,286.55h228a11.24,11.24,0,0,1,11.24,11.24V448.67a0,0,0,0,1,0,0H127.41a0,0,0,0,1,0,0V297.79A11.24,11.24,0,0,1,138.65,286.55Z"/><rect class="cls-6" x="134.83" y="294.18" width="237.13" height="150.1"/><circle class="cls-15" cx="173.86" cy="336.09" r="25.97"/><circle class="cls-15" cx="239.3" cy="336.09" r="25.97"/><rect class="cls-2" x="149.73" y="377.11" width="45.2" height="8.43"/><rect class="cls-15" x="205.29" y="377.11" width="45.2" height="8.43"/><rect class="cls-19" x="149.73" y="391.78" width="45.2" height="8.43"/><rect class="cls-2" x="205.29" y="391.78" width="45.2" height="8.43"/><rect class="cls-16" x="316.41" y="377.11" width="45.2" height="23.11"/><rect class="cls-2" x="149.73" y="406.45" width="45.2" height="8.43"/><rect class="cls-19" x="205.29" y="406.45" width="45.2" height="8.43"/><rect class="cls-15" x="316.41" y="406.45" width="45.2" height="8.43"/><rect class="cls-15" x="260.85" y="406.45" width="45.2" height="8.43"/><rect class="cls-15" x="260.85" y="391.78" width="45.2" height="8.43"/><rect class="cls-15" x="260.85" y="377.11" width="45.2" height="8.43"/><rect class="cls-19" x="149.73" y="421.12" width="45.2" height="8.43"/><rect class="cls-15" x="205.29" y="421.12" width="45.2" height="8.43"/><rect class="cls-19" x="260.85" y="421.12" width="45.2" height="8.43"/><rect class="cls-15" x="316.41" y="421.12" width="45.2" height="8.43"/><polygon class="cls-2" points="240.92 336.79 237.74 335.41 246.78 316.56 248.67 317.39 240.92 336.79"/><circle class="cls-19" cx="239.33" cy="336.1" r="4.96"/><circle class="cls-2" cx="239.33" cy="336.1" r="2.77"/><polygon class="cls-12" points="175.6 336.08 172.13 336.11 172.75 315.22 174.81 315.2 175.6 336.08"/><circle class="cls-19" cx="173.86" cy="336.1" r="4.96"/><circle class="cls-12" cx="173.86" cy="336.1" r="2.77"/><path class="cls-19" d="M354.31,365.94l-2.05-23-15.1,8.38v-8.68l-15.06,8.86v-9.21l-14.4,8.94L306.13,324h-4.37s3.67,0,4.72-5.08c0,0,7.86.88,8.9-6.37,0,0,6.55,5.5,8.91.7s-3.58-13-9.78-11.35-7.16,3.23-9.25,1.75-4.8-.44-5.68,2.53-7.07,6.81-1.3,10.82c0,0-2.54,7,2.26,7H296.7l-3,41.92Z"/><path class="cls-2" d="M357,365.94l-2-23-15.1,8.38v-8.68l-15.05,8.86v-9.21l-14.4,8.94L308.84,324h-4.37s3.68,0,4.72-5.08c0,0,7.86.88,8.91-6.37,0,0,6.54,5.5,8.9.7s-3.58-13-9.78-11.35-7.15,3.23-9.25,1.75-4.8-.44-5.67,2.53S295.23,313,301,317c0,0-2.53,7,2.27,7h-3.84l-3,41.92Z"/><path class="cls-16" d="M254,96.21l-4.79-4.72c9.37-9.74,26.8-10.88,37.69,0l-4.76,4.81A20.31,20.31,0,0,0,254,96.21Z"/><path class="cls-16" d="M279.83,98.42l-4.7,4.8c-4.76-3.7-9.49-3.7-14.17-.06l-4.81-4.68A17,17,0,0,1,279.83,98.42Z"/><path class="cls-16" d="M263.29,105.63c2.42-2.39,7-2.42,9.32-.09L268,110.22Z"/><path class="cls-2" d="M267.82,270.2,263,265.48c9.37-9.74,26.8-10.88,37.69,0L296,270.25a20.31,20.31,0,0,0-28.14-.05Z"/><path class="cls-2" d="M260.94,263.35c-2.42-2.37-3.12-3-5.48-5.37,14-14.52,37.11-16.76,53.34-.62-2.35,2.38-3.55,3.65-5.93,6.07a30.23,30.23,0,0,0-41.93-.08Z"/><path class="cls-2" d="M293.69,272.41l-4.7,4.8c-4.76-3.7-9.49-3.7-14.17-.06L270,272.47A17,17,0,0,1,293.69,272.41Z"/><path class="cls-2" d="M277.15,279.62c2.42-2.39,7-2.42,9.32-.09l-4.62,4.68Z"/><path class="cls-16" d="M450.81,117.87,446,113.15c9.37-9.74,26.8-10.88,37.69-.05L479,117.92a20.28,20.28,0,0,0-28.14,0Z"/><path class="cls-16" d="M476.67,120.08l-4.69,4.8c-4.76-3.7-9.49-3.7-14.17-.06L453,120.14A17,17,0,0,1,476.67,120.08Z"/><path class="cls-16" d="M460.14,127.29c2.42-2.39,7-2.42,9.32-.09l-4.62,4.68Z"/><path class="cls-16" d="M135.68,149.41l-4.79-4.72c9.36-9.74,26.79-10.88,37.69,0l-4.76,4.81a20.31,20.31,0,0,0-28.14-.05Z"/><path class="cls-16" d="M161.54,151.62l-4.69,4.8c-4.76-3.7-9.49-3.7-14.17-.06l-4.81-4.68A17,17,0,0,1,161.54,151.62Z"/><path class="cls-16" d="M145,158.83c2.42-2.39,7-2.42,9.32-.09l-4.62,4.68Z"/></svg>