<svg xmlns="http://www.w3.org/2000/svg" width="618.169" height="501.642" viewBox="0 0 618.169 501.642">
  <g id="Page-1" transform="translate(0 -12)">
    <g id="S01" transform="translate(-738 -149)">
      <g id="Group-7" transform="translate(738 149)">
        <g id="Main_Pic" transform="translate(0 12)">
          <path id="Fill-1" d="M329.655,250.42a29.817,29.817,0,1,0-27.774,5.711l.251-16.615,1.3-20.028,2.248-5.777,3.833-2.376,4.253-.963,3.484.376,3.239,1.492,3.472,2.714,2.659,5.219.55,6.768.717,13.414Z" fill="#e9d028" fill-rule="evenodd"/>
          <path id="Fill-3" d="M138.684,146.321h47.671v-3.15H138.684Z" fill="#333" fill-rule="evenodd"/>
          <path id="Fill-5" d="M190.394,146.321h8.116v-3.15h-8.116Z" fill="#333" fill-rule="evenodd"/>
          <path id="Fill-6" d="M115.967,158.131h8.117v-3.15h-8.117Z" fill="#333" fill-rule="evenodd"/>
          <path id="Fill-7" d="M128.2,158.131h47.671v-3.15H128.2Z" fill="#333" fill-rule="evenodd"/>
          <path id="Fill-8" d="M553.679,137.492H601.35v-3.15H553.679Z" fill="#333" fill-rule="evenodd"/>
          <path id="Fill-9" d="M605.389,137.492h8.116v-3.15h-8.116Z" fill="#333" fill-rule="evenodd"/>
          <path id="Fill-10" d="M530.962,149.3h8.117v-3.15h-8.117Z" fill="#333" fill-rule="evenodd"/>
          <path id="Fill-11" d="M543.19,149.3h47.672v-3.15H543.19Z" fill="#333" fill-rule="evenodd"/>
          <path id="Fill-12" d="M60.112,353.432H168.893V304.519a1.576,1.576,0,0,1,.844-1.4l15.3-8.017-15.265-7.5a1.574,1.574,0,0,1-.88-1.413v-9.934H60.112Zm110.356,3.15H58.537a1.575,1.575,0,0,1-1.575-1.575V274.681a1.575,1.575,0,0,1,1.575-1.575H170.468a1.575,1.575,0,0,1,1.575,1.575v10.528l17.169,8.438a1.576,1.576,0,0,1,.037,2.809l-17.206,9.016v49.535a1.575,1.575,0,0,1-1.575,1.575Z" fill="#333" fill-rule="evenodd"/>
          <path id="Fill-13" d="M68.05,346.668h93.207V283.021H68.05Z" fill="#3bc1c3" fill-rule="evenodd"/>
          <path id="Fill-14" d="M81.38,298.551h52.138V295.4H81.38Z" fill="#333" fill-rule="evenodd"/>
          <path id="Fill-15" d="M137.935,298.551h8.878V295.4h-8.878Z" fill="#333" fill-rule="evenodd"/>
          <path id="Fill-16" d="M81.38,333.518h52.138v-3.15H81.38Z" fill="#333" fill-rule="evenodd"/>
          <path id="Fill-17" d="M137.935,333.518h8.878v-3.15h-8.878Z" fill="#333" fill-rule="evenodd"/>
          <path id="Fill-18" d="M81.38,321.861h52.138v-3.15H81.38Z" fill="#333" fill-rule="evenodd"/>
          <path id="Fill-19" d="M137.935,321.861h8.878v-3.15h-8.878Z" fill="#333" fill-rule="evenodd"/>
          <path id="Fill-20" d="M94.675,310.206h52.138v-3.15H94.675Z" fill="#333" fill-rule="evenodd"/>
          <path id="Fill-21" d="M81.38,310.206h8.878v-3.15H81.38Z" fill="#333" fill-rule="evenodd"/>
          <path id="Fill-22" d="M273.358,367.451h-54.01c-4.265,0-7.735-4.039-7.735-9V55.068c0-4.964,3.47-9,7.735-9H401.63c4.265,0,7.734,4.039,7.734,9V314.63h-3.15V55.068c0-3.228-2.057-5.853-4.584-5.853H219.348c-2.529,0-4.585,2.626-4.585,5.853V358.449c0,3.226,2.056,5.852,4.585,5.852h54.01Z" fill="#333" fill-rule="evenodd"/>
          <path id="Fill-23" d="M273.625,328.615H223.731a1.575,1.575,0,0,1-1.575-1.575V85.8a1.575,1.575,0,0,1,1.575-1.575H397.247a1.575,1.575,0,0,1,1.575,1.575V317.43h-3.15V87.379H225.306V325.465h48.319Z" fill="#333" fill-rule="evenodd"/>
          <path id="Fill-24" d="M293.91,63.783c-.292,0-.617.374-.617.91v4.346c0,.535.325.908.617.908h33.158c.291,0,.616-.373.616-.908V64.692c0-.536-.325-.91-.616-.91ZM327.068,73.1H293.91a3.925,3.925,0,0,1-3.767-4.058V64.692a3.926,3.926,0,0,1,3.767-4.06h33.158a3.925,3.925,0,0,1,3.766,4.06v4.346a3.925,3.925,0,0,1-3.766,4.058Z" fill="#333" fill-rule="evenodd"/>
          <path id="Fill-25" d="M213.072,175.774H101.334c-.264-.009-20.306-1.084-20.306-26.418V107.707h3.15v41.649c0,22,16.165,23.214,17.194,23.268h111.7Z" fill="#333" fill-rule="evenodd"/>
          <path id="Fill-26" d="M71.711,101.244c-.958,0-2.025,1.3-2.025,3.174s1.067,3.175,2.025,3.175H94.253c.958,0,2.025-1.3,2.025-3.175s-1.067-3.174-2.025-3.174Zm22.541,9.5H71.711c-2.853,0-5.175-2.837-5.175-6.325s2.322-6.324,5.175-6.324H94.253c2.854,0,5.175,2.837,5.175,6.324s-2.322,6.325-5.175,6.325Z" fill="#333" fill-rule="evenodd"/>
          <path id="Fill-27" d="M102.933,96.016a3.654,3.654,0,0,1-3.653,3.653h-32.6a3.654,3.654,0,0,1-3.653-3.653V64.6a3.653,3.653,0,0,1,3.653-3.653h32.6a3.653,3.653,0,0,1,3.653,3.653Z" fill="#3bc1c3" fill-rule="evenodd"/>
          <path id="Fill-28" d="M66.684,62.518A2.081,2.081,0,0,0,64.607,64.6V96.016a2.081,2.081,0,0,0,2.078,2.078h32.6a2.08,2.08,0,0,0,2.078-2.078V64.6a2.08,2.08,0,0,0-2.078-2.078Zm32.6,38.726h-32.6a5.233,5.233,0,0,1-5.228-5.228V64.6a5.234,5.234,0,0,1,5.228-5.228h32.6a5.234,5.234,0,0,1,5.228,5.228V96.016a5.234,5.234,0,0,1-5.228,5.228Z" fill="#333" fill-rule="evenodd"/>
          <path id="Fill-29" d="M78.786,60.943h-3.15V41.214a2.081,2.081,0,0,0-2.078-2.078h-.149a2.08,2.08,0,0,0-2.078,2.078V60.943h-3.15V41.214a5.233,5.233,0,0,1,5.228-5.228h.149a5.234,5.234,0,0,1,5.228,5.228Z" fill="#333" fill-rule="evenodd"/>
          <path id="Fill-30" d="M97.053,60.943H93.9V41.214a2.081,2.081,0,0,0-2.079-2.078h-.148A2.081,2.081,0,0,0,89.6,41.214V60.943h-3.15V41.214a5.234,5.234,0,0,1,5.229-5.228h.148a5.234,5.234,0,0,1,5.229,5.228Z" fill="#333" fill-rule="evenodd"/>
          <path id="Fill-31" d="M298.934,380.639l-.449-3.117c2.848-.411,3.389-3.542,3.465-4.127l-1.515-34.638c0-.026,0-.052,0-.079l.718-113.892c0-9.5,5.149-15.643,13.118-15.643,8.208,0,13.945,6.417,13.962,15.61l5.91,110.343,0,.068c0,.043.192,4.614,2.205,4.614a1.829,1.829,0,0,0,1.551-.59c.87-1.021.726-3.222.639-3.756-.005-.035-.009-.069-.013-.105l-2.535-27.047a1.479,1.479,0,0,1-.007-.148c0-8.484,7.554-15.652,16.5-15.652a15.671,15.671,0,0,1,15.653,15.6l2.529,37.111-3.142.214-2.533-37.163c0-.036,0-.071,0-.107a12.517,12.517,0,0,0-12.5-12.5c-7.084,0-13.3,5.8-13.346,12.431l2.524,26.925c.092.613.505,4.055-1.359,6.244a4.96,4.96,0,0,1-3.95,1.7c-4.147,0-5.316-4.82-5.355-7.7l-5.91-110.351c0-.029,0-.056,0-.085,0-6.223-3.343-12.5-10.812-12.5-9.25,0-9.968,9.571-9.968,12.5l-.718,113.863,1.519,34.722a1.721,1.721,0,0,1,0,.2c-.186,2.16-1.713,6.413-6.165,7.055" fill="#333" fill-rule="evenodd"/>
          <path id="Fill-32" d="M395.675,353.281l-2.533-38.551c0-.034,0-.069,0-.1a12.5,12.5,0,0,0-25-.064l2.528,30.6-3.139.259-2.534-30.667c0-.044-.005-.087-.005-.13a15.652,15.652,0,0,1,31.3-.053l2.53,38.5Z" fill="#333" fill-rule="evenodd"/>
          <path id="Fill-33" d="M313.148,501.642l-3.143-.2,1.226-19.037.388-13.365c-14.047-10.756-37.134-46.264-38.469-52.229-2.782-12.448-2.383-53.564-1.237-77.432a90.741,90.741,0,0,0-.869-14.687c-.814-7.034-1.458-12.59,1.442-15.185,1.51-1.353,3.7-1.676,6.681-.991,12.579,2.889,19.03,17.517,19.3,18.138,2.581,6.148,4.367,10.747,5.315,13.685l-3,.967c-.921-2.852-2.676-7.366-5.216-13.418-.053-.121-6.093-13.773-17.106-16.3-1.888-.432-3.191-.343-3.874.268-1.684,1.507-1.067,6.835-.415,12.476a92.994,92.994,0,0,1,.887,15.2c-1.138,23.7-1.553,64.428,1.166,76.594,1.272,5.687,24.776,41.365,37.915,50.866a1.572,1.572,0,0,1,.651,1.322l-.413,14.239Z" fill="#333" fill-rule="evenodd"/>
          <path id="Fill-34" d="M405.683,501.544l-3.15-.008.085-34.08a1.576,1.576,0,0,1,.174-.716,64,64,0,0,1,4.01-6.195c3.671-5.284,8.7-12.519,10.975-20.027,3.244-10.689,5.91-66.436,6.044-69.286L421.3,344.126c-3.186-17.36-7.512-26.766-12.857-27.959-.034-.008-.068-.016-.1-.026a10.112,10.112,0,0,0-8.643,1.422,7.285,7.285,0,0,0-2.946,6.042l2.061,29.462-3.143.22-2.064-29.519c0-.037,0-.074,0-.11a10.488,10.488,0,0,1,4.208-8.617,13.18,13.18,0,0,1,11.37-1.936c9.019,2.07,13.011,18.4,15.23,30.522.009.045.015.091.02.138l2.533,27.285a1.441,1.441,0,0,1,.005.218c-.111,2.4-2.757,58.876-6.182,70.165-2.421,7.982-7.612,15.454-11.4,20.909-1.52,2.188-2.849,4.1-3.623,5.512Z" fill="#333" fill-rule="evenodd"/>
          <path id="Fill-35" d="M314.894,218.638a5.683,5.683,0,0,0-5.677,5.678v6.649c0,2.084.878,3.142,5.677,3.142s5.676-1.058,5.676-3.142v-6.649a5.683,5.683,0,0,0-5.676-5.678m0,17.989c-2.453,0-8.2,0-8.2-5.662v-6.649a8.2,8.2,0,1,1,16.393,0v6.649c0,5.662-5.744,5.662-8.2,5.662" fill="#333" fill-rule="evenodd"/>
          <path id="Fill-36" d="M274.7,334.3h8.713c.268-2.587.609-9.407-2.481-14.16-2.574-3.959-5.723-4.726-7.543-4.8Zm9.823,2.52h-11a1.259,1.259,0,0,1-1.257-1.173l-1.481-21.4a1.263,1.263,0,0,1,1.012-1.323,7.287,7.287,0,0,1,1.3-.1c1.827,0,6.454.579,9.944,5.948,4.406,6.778,2.791,16.591,2.719,17.005a1.259,1.259,0,0,1-1.241,1.048Z" fill="#333" fill-rule="evenodd"/>
          <path id="Fill-37" d="M301.176,268.771a36.978,36.978,0,0,1-3.866-1.224l1.113-2.947a33.94,33.94,0,0,0,3.538,1.121Z" fill="#333" fill-rule="evenodd"/>
          <path id="Fill-38" d="M301.216,190l-.742-3.061a42.421,42.421,0,0,1,8.074-1.148l.142,3.147A39.31,39.31,0,0,0,301.216,190Zm22.344,1.129a39.05,39.05,0,0,0-7.327-1.814l.458-3.116a42.162,42.162,0,0,1,7.918,1.96Zm-35.99,5.163-1.844-2.554a42.47,42.47,0,0,1,7.043-4.116l1.319,2.86a39.273,39.273,0,0,0-6.518,3.81Zm48.931,2.48a39.382,39.382,0,0,0-6.1-4.449l1.6-2.712a42.567,42.567,0,0,1,6.592,4.805Zm-59.219,8.484-2.667-1.677a42.622,42.622,0,0,1,4.986-6.456l2.3,2.156a39.335,39.335,0,0,0-4.616,5.977Zm68.352,3.457a39.3,39.3,0,0,0-3.989-6.409l2.5-1.914a42.4,42.4,0,0,1,4.311,6.925ZM271.88,221.272l-3.1-.544a42.083,42.083,0,0,1,2.182-7.86L273.9,214a39.055,39.055,0,0,0-2.018,7.272Zm77.7,3.934a39.2,39.2,0,0,0-1.27-7.441l3.039-.828a42.339,42.339,0,0,1,1.372,8.041Zm-80.516,11.755a42.6,42.6,0,0,1-.924-8.1l3.149-.055a39.584,39.584,0,0,0,.855,7.5ZM350.8,241.1l-3-.967a39.1,39.1,0,0,0,1.609-7.376l3.128.371a42.228,42.228,0,0,1-1.74,7.972Zm-75.349,10.788a42.471,42.471,0,0,1-3.918-7.154l2.9-1.239a39.242,39.242,0,0,0,3.626,6.622Zm67.481,3.421-2.411-2.026a39.328,39.328,0,0,0,4.279-6.223l2.755,1.527a42.423,42.423,0,0,1-4.623,6.722Zm-55.951,8.014a42.646,42.646,0,0,1-6.316-5.162l2.219-2.237a39.483,39.483,0,0,0,5.847,4.781Z" fill="#e9d028" fill-rule="evenodd"/>
          <path id="Fill-39" d="M331.441,263.5l-1.775-2.6a34.117,34.117,0,0,0,2.948-2.254l2.046,2.4a37.479,37.479,0,0,1-3.219,2.46" fill="#333" fill-rule="evenodd"/>
          <path id="Fill-40" d="M297.113,279.721c-1.284-.33-2.575-.715-3.837-1.144l1.012-2.983c1.189.4,2.4.766,3.61,1.076Z" fill="#333" fill-rule="evenodd"/>
          <path id="Fill-41" d="M316.85,177.981a51.443,51.443,0,0,0-7.378-.388l-.061-3.15a54.5,54.5,0,0,1,7.833.412Zm-21.9,2.047-.971-3a53.3,53.3,0,0,1,7.623-1.863l.52,3.107a50.149,50.149,0,0,0-7.172,1.753Zm36.088,1.924a50.225,50.225,0,0,0-6.948-2.512l.849-3.033a53.361,53.361,0,0,1,7.386,2.67Zm-49.274,4.628-1.8-2.585a53.567,53.567,0,0,1,6.748-4l1.4,2.821a50.439,50.439,0,0,0-6.35,3.762Zm61.7,3.3a50.663,50.663,0,0,0-5.92-4.42l1.7-2.655a53.917,53.917,0,0,1,6.288,4.695Zm-72.431,6.79-2.468-1.957a53.955,53.955,0,0,1,5.31-5.776l2.157,2.295a50.843,50.843,0,0,0-5,5.438Zm82.036,4.378a50.705,50.705,0,0,0-4.393-5.934l2.388-2.055a53.983,53.983,0,0,1,4.667,6.305Zm-89.4,8.381-2.929-1.158a53.418,53.418,0,0,1,3.416-7.069l2.728,1.576a50.333,50.333,0,0,0-3.215,6.651Zm95.365,5.081a50.021,50.021,0,0,0-2.483-6.952l2.88-1.276a53.263,53.263,0,0,1,2.64,7.392Zm-98.7,9.268-3.14-.256a53.562,53.562,0,0,1,1.208-7.752l3.068.713a50.368,50.368,0,0,0-1.136,7.295Zm103.641,5.429-3.149-.076q.015-.6.015-1.21a51.275,51.275,0,0,0-.374-6.167l3.126-.382a54.122,54.122,0,0,1,.4,6.549q0,.644-.016,1.286ZM258.18,239.138a53.772,53.772,0,0,1-1.069-7.775l3.144-.2a50.441,50.441,0,0,0,1.006,7.317Zm103.132,5.5-2.993-.985a50,50,0,0,0,1.782-7.166l3.1.531a53.193,53.193,0,0,1-1.894,7.62ZM263.668,253.8a53.1,53.1,0,0,1-3.286-7.127l2.949-1.1a50.124,50.124,0,0,0,3.092,6.705Zm90.62,4.832-2.578-1.812a50.4,50.4,0,0,0,3.791-6.339l2.815,1.414a53.843,53.843,0,0,1-4.028,6.737Zm-81.119,7.607a53.91,53.91,0,0,1-5.206-5.872l2.5-1.912a50.786,50.786,0,0,0,4.9,5.527Zm73.693.9-2.142-2.309c.794-.737,1.572-1.507,2.314-2.29l2.287,2.166c-.788.832-1.615,1.651-2.459,2.433Zm-61.008,8.272a53.393,53.393,0,0,1-6.68-4.123l1.846-2.551a50.391,50.391,0,0,0,6.286,3.878Z" fill="#e9d028" fill-rule="evenodd"/>
          <path id="Fill-42" d="M340.58,272.148l-1.774-2.6c1.035-.706,2.055-1.458,3.031-2.236l1.962,2.464c-1.036.826-2.119,1.625-3.219,2.375" fill="#333" fill-rule="evenodd"/>
          <path id="Fill-43" d="M514.675,126.22h-75.6a1.575,1.575,0,0,1-1.5-2.045l7.066-22.608a1.574,1.574,0,0,1,1.5-1.105h9.079v3.15H447.3l-6.083,19.458h71.317l-6.082-19.458h-7.92v-3.15h9.078a1.573,1.573,0,0,1,1.5,1.105l7.066,22.608a1.573,1.573,0,0,1-1.5,2.045" fill="#333" fill-rule="evenodd"/>
          <path id="Fill-44" d="M461.849,103.612h29.8v-3.15h-29.8Z" fill="#333" fill-rule="evenodd"/>
          <path id="Fill-45" d="M455.225,67.665c-.063,0-.125,0-.19.009a1.96,1.96,0,0,0-1.762,2.134l4.073,40.778a1.732,1.732,0,0,0,1.939,1.526c.1,0,.2,0,.307-.012a1.813,1.813,0,0,0,1.321-.532,2.1,2.1,0,0,0,.337-1.289l-4.079-40.834a1.949,1.949,0,0,0-1.946-1.781m4.061,47.6h0a4.865,4.865,0,0,1-5.074-4.367l-4.073-40.782a5.107,5.107,0,1,1,10.168-.973l4.072,40.78a5.135,5.135,0,0,1-1.023,3.637,4.805,4.805,0,0,1-3.529,1.684q-.28.021-.54.021" fill="#333" fill-rule="evenodd"/>
          <path id="Fill-46" d="M498.523,67.665a1.946,1.946,0,0,0-1.944,1.773l-4.074,40.8c-.028.468.151,1.325,1.687,1.548a3.567,3.567,0,0,0,.519.041,1.6,1.6,0,0,0,1.7-1.313l4.066-40.71a1.96,1.96,0,0,0-1.765-2.126c-.064-.006-.127-.009-.19-.009m-3.812,47.308h0a6.851,6.851,0,0,1-.973-.073,4.663,4.663,0,0,1-4.365-4.988l4.072-40.779a5.108,5.108,0,0,1,10.169.973L499.538,110.9c0,.033-.007.065-.012.1a4.77,4.77,0,0,1-4.815,3.976" fill="#333" fill-rule="evenodd"/>
          <path id="Fill-47" d="M514.675,137.88h-75.6A1.575,1.575,0,0,1,437.5,136.3v-11.66h3.15V134.73H513.1V124.645h3.15V136.3a1.575,1.575,0,0,1-1.575,1.575" fill="#333" fill-rule="evenodd"/>
          <path id="Fill-48" d="M245.415,99.455a3.431,3.431,0,1,0-3.431,3.431,3.431,3.431,0,0,0,3.431-3.431" fill="#333" fill-rule="evenodd"/>
          <path id="Fill-49" d="M255.1,99.455a3.432,3.432,0,1,0-3.431,3.431,3.431,3.431,0,0,0,3.431-3.431" fill="#333" fill-rule="evenodd"/>
          <path id="Fill-50" d="M264.781,99.455a3.432,3.432,0,1,0-3.433,3.431,3.432,3.432,0,0,0,3.433-3.431" fill="#333" fill-rule="evenodd"/>
          <path id="Fill-51" d="M363.545,101.523h1.334V97.389h-1.334Zm2.279,1.89H362.6a.946.946,0,0,1-.945-.945V96.443a.946.946,0,0,1,.945-.945h3.224a.945.945,0,0,1,.945.945v6.025a.945.945,0,0,1-.945.945Z" fill="#333" fill-rule="evenodd"/>
          <path id="Fill-52" d="M367.1,103.191h3.929V95.722H367.1Zm4.874,1.89H366.84a1.586,1.586,0,0,1-1.632-1.532V95.363a1.586,1.586,0,0,1,1.632-1.532h5.132a.945.945,0,0,1,.945.945v9.359a.946.946,0,0,1-.945.945Z" fill="#333" fill-rule="evenodd"/>
          <path id="Fill-53" d="M372.917,103.191h3.815V95.722h-3.815Zm4.76,1.89h-5.705a.945.945,0,0,1-.945-.945V94.777a.945.945,0,0,1,.945-.945h5.705a.945.945,0,0,1,.945.945v9.359a.946.946,0,0,1-.945.945Z" fill="#333" fill-rule="evenodd"/>
          <path id="Fill-54" d="M378.622,103.191h3.6V95.722h-3.6Zm3.855,1.89h-4.8a.945.945,0,0,1-.945-.945V94.777a.945.945,0,0,1,.945-.945h4.8a1.586,1.586,0,0,1,1.632,1.532v8.186a1.586,1.586,0,0,1-1.632,1.532Z" fill="#333" fill-rule="evenodd"/>
          <path id="Fill-55" d="M297.945,102.231h26.416V96.68H297.945Z" fill="#bcbcbc" fill-rule="evenodd"/>
          <path id="Fill-56" d="M475.172,145.5h3.15v-7.56h-3.15Zm0,15.12h3.15v-7.56h-3.15Zm0,15.12h3.15v-7.56h-3.15Zm0,15.12h3.15V183.3h-3.15Zm9.336,12.98a13.783,13.783,0,0,1-6.77-4.979l2.555-1.844a10.6,10.6,0,0,0,5.208,3.834Zm7.989.687h7.56v-3.15H492.5Zm15.12,0h7.56v-3.15h-7.56Zm15.12,0h7.56v-3.15h-7.56Zm15.12,0h7.56v-3.15h-7.56Z" fill="#333" fill-rule="evenodd"/>
          <path id="Fill-57" d="M369.732,161.727H276.049l-6.985,11.882-6.187-11.882H252.541V125.973H369.732Z" fill="#3bc1c3" fill-rule="evenodd"/>
          <path id="Fill-58" d="M254.116,160.152h8.761a1.575,1.575,0,0,1,1.4.848l4.873,9.359,5.544-9.43a1.575,1.575,0,0,1,1.357-.777h92.109v-32.6H254.116Zm14.948,15.032h-.041a1.574,1.574,0,0,1-1.356-.847L261.922,163.3h-9.381a1.575,1.575,0,0,1-1.575-1.575V125.973a1.575,1.575,0,0,1,1.575-1.575H369.732a1.575,1.575,0,0,1,1.575,1.575v35.754a1.575,1.575,0,0,1-1.575,1.575H276.95l-6.528,11.1a1.577,1.577,0,0,1-1.358.777Z" fill="#333" fill-rule="evenodd"/>
          <path id="Fill-59" d="M350.626,138.7h8.008v-3.15h-8.008Z" fill="#333" fill-rule="evenodd"/>
          <path id="Fill-60" d="M264.255,148.268h73.514v-3.15H264.255Z" fill="#fff" fill-rule="evenodd"/>
          <path id="Fill-61" d="M264.255,141.19h73.514v-3.15H264.255Z" fill="#fff" fill-rule="evenodd"/>
          <path id="Fill-62" d="M459.525,39.164a4.638,4.638,0,0,1-3.326-7.869,29.889,29.889,0,0,1,42.21-.59,4.637,4.637,0,1,1-6.466,6.648,20.6,20.6,0,0,0-29.094.406,4.613,4.613,0,0,1-3.324,1.4" fill="#3bc1c3" fill-rule="evenodd"/>
          <path id="Fill-63" d="M448.982,21.49a4.634,4.634,0,0,1-3.326-7.867,44.982,44.982,0,0,1,63.6-.9,4.638,4.638,0,1,1-6.465,6.652A35.832,35.832,0,0,0,477.4,9.276a35.46,35.46,0,0,0-25.094,10.811,4.632,4.632,0,0,1-3.325,1.4" fill="#3bc1c3" fill-rule="evenodd"/>
          <path id="Fill-64" d="M483.819,50.456a6.467,6.467,0,1,1-6.471-6.464,6.47,6.47,0,0,1,6.471,6.464" fill="#3bc1c3" fill-rule="evenodd"/>
          <path id="Fill-65" d="M458.969,307.628a4.9,4.9,0,0,0-4.895,4.9v59.3a4.9,4.9,0,0,0,4.895,4.895H563.452a4.9,4.9,0,0,0,4.9-4.895v-59.3a4.9,4.9,0,0,0-4.9-4.9Zm104.483,72.236H458.969a8.055,8.055,0,0,1-8.045-8.045v-59.3a8.055,8.055,0,0,1,8.045-8.045H563.452a8.054,8.054,0,0,1,8.046,8.045v59.3a8.054,8.054,0,0,1-8.046,8.045Z" fill="#333" fill-rule="evenodd"/>
          <path id="Fill-66" d="M474.978,314.577a11.476,11.476,0,1,0,11.475,11.476,11.489,11.489,0,0,0-11.475-11.476m0,26.1A14.626,14.626,0,1,1,489.6,326.053a14.642,14.642,0,0,1-14.625,14.626" fill="#333" fill-rule="evenodd"/>
          <path id="Fill-67" d="M479.6,326.053a4.62,4.62,0,1,1-4.62-4.621,4.621,4.621,0,0,1,4.62,4.621" fill="#e9d028" fill-rule="evenodd"/>
          <path id="Fill-68" d="M474.978,323.007a3.046,3.046,0,1,0,3.045,3.046,3.049,3.049,0,0,0-3.045-3.046m0,9.242a6.2,6.2,0,1,1,6.2-6.2,6.2,6.2,0,0,1-6.2,6.2" fill="#e9d028" fill-rule="evenodd"/>
          <path id="Fill-69" d="M479.889,327.628h8.139v-3.15h-8.139Z" fill="#333" fill-rule="evenodd"/>
          <path id="Fill-70" d="M474.977,346.813a11.477,11.477,0,1,0,8.114,3.361,11.4,11.4,0,0,0-8.114-3.361m0,26.1a14.625,14.625,0,1,1,10.341-4.283,14.532,14.532,0,0,1-10.341,4.283" fill="#333" fill-rule="evenodd"/>
          <path id="Fill-71" d="M478.245,361.554a4.621,4.621,0,1,1,0-6.534,4.619,4.619,0,0,1,0,6.534" fill="#e9d028" fill-rule="evenodd"/>
          <path id="Fill-72" d="M474.977,355.243a3.044,3.044,0,1,0,2.154.891,3.03,3.03,0,0,0-2.154-.891m0,9.24a6.2,6.2,0,1,1,4.38-1.815,6.154,6.154,0,0,1-4.38,1.815" fill="#333" fill-rule="evenodd"/>
          <path id="Fill-73" d="M483.092,368.631l-5.756-5.756,2.228-2.227,5.755,5.756Z" fill="#333" fill-rule="evenodd"/>
          <path id="Fill-74" d="M538.69,360.507h12.293v-6.47H538.69Z" fill="#3bc1c3" fill-rule="evenodd"/>
          <path id="Fill-75" d="M540.265,358.932h9.144v-3.32h-9.144Zm10.718,3.15H538.69a1.575,1.575,0,0,1-1.575-1.575v-6.47a1.575,1.575,0,0,1,1.575-1.575h12.293a1.575,1.575,0,0,1,1.575,1.575v6.47a1.575,1.575,0,0,1-1.575,1.575Z" fill="#333" fill-rule="evenodd"/>
          <path id="Fill-76" d="M538.69,354.037h12.293V347.57H538.69Z" fill="#3bc1c3" fill-rule="evenodd"/>
          <path id="Fill-77" d="M540.265,352.462h9.144v-3.317h-9.144Zm10.718,3.15H538.69a1.575,1.575,0,0,1-1.575-1.575V347.57a1.575,1.575,0,0,1,1.575-1.575h12.293a1.575,1.575,0,0,1,1.575,1.575v6.467a1.575,1.575,0,0,1-1.575,1.575Z" fill="#333" fill-rule="evenodd"/>
          <path id="Fill-78" d="M538.69,347.924h12.293v-6.47H538.69Z" fill="#3bc1c3" fill-rule="evenodd"/>
          <path id="Fill-79" d="M540.265,346.349h9.144v-3.32h-9.144Zm10.718,3.15H538.69a1.575,1.575,0,0,1-1.575-1.575v-6.47a1.575,1.575,0,0,1,1.575-1.575h12.293a1.575,1.575,0,0,1,1.575,1.575v6.47a1.575,1.575,0,0,1-1.575,1.575Z" fill="#333" fill-rule="evenodd"/>
          <path id="Fill-80" d="M540.265,340.05h9.144v-3.319h-9.144Zm10.718,3.15H538.69a1.575,1.575,0,0,1-1.575-1.575v-6.469a1.575,1.575,0,0,1,1.575-1.575h12.293a1.575,1.575,0,0,1,1.575,1.575v6.469a1.575,1.575,0,0,1-1.575,1.575Z" fill="#333" fill-rule="evenodd"/>
          <path id="Fill-81" d="M540.265,333.525h9.144v-3.319h-9.144Zm10.718,3.149H538.69a1.574,1.574,0,0,1-1.575-1.574v-6.469a1.575,1.575,0,0,1,1.575-1.575h12.293a1.575,1.575,0,0,1,1.575,1.575V335.1a1.574,1.574,0,0,1-1.575,1.574Z" fill="#333" fill-rule="evenodd"/>
          <path id="Fill-82" d="M501.076,315.61a2.243,2.243,0,0,0-2.307,2.169v48.782a2.243,2.243,0,0,0,2.307,2.169h56.292a2.244,2.244,0,0,0,2.307-2.169V317.779a2.244,2.244,0,0,0-2.307-2.169Zm56.292,56.27H501.076a5.4,5.4,0,0,1-5.457-5.319V317.779a5.4,5.4,0,0,1,5.457-5.319h56.292a5.4,5.4,0,0,1,5.458,5.319v48.782a5.4,5.4,0,0,1-5.458,5.319Z" fill="#333" fill-rule="evenodd"/>
          <path id="Fill-83" d="M507.176,359.607l3.262-3.424c2.351-2.469,4.238-4.589,4.238-6.708,0-2.05-1.117-2.865-3.284-2.865a7.56,7.56,0,0,0-3.517,1.142l-.489-2.237a9.7,9.7,0,0,1,4.821-1.3c3.727,0,5.637,1.793,5.637,4.868,0,3.028-2.586,5.73-4.658,7.873l-2,2.05h6.8v2.375H507.176Z" fill="#333" fill-rule="evenodd"/>
          <path id="Fill-84" d="M529.211,356.09c0-2.283-1.28-3.121-3.005-3.121a4.173,4.173,0,0,0-3.051,1.653v.14c0,2.889.885,4.659,3.122,4.659,1.817,0,2.934-1.212,2.934-3.331m-9.107-1.933v-1.212c0-6.358,3.238-8.711,7.29-8.711a8.6,8.6,0,0,1,3.96.955l-.582,2.236a8.183,8.183,0,0,0-3.214-.746c-2.516,0-4.193,1.235-4.426,5.591a6.046,6.046,0,0,1,3.96-1.491,4.737,4.737,0,0,1,5.054,5.078,5.456,5.456,0,0,1-5.8,5.823c-4.1,0-6.242-2.865-6.242-7.523" fill="#333" fill-rule="evenodd"/>
          <path id="Fill-85" d="M556.829,176.5a4.31,4.31,0,0,0-4.3,4.305v77.9a4.309,4.309,0,0,0,4.3,4.3h53.885a4.309,4.309,0,0,0,4.3-4.3v-77.9a4.309,4.309,0,0,0-4.3-4.305Zm53.885,89.656H556.829a7.463,7.463,0,0,1-7.455-7.454v-77.9a7.464,7.464,0,0,1,7.455-7.455h53.885a7.464,7.464,0,0,1,7.455,7.455v77.9a7.463,7.463,0,0,1-7.455,7.454Z" fill="#333" fill-rule="evenodd"/>
          <path id="Fill-86" d="M562.588,219.633h42.367V190.591H562.588Z" fill="#e9d028" fill-rule="evenodd"/>
          <path id="Fill-87" d="M564.163,218.058H603.38V192.166H564.163Zm40.792,3.15H562.588a1.575,1.575,0,0,1-1.575-1.575V190.591a1.575,1.575,0,0,1,1.575-1.575h42.367a1.575,1.575,0,0,1,1.575,1.575v29.042a1.575,1.575,0,0,1-1.575,1.575Z" fill="#333" fill-rule="evenodd"/>
          <path id="Fill-88" d="M564.163,247.35H603.38V221.457H564.163Zm40.792,3.15H562.588a1.575,1.575,0,0,1-1.575-1.575V219.883a1.575,1.575,0,0,1,1.575-1.575h42.367a1.575,1.575,0,0,1,1.575,1.575v29.042a1.575,1.575,0,0,1-1.575,1.575Z" fill="#333" fill-rule="evenodd"/>
          <path id="Fill-89" d="M594.769,213.587h3.283V196.638h-3.283Z" fill="#fff" fill-rule="evenodd"/>
          <path id="Fill-90" d="M594.769,242.879h3.283v-16.95h-3.283Z" fill="#bcbcbc" fill-rule="evenodd"/>
          <path id="Fill-91" d="M509.636,211.425h3.15v-7.56h-3.15Zm0,15.12h3.15v-7.56h-3.15Zm0,15.12h3.15V234.1h-3.15Zm0,15.12h3.15v-7.56h-3.15Zm0,15.12h3.15v-7.56h-3.15Zm0,15.12h3.15v-7.56h-3.15Zm0,15.12h3.15v-7.56h-3.15Z" fill="#333" fill-rule="evenodd"/>
          <path id="Fill-92" d="M52.659,178.921c-11.005,0-18.993,8.8-18.993,20.931v12.8c0,11.709,7.632,19.576,18.993,19.576h4.935c11.36,0,18.993-7.867,18.993-19.576v-12.8c0-12.128-7.987-20.931-18.993-20.931Zm4.935,56.454H52.659c-13.244,0-22.143-9.133-22.143-22.726v-12.8c0-13.953,9.312-24.081,22.143-24.081h4.935c12.831,0,22.143,10.128,22.143,24.081v12.8c0,13.593-8.9,22.726-22.143,22.726Z" fill="#333" fill-rule="evenodd"/>
          <path id="Fill-93" d="M68.307,200.013a13.181,13.181,0,1,1-13.181-13.182,13.18,13.18,0,0,1,13.181,13.182" fill="#e9d028" fill-rule="evenodd"/>
          <path id="Fill-94" d="M55.126,188.406a11.606,11.606,0,1,0,11.606,11.608,11.62,11.62,0,0,0-11.606-11.608m0,26.363a14.757,14.757,0,1,1,14.756-14.755,14.772,14.772,0,0,1-14.756,14.755" fill="#333" fill-rule="evenodd"/>
          <path id="Fill-95" d="M62.718,200.013a7.592,7.592,0,1,1-7.593-7.592,7.593,7.593,0,0,1,7.593,7.592" fill="#333" fill-rule="evenodd"/>
          <path id="Fill-96" d="M84.086,256.036H26.167a9.2,9.2,0,0,1-8.808-7.565l-4.538-29.7a6.832,6.832,0,0,1,6.906-8.041h12.7v3.15h-12.7a3.688,3.688,0,0,0-3.792,4.415l4.538,29.705a6.031,6.031,0,0,0,5.694,4.891H84.086a6.03,6.03,0,0,0,5.695-4.891l4.538-29.705a3.687,3.687,0,0,0-3.791-4.415H79.046v-3.15h11.48a6.832,6.832,0,0,1,6.905,8.041l-4.538,29.7a9.2,9.2,0,0,1-8.808,7.565" fill="#333" fill-rule="evenodd"/>
          <path id="Fill-97" d="M63.943,247.814h19.41v-4.322H63.943Z" fill="#bcbcbc" fill-rule="evenodd"/>
          <path id="Fill-98" d="M525.89,74.3a4.767,4.767,0,1,0,4.554,3.37,4.78,4.78,0,0,0-4.554-3.37m0,12.684a7.919,7.919,0,1,1,2.326-.35,7.874,7.874,0,0,1-2.326.35" fill="#333" fill-rule="evenodd"/>
          <path id="Fill-99" d="M537.155,60.095a2.925,2.925,0,1,0,2.8,2.067,2.925,2.925,0,0,0-2.8-2.067m0,9a6.079,6.079,0,1,1,1.785-.269,6.044,6.044,0,0,1-1.785.269" fill="#333" fill-rule="evenodd"/>
          <path id="Fill-100" d="M13.192,160.5h3.15v-7.74h-3.15Z" fill="#333" fill-rule="evenodd"/>
          <path id="Fill-101" d="M13.192,184.288h3.15v-7.739h-3.15Z" fill="#333" fill-rule="evenodd"/>
          <path id="Fill-102" d="M27.279,178.241l-6.554-4.114,1.674-2.668,6.554,4.114Z" fill="#333" fill-rule="evenodd"/>
          <path id="Fill-103" d="M7.135,165.592.58,161.479l1.674-2.669,6.556,4.114Z" fill="#333" fill-rule="evenodd"/>
          <path id="Fill-104" d="M1.427,177.072,0,174.263l6.9-3.506,1.427,2.808Z" fill="#333" fill-rule="evenodd"/>
          <path id="Fill-105" d="M22.633,166.294l-1.428-2.808,6.9-3.508,1.428,2.808Z" fill="#333" fill-rule="evenodd"/>
          <path id="Fill-106" d="M113.434,202.333h3.15v-4.266h-3.15Z" fill="#333" fill-rule="evenodd"/>
          <path id="Fill-107" d="M113.434,215.449h3.15v-4.267h-3.15Z" fill="#333" fill-rule="evenodd"/>
          <path id="Fill-108" d="M121.532,212.713l-3.613-2.269,1.674-2.668,3.614,2.27Z" fill="#333" fill-rule="evenodd"/>
          <path id="Fill-109" d="M110.426,205.739l-3.615-2.269,1.674-2.668,3.615,2.269Z" fill="#333" fill-rule="evenodd"/>
          <path id="Fill-110" d="M107.975,212.1l-1.428-2.808,3.805-1.933,1.428,2.808Z" fill="#333" fill-rule="evenodd"/>
          <path id="Fill-111" d="M119.667,206.158l-1.428-2.808,3.805-1.935,1.428,2.808Z" fill="#333" fill-rule="evenodd"/>
          <path id="Fill-112" d="M185.64,404.258h15.45v-15.45H185.64Z" fill="#bcbcbc" fill-rule="evenodd"/>
          <path id="Fill-113" d="M169.784,386.272H183.1v-13.32H169.784Z" fill="#bcbcbc" fill-rule="evenodd"/>
          <path id="Fill-114" d="M447.355,234.625h15.451V219.174H447.355Z" fill="#bcbcbc" fill-rule="evenodd"/>
          <path id="Fill-115" d="M431.5,216.639h13.319v-13.32H431.5Z" fill="#bcbcbc" fill-rule="evenodd"/>
          <path id="Fill-116" d="M146.127,101.986H161.58V86.535H146.127Z" fill="#bcbcbc" fill-rule="evenodd"/>
          <path id="Fill-117" d="M163.462,83.6h15.45V68.147h-15.45Z" fill="#bcbcbc" fill-rule="evenodd"/>
          <path id="Fill-118" d="M148.26,65.671h13.32V52.352H148.26Z" fill="#bcbcbc" fill-rule="evenodd"/>
          <path id="Fill-119" d="M432.616,250.368h13.319V237.049H432.616Z" fill="#bcbcbc" fill-rule="evenodd"/>
          <path id="Fill-120" d="M34.326,295.354h3.15V279.746h-3.15Z" fill="#333" fill-rule="evenodd"/>
          <path id="Fill-121" d="M28.1,289.125H43.706v-3.15H28.1Z" fill="#333" fill-rule="evenodd"/>
          <path id="Fill-122" d="M477.268,272.409l-2.227-2.227,5.249-5.248,2.227,2.227Z" fill="#333" fill-rule="evenodd"/>
          <path id="Fill-123" d="M480.29,282.284l-5.248-5.248,2.228-2.227,5.247,5.248Z" fill="#333" fill-rule="evenodd"/>
          <path id="Fill-124" d="M470.88,272.409l-5.247-5.248,2.227-2.227,5.247,5.248Z" fill="#333" fill-rule="evenodd"/>
          <path id="Fill-125" d="M467.86,282.284l-2.227-2.227,5.247-5.247,2.227,2.227Z" fill="#333" fill-rule="evenodd"/>
          <path id="Fill-126" d="M110.736,16.842l-1.309-2.865a8.97,8.97,0,0,1,3.753-.815l.229,0c.158,0,.316.012.473.024l-.237,3.141c-.1-.007-.207-.013-.311-.015l-.154,0a5.834,5.834,0,0,0-2.444.53Zm11.241,7.473-3.063-.733a5.973,5.973,0,0,0,.161-1.231l0-.151a5.806,5.806,0,0,0-.668-2.721l2.791-1.461a9.049,9.049,0,0,1,1.027,4.182l0,.229a9.044,9.044,0,0,1-.246,1.887ZM104.77,25.522a8.983,8.983,0,0,1-.629-3.313l0-.229a9.085,9.085,0,0,1,.073-.95l3.123.406a6.02,6.02,0,0,0-.047.62l0,.153a5.865,5.865,0,0,0,.408,2.156Zm8.415,5.725-.228,0a9.081,9.081,0,0,1-1.42-.147l.571-3.1a5.923,5.923,0,0,0,.928.1l.149,0a5.879,5.879,0,0,0,1.868-.3l1,2.987a9.009,9.009,0,0,1-2.868.466Z" fill="#333" fill-rule="evenodd"/>
          <path id="Fill-127" d="M29.476,81.292l-1.127-2.941a13.049,13.049,0,0,1,4.191-.855l.118,3.147a9.925,9.925,0,0,0-3.183.649Zm10.581,2.221A9.982,9.982,0,0,0,37.4,81.635L38.782,78.8a13.1,13.1,0,0,1,3.488,2.469ZM23.8,86.839l-2.916-1.192a13.084,13.084,0,0,1,2.243-3.64L25.5,84.074a9.966,9.966,0,0,0-1.7,2.765ZM46.175,90.95l-3.149-.079c0-.086,0-.171,0-.256a9.967,9.967,0,0,0-.449-2.964l3.008-.936a13.112,13.112,0,0,1,.591,3.9q0,.166,0,.335ZM21.1,96.085a13.028,13.028,0,0,1-1.12-4.128l3.134-.316a9.907,9.907,0,0,0,.851,3.133Zm22.878,1.823-2.62-1.75A9.875,9.875,0,0,0,42.693,93.2l3.045.81a13.054,13.054,0,0,1-1.763,3.9Zm-15.12,5.164a13.081,13.081,0,0,1-3.777-2.007l1.912-2.5a9.933,9.933,0,0,0,2.868,1.525Zm6.354.506-.516-3.108a9.911,9.911,0,0,0,3.073-1.049l1.491,2.774a13.061,13.061,0,0,1-4.048,1.383Z" fill="#333" fill-rule="evenodd"/>
          <path id="Fill-128" d="M99.085,235.5H102.9v-3.15H99.085Z" fill="#333" fill-rule="evenodd"/>
          <path id="Fill-129" d="M111.051,235.5H119.2v-3.15h-8.153Zm16.306,0h8.153v-3.15h-8.153Zm16.306,0h8.154v-3.15h-8.154Zm16.308,0h8.153v-3.15h-8.153Zm16.306,0h8.153v-3.15h-8.153Zm16.306,0h8.154v-3.15h-8.154Z" fill="#333" fill-rule="evenodd"/>
          <path id="Fill-130" d="M208.89,235.5H212.7v-3.15H208.89Z" fill="#333" fill-rule="evenodd"/>
        </g>
      </g>
    </g>
  </g>
</svg>
