<?xml version="1.0" encoding="utf-8"?>
<!-- Generator: Adobe Illustrator 23.0.3, SVG Export Plug-In . SVG Version: 6.00 Build 0)  -->
<svg version="1.1" xmlns="http://www.w3.org/2000/svg" xmlns:xlink="http://www.w3.org/1999/xlink" x="0px" y="0px"
	 viewBox="0 0 1920 1223.6" style="enable-background:new 0 0 1920 1223.6;" xml:space="preserve">
<style type="text/css">
	.st0{display:none;fill:#617887;}
	.st1{display:none;opacity:3.000000e-02;fill:url(#SVGID_1_);enable-background:new    ;}
	.st2{display:none;opacity:3.000000e-02;fill:url(#SVGID_2_);enable-background:new    ;}
	.st3{opacity:0.8;}
	
		.st4{opacity:3.000000e-02;fill:url(#SVGID_3_);stroke:url(#SVGID_4_);stroke-width:2;stroke-miterlimit:10;enable-background:new    ;}
	
		.st5{opacity:3.000000e-02;fill:url(#SVGID_5_);stroke:url(#SVGID_6_);stroke-width:2;stroke-miterlimit:10;enable-background:new    ;}
	
		.st6{opacity:3.000000e-02;fill:url(#SVGID_7_);stroke:url(#SVGID_8_);stroke-width:2;stroke-miterlimit:10;enable-background:new    ;}
	
		.st7{opacity:3.000000e-02;fill:url(#SVGID_9_);stroke:url(#SVGID_10_);stroke-width:2;stroke-miterlimit:10;enable-background:new    ;}
	.st8{fill:#FF0000;}
	.st9{display:none;}
	.st10{display:inline;}
	.st11{display:inline;fill:none;stroke:#3CA5FB;stroke-width:2;stroke-miterlimit:10;}
</style>
<g id="Layer_1">
	<title>pattern2</title>
	<rect x="-366" y="-217.6" class="st0" width="2906.8" height="1964.7"/>
	<linearGradient id="SVGID_1_" gradientUnits="userSpaceOnUse" x1="1.139861e-07" y1="757.9399" x2="1920" y2="757.9399">
		<stop  offset="0" style="stop-color:#FFFFFF"/>
		<stop  offset="1" style="stop-color:#000000"/>
	</linearGradient>
	<path class="st1" d="M1920,292.5c0,0-215.6-18.5-273,319.3c-57.4,337.8-397.5,517.2-696.3,404.6c-301.5-113.6-655.1-34-901.1,166.9
		c-9.2,7.5-38.5,40.3-49.6,40.3c0,0,1920,0,1920,0V292.5z"/>
	<linearGradient id="SVGID_2_" gradientUnits="userSpaceOnUse" x1="1.139861e-07" y1="297.1714" x2="1172.2084" y2="297.1714">
		<stop  offset="0" style="stop-color:#FFFFFF"/>
		<stop  offset="1" style="stop-color:#000000"/>
	</linearGradient>
	<path class="st2" d="M0,338.5c0,0,100.5-204.5,325.7-101.1c193.7,88.9,322.4,297,536,349.5c261.2,64.3,398.8-304.3,248-482.7
		c-2.1-2.5-4.3-5-6.5-7.4c-24.5-27.1-52.6-51.1-82.7-71.9c-8.3-5.7-29.1-24.8-40-24.8C980.6,0,0,0,0,0V338.5z"/>
	<g>
		<g class="st3">
			
				<linearGradient id="SVGID_3_" gradientUnits="userSpaceOnUse" x1="1122.7822" y1="-151.0998" x2="1058.7822" y2="512.9002" gradientTransform="matrix(1 0 0 -1 0 1224)">
				<stop  offset="0" style="stop-color:#FFFFFF"/>
				<stop  offset="1" style="stop-color:#000000"/>
			</linearGradient>
			<linearGradient id="SVGID_4_" gradientUnits="userSpaceOnUse" x1="569.0558" y1="977.9969" x2="1647.6196" y2="977.9969">
				<stop  offset="0" style="stop-color:#FFFFFF"/>
				<stop  offset="0.7" style="stop-color:#3CA5FB"/>
			</linearGradient>
			<polygon class="st4" points="1644.9,1223.6 1062.2,732.8 571.5,1223.6 			"/>
			
				<linearGradient id="SVGID_5_" gradientUnits="userSpaceOnUse" x1="2638.0818" y1="-120.9598" x2="2582.6016" y2="454.6902" gradientTransform="matrix(-1 0 0 1 3429.9399 -4.45)">
				<stop  offset="0" style="stop-color:#FFFFFF"/>
				<stop  offset="1" style="stop-color:#000000"/>
			</linearGradient>
			<linearGradient id="SVGID_6_" gradientUnits="userSpaceOnUse" x1="398.8053" y1="216.2339" x2="1208.8164" y2="216.2339">
				<stop  offset="0" style="stop-color:#FFFFFF"/>
				<stop  offset="0.7" style="stop-color:#3CA5FB"/>
			</linearGradient>
			<polygon class="st5" points="401.2,0 838.4,432 1206.7,0 			"/>
			
				<linearGradient id="SVGID_7_" gradientUnits="userSpaceOnUse" x1="1631.0129" y1="-173.7798" x2="1599.783" y2="150.2202" gradientTransform="matrix(6.123234e-17 -1 -1 -6.123234e-17 1820.1699 1885.77)">
				<stop  offset="0" style="stop-color:#FFFFFF"/>
				<stop  offset="1" style="stop-color:#000000"/>
			</linearGradient>
			<linearGradient id="SVGID_8_" gradientUnits="userSpaceOnUse" x1="1679.1838" y1="261.7223" x2="1921" y2="261.7223">
				<stop  offset="0" style="stop-color:#FFFFFF"/>
				<stop  offset="0.7" style="stop-color:#3CA5FB"/>
			</linearGradient>
			<polygon class="st6" points="1920,0 1680.5,284.3 1920,523.8 			"/>
			<linearGradient id="SVGID_9_" gradientUnits="userSpaceOnUse" x1="637.5507" y1="42.6733" x2="398.572" y2="483.8648">
				<stop  offset="0.2057" style="stop-color:#FFFFFF"/>
				<stop  offset="0.3815" style="stop-color:#B3B3B3"/>
				<stop  offset="0.5471" style="stop-color:#737373"/>
				<stop  offset="0.6964" style="stop-color:#424242"/>
				<stop  offset="0.8263" style="stop-color:#1E1E1E"/>
				<stop  offset="0.9319" style="stop-color:#080808"/>
				<stop  offset="1" style="stop-color:#000000"/>
			</linearGradient>
			<linearGradient id="SVGID_10_" gradientUnits="userSpaceOnUse" x1="279.77" y1="218.41" x2="804.95" y2="218.41">
				<stop  offset="0" style="stop-color:#FFFFFF"/>
				<stop  offset="0.7" style="stop-color:#3CA5FB"/>
			</linearGradient>
			<circle class="st7" cx="542.4" cy="218.4" r="261.6"/>
		</g>
		<g>
			<circle class="st8" cx="58.3" cy="527.5" r="1.4"/>
			<circle class="st8" cx="81.1" cy="527.5" r="1.4"/>
			<circle class="st8" cx="104" cy="527.5" r="1.4"/>
			<circle class="st8" cx="126.8" cy="527.5" r="1.4"/>
			<circle class="st8" cx="58.3" cy="550.4" r="1.4"/>
			<circle class="st8" cx="81.1" cy="550.4" r="1.4"/>
			<circle class="st8" cx="104" cy="550.4" r="1.4"/>
			<circle class="st8" cx="126.8" cy="550.4" r="1.4"/>
			<circle class="st8" cx="58.3" cy="573.2" r="1.4"/>
			<circle class="st8" cx="81.1" cy="573.2" r="1.4"/>
			<circle class="st8" cx="104" cy="573.2" r="1.4"/>
			<circle class="st8" cx="126.8" cy="573.2" r="1.4"/>
			<circle class="st8" cx="58.3" cy="596" r="1.4"/>
			<circle class="st8" cx="81.1" cy="596" r="1.4"/>
			<circle class="st8" cx="104" cy="596" r="1.4"/>
			<circle class="st8" cx="126.8" cy="596" r="1.4"/>
			<circle class="st8" cx="149.6" cy="527.5" r="1.4"/>
			<circle class="st8" cx="149.6" cy="550.4" r="1.4"/>
			<circle class="st8" cx="149.6" cy="573.2" r="1.4"/>
			<circle class="st8" cx="149.6" cy="596" r="1.4"/>
			<circle class="st8" cx="58.3" cy="618.9" r="1.4"/>
			<circle class="st8" cx="81.1" cy="618.9" r="1.4"/>
			<circle class="st8" cx="104" cy="618.9" r="1.4"/>
			<circle class="st8" cx="126.8" cy="618.9" r="1.4"/>
			<circle class="st8" cx="149.6" cy="618.9" r="1.4"/>
		</g>
		<g>
			<circle class="st8" cx="1777.7" cy="872.6" r="1.4"/>
			<circle class="st8" cx="1777.7" cy="895.4" r="1.4"/>
			<circle class="st8" cx="1800.5" cy="872.6" r="1.4"/>
			<circle class="st8" cx="1800.5" cy="895.4" r="1.4"/>
		</g>
	</g>
</g>
<g id="Layer_2" class="st9">
	<g class="st10">
		<defs>
			<polygon id="SVGID_11_" points="4098.8,1172.6 3830,1039.3 3581.8,841.7 3441.6,444.2 3237.1,53.5 3204.9,0 2821.8,0 
				2821.8,343.1 2892.4,483.2 3060.2,839.4 3198,1025.5 3324.4,1117.4 3310.6,1223.6 4098.8,1223.6 			"/>
		</defs>
		<clipPath id="SVGID_12_">
			<use xlink:href="#SVGID_11_"  style="overflow:visible;"/>
		</clipPath>
		<g transform="matrix(1 2.980232e-08 -2.980232e-08 1 0 0)" style="clip-path:url(#SVGID_12_);">
			
				<image style="overflow:visible;" width="1500" height="1153" xlink:href="F60A9BF9.jpg"  transform="matrix(0.5475 1.0483 -1.0483 0.5475 3694.0405 -578.7574)">
			</image>
		</g>
	</g>
	<path class="st11" d="M10.9,0c97.2,77.9,205.4,133.9,308.8,202.1c51.9,34.3,108.3,85.3,114.7,151c7.2,74.2-18,150.4-36.3,221.4
		c-14.2,55.4-22.5,115.7-0.6,168.6c34.2,82.4,127.3,124.5,198.6,168.6c73.1,45.1,148.9,85.8,221.4,132
		c66.3,42.3,120,97.3,127.9,179.9"/>
	<path class="st11" d="M10.9,0c89.6,88,183.5,133.9,286.9,202.1c51.9,34.3,108.3,85.3,114.7,151c7.2,74.2-18,150.4-36.3,221.4
		c-14.2,55.4-22.5,115.7-0.6,168.6c34.2,82.4,127.3,124.5,198.6,168.6c73.1,45.1,148.9,85.8,221.4,132
		c66.3,42.3,123.7,98.4,149.8,179.9"/>
	<path class="st11" d="M10.9,0c86.6,107.1,164,141.6,267.3,209.8c51.9,34.3,115,77.6,121.3,143.3c7.2,74.2-18,150.4-36.3,221.4
		c-14.2,55.4-22.5,115.7-0.6,168.6c34.2,82.4,127.3,124.5,198.6,168.6c73.1,45.1,138.5,91.4,211,137.6
		c66.3,42.3,147,92.7,173.1,174.3"/>
</g>
</svg>
