<?xml version="1.0" encoding="utf-8"?>
<!-- Generator: Adobe Illustrator 23.0.3, SVG Export Plug-In . SVG Version: 6.00 Build 0)  -->
<svg version="1.1" id="Layer_1" xmlns="http://www.w3.org/2000/svg" xmlns:xlink="http://www.w3.org/1999/xlink" x="0px" y="0px"
	 viewBox="0 0 1920 1223.6" style="enable-background:new 0 0 1920 1223.6;" xml:space="preserve">
<style type="text/css">
	.st0{opacity:3.000000e-02;fill:url(#SVGID_1_);enable-background:new    ;}
	.st1{opacity:3.000000e-02;fill:url(#SVGID_2_);enable-background:new    ;}
	.st2{opacity:3.000000e-02;fill:url(#SVGID_3_);enable-background:new    ;}
	.st3{opacity:3.000000e-02;fill:url(#SVGID_4_);enable-background:new    ;}
	.st4{opacity:3.000000e-02;fill:url(#SVGID_5_);enable-background:new    ;}
	.st5{fill:#FF0000;}
	.st6{fill:#3CA5FB;}
</style>
<title>pattern1</title>
<g id="Layer_2_1_">
	<g id="Layer_1-2">
		
			<linearGradient id="SVGID_1_" gradientUnits="userSpaceOnUse" x1="1122.8022" y1="1231.0979" x2="1058.8022" y2="567.0978" gradientTransform="matrix(1 0 0 1 0 144)">
			<stop  offset="0" style="stop-color:#FFFFFF"/>
			<stop  offset="1" style="stop-color:#000000"/>
		</linearGradient>
		<polygon class="st0" points="1644.9,1223.6 1062.2,732.8 571.5,1223.6 		"/>
		
			<linearGradient id="SVGID_2_" gradientUnits="userSpaceOnUse" x1="1236.9218" y1="542.5901" x2="1604.9218" y2="984.5901" gradientTransform="matrix(1 0 0 -1 0 1224)">
			<stop  offset="0" style="stop-color:#FFFFFF"/>
			<stop  offset="1" style="stop-color:#000000"/>
		</linearGradient>
		<circle class="st1" cx="1472.3" cy="398.7" r="261.6"/>
		
			<linearGradient id="SVGID_3_" gradientUnits="userSpaceOnUse" x1="358.9999" y1="1273.03" x2="215.66" y2="-214.12" gradientTransform="matrix(1 0 0 1 0 144)">
			<stop  offset="0" style="stop-color:#FFFFFF"/>
			<stop  offset="1" style="stop-color:#000000"/>
		</linearGradient>
		<polygon class="st2" points="14.1,1223.6 622.1,615.5 0,0 0,223.5 0,1223.6 		"/>
		
			<linearGradient id="SVGID_4_" gradientUnits="userSpaceOnUse" x1="1606.6749" y1="1045.2996" x2="1540.6649" y2="360.4096" gradientTransform="matrix(-1 0 0 1 3362.1001 -274.28)">
			<stop  offset="0" style="stop-color:#FFFFFF"/>
			<stop  offset="1" style="stop-color:#000000"/>
		</linearGradient>
		<polygon class="st3" points="1913.5,681.8 1634.9,403.2 1919.8,118.3 1920,223.6 1920,681.8 		"/>
		
			<linearGradient id="SVGID_5_" gradientUnits="userSpaceOnUse" x1="427.3108" y1="609.7598" x2="692.8008" y2="425.2698" gradientTransform="matrix(1 0 0 1 0 144)">
			<stop  offset="0" style="stop-color:#FFFFFF"/>
			<stop  offset="1" style="stop-color:#000000"/>
		</linearGradient>
		<circle class="st4" cx="622.1" cy="618.4" r="165.7"/>
	</g>
</g>
<g>
	<circle class="st5" cx="1724.4" cy="704.7" r="1.4"/>
	<circle class="st5" cx="1747.2" cy="704.7" r="1.4"/>
	<circle class="st5" cx="1770" cy="704.7" r="1.4"/>
	<circle class="st5" cx="1792.9" cy="704.7" r="1.4"/>
	<circle class="st5" cx="1724.4" cy="727.5" r="1.4"/>
	<circle class="st5" cx="1747.2" cy="727.5" r="1.4"/>
	<circle class="st5" cx="1770" cy="727.5" r="1.4"/>
	<circle class="st5" cx="1792.9" cy="727.5" r="1.4"/>
	<circle class="st5" cx="1724.4" cy="750.4" r="1.4"/>
	<circle class="st5" cx="1747.2" cy="750.4" r="1.4"/>
	<circle class="st5" cx="1770" cy="750.4" r="1.4"/>
	<circle class="st5" cx="1792.9" cy="750.4" r="1.4"/>
	<circle class="st5" cx="1724.4" cy="773.2" r="1.4"/>
	<circle class="st5" cx="1747.2" cy="773.2" r="1.4"/>
	<circle class="st5" cx="1770" cy="773.2" r="1.4"/>
	<circle class="st5" cx="1792.9" cy="773.2" r="1.4"/>
	<circle class="st5" cx="1815.7" cy="704.7" r="1.4"/>
	<circle class="st5" cx="1815.7" cy="727.5" r="1.4"/>
	<circle class="st5" cx="1815.7" cy="750.4" r="1.4"/>
	<circle class="st5" cx="1815.7" cy="773.2" r="1.4"/>
	<circle class="st5" cx="1724.4" cy="796" r="1.4"/>
	<circle class="st5" cx="1747.2" cy="796" r="1.4"/>
	<circle class="st5" cx="1770" cy="796" r="1.4"/>
	<circle class="st5" cx="1792.9" cy="796" r="1.4"/>
	<circle class="st5" cx="1815.7" cy="796" r="1.4"/>
</g>
<g>
	<circle class="st6" cx="122.9" cy="149.7" r="1.4"/>
	<circle class="st6" cx="145.7" cy="149.7" r="1.4"/>
	<circle class="st6" cx="168.5" cy="149.7" r="1.4"/>
	<circle class="st6" cx="191.4" cy="149.7" r="1.4"/>
	<circle class="st6" cx="122.9" cy="172.6" r="1.4"/>
	<circle class="st6" cx="145.7" cy="172.6" r="1.4"/>
	<circle class="st6" cx="168.5" cy="172.6" r="1.4"/>
	<circle class="st6" cx="191.4" cy="172.6" r="1.4"/>
	<circle class="st6" cx="122.9" cy="195.4" r="1.4"/>
	<circle class="st6" cx="145.7" cy="195.4" r="1.4"/>
	<circle class="st6" cx="168.5" cy="195.4" r="1.4"/>
	<circle class="st6" cx="191.4" cy="195.4" r="1.4"/>
	<circle class="st6" cx="122.9" cy="218.2" r="1.4"/>
	<circle class="st6" cx="145.7" cy="218.2" r="1.4"/>
	<circle class="st6" cx="168.5" cy="218.2" r="1.4"/>
	<circle class="st6" cx="191.4" cy="218.2" r="1.4"/>
	<circle class="st6" cx="214.2" cy="149.7" r="1.4"/>
	<circle class="st6" cx="214.2" cy="172.6" r="1.4"/>
	<circle class="st6" cx="214.2" cy="195.4" r="1.4"/>
	<circle class="st6" cx="214.2" cy="218.2" r="1.4"/>
	<circle class="st6" cx="122.9" cy="241.1" r="1.4"/>
	<circle class="st6" cx="145.7" cy="241.1" r="1.4"/>
	<circle class="st6" cx="168.5" cy="241.1" r="1.4"/>
	<circle class="st6" cx="191.4" cy="241.1" r="1.4"/>
	<circle class="st6" cx="214.2" cy="241.1" r="1.4"/>
</g>
<g>
	<circle class="st5" cx="103" cy="917.8" r="1.4"/>
	<circle class="st5" cx="103" cy="940.6" r="1.4"/>
	<circle class="st5" cx="125.8" cy="917.8" r="1.4"/>
	<circle class="st5" cx="125.8" cy="940.6" r="1.4"/>
</g>
<g>
	<circle class="st6" cx="1623.5" cy="312.4" r="1.4"/>
	<circle class="st6" cx="1623.5" cy="335.3" r="1.4"/>
	<circle class="st6" cx="1646.3" cy="312.4" r="1.4"/>
	<circle class="st6" cx="1646.3" cy="335.3" r="1.4"/>
</g>
</svg>
