<svg xmlns="http://www.w3.org/2000/svg" xmlns:xlink="http://www.w3.org/1999/xlink" width="28" height="17" viewBox="0 0 28 17">
  <defs>
    <clipPath id="clip-path">
      <rect id="Rectangle_43" data-name="Rectangle 43" width="28" height="17" rx="3" transform="translate(637 415)" fill="#f10303"/>
    </clipPath>
  </defs>
  <g id="Mask_Group_2" data-name="Mask Group 2" transform="translate(-637 -415)" clip-path="url(#clip-path)">
    <g id="united-states" transform="translate(638.026 410.526)">
      <path id="Path_27" data-name="Path 27" d="M24,4.474H1.943A1.943,1.943,0,0,0,0,6.417V19.53a1.943,1.943,0,0,0,1.943,1.943H24a1.943,1.943,0,0,0,1.943-1.943V6.417A1.943,1.943,0,0,0,24,4.474Z" fill="#f5f5f5"/>
      <g id="Group_3" data-name="Group 3">
        <path id="Path_28" data-name="Path 28" d="M.107,5.781H25.84A1.944,1.944,0,0,0,24,4.474H1.943A1.944,1.944,0,0,0,.107,5.781Z" fill="#ff4b55"/>
        <rect id="Rectangle_46" data-name="Rectangle 46" width="25.947" height="1.308" transform="translate(0 9.704)" fill="#ff4b55"/>
        <rect id="Rectangle_47" data-name="Rectangle 47" width="25.947" height="1.308" transform="translate(0 7.089)" fill="#ff4b55"/>
        <path id="Path_29" data-name="Path 29" d="M0,13.18a.447.447,0,0,0,.447.447h25.5V12.32H0Z" fill="#ff4b55"/>
        <rect id="Rectangle_48" data-name="Rectangle 48" width="25.947" height="1.308" transform="translate(0 17.551)" fill="#ff4b55"/>
        <path id="Path_30" data-name="Path 30" d="M25.84,20.166H.107a1.944,1.944,0,0,0,1.836,1.308H24A1.944,1.944,0,0,0,25.84,20.166Z" fill="#ff4b55"/>
        <rect id="Rectangle_49" data-name="Rectangle 49" width="25.947" height="1.308" transform="translate(0 14.935)" fill="#ff4b55"/>
      </g>
      <path id="Path_31" data-name="Path 31" d="M.447,13.627H11.632a.447.447,0,0,0,.447-.447V4.921a.447.447,0,0,0-.447-.447H1.943A1.943,1.943,0,0,0,0,6.417V13.18A.447.447,0,0,0,.447,13.627Z" fill="#41479b"/>
      <g id="Group_4" data-name="Group 4">
        <path id="Path_32" data-name="Path 32" d="M1.256,5.5l.1.3.313,0a.042.042,0,0,1,.025.076l-.252.186.094.3a.042.042,0,0,1-.065.047l-.255-.182-.255.182A.042.042,0,0,1,.9,6.36l.094-.3L.739,5.876A.042.042,0,0,1,.764,5.8l.313,0,.1-.3A.042.042,0,0,1,1.256,5.5Z" fill="#f5f5f5"/>
        <path id="Path_33" data-name="Path 33" d="M1.256,7.054l.1.3.313,0a.042.042,0,0,1,.025.076l-.252.186.094.3a.042.042,0,0,1-.065.047l-.255-.182-.255.182A.042.042,0,0,1,.9,7.914l.094-.3L.739,7.429a.042.042,0,0,1,.025-.076l.313,0,.1-.3A.042.042,0,0,1,1.256,7.054Z" fill="#f5f5f5"/>
        <path id="Path_34" data-name="Path 34" d="M1.256,8.607l.1.3.313,0a.042.042,0,0,1,.025.076l-.252.186.094.3a.042.042,0,0,1-.065.047l-.255-.182-.255.182A.042.042,0,0,1,.9,9.467l.094-.3L.739,8.983a.042.042,0,0,1,.025-.076l.313,0,.1-.3A.042.042,0,0,1,1.256,8.607Z" fill="#f5f5f5"/>
        <path id="Path_35" data-name="Path 35" d="M1.256,10.161l.1.3.313,0a.042.042,0,0,1,.025.076l-.252.186.094.3a.042.042,0,0,1-.065.047l-.255-.182-.255.182A.042.042,0,0,1,.9,11.021l.094-.3-.252-.186a.042.042,0,0,1,.025-.076l.313,0,.1-.3A.042.042,0,0,1,1.256,10.161Z" fill="#f5f5f5"/>
        <path id="Path_36" data-name="Path 36" d="M1.256,11.714l.1.3.313,0a.042.042,0,0,1,.025.076l-.252.186.094.3a.042.042,0,0,1-.065.047l-.255-.182-.255.182A.042.042,0,0,1,.9,12.574l.094-.3L.739,12.09a.042.042,0,0,1,.025-.076l.313,0,.1-.3A.042.042,0,0,1,1.256,11.714Z" fill="#f5f5f5"/>
        <path id="Path_37" data-name="Path 37" d="M2.462,6.262l.1.3.313,0a.042.042,0,0,1,.025.076l-.252.186.094.3a.042.042,0,0,1-.065.047l-.255-.182-.255.182A.042.042,0,0,1,2.1,7.122l.094-.3-.252-.186a.042.042,0,0,1,.025-.076l.313,0,.1-.3A.042.042,0,0,1,2.462,6.262Z" fill="#f5f5f5"/>
        <path id="Path_38" data-name="Path 38" d="M2.462,7.816l.1.3.313,0a.042.042,0,0,1,.025.076l-.252.186.094.3a.042.042,0,0,1-.065.047l-.255-.182-.255.182A.042.042,0,0,1,2.1,8.676l.094-.3-.252-.186a.042.042,0,0,1,.025-.076l.313,0,.1-.3A.042.042,0,0,1,2.462,7.816Z" fill="#f5f5f5"/>
        <path id="Path_39" data-name="Path 39" d="M2.462,9.369l.1.3.313,0a.042.042,0,0,1,.025.076l-.252.186.094.3a.042.042,0,0,1-.065.047l-.255-.182-.255.182a.042.042,0,0,1-.065-.047l.094-.3-.252-.186a.042.042,0,0,1,.025-.076l.313,0,.1-.3A.042.042,0,0,1,2.462,9.369Z" fill="#f5f5f5"/>
        <path id="Path_40" data-name="Path 40" d="M2.462,10.923l.1.3.313,0A.042.042,0,0,1,2.9,11.3l-.252.186.094.3a.042.042,0,0,1-.065.047l-.255-.182-.255.182a.042.042,0,0,1-.065-.047l.094-.3L1.945,11.3a.042.042,0,0,1,.025-.076l.313,0,.1-.3A.042.042,0,0,1,2.462,10.923Z" fill="#f5f5f5"/>
        <path id="Path_41" data-name="Path 41" d="M3.668,5.5l.1.3.313,0a.042.042,0,0,1,.025.076l-.252.186.094.3a.042.042,0,0,1-.065.047l-.255-.182-.255.182a.042.042,0,0,1-.065-.047l.094-.3-.252-.186A.042.042,0,0,1,3.176,5.8l.313,0,.1-.3A.042.042,0,0,1,3.668,5.5Z" fill="#f5f5f5"/>
        <path id="Path_42" data-name="Path 42" d="M3.668,7.054l.1.3.313,0a.042.042,0,0,1,.025.076l-.252.186.094.3a.042.042,0,0,1-.065.047l-.255-.182-.255.182a.042.042,0,0,1-.065-.047l.094-.3-.252-.186a.042.042,0,0,1,.025-.076l.313,0,.1-.3A.042.042,0,0,1,3.668,7.054Z" fill="#f5f5f5"/>
        <path id="Path_43" data-name="Path 43" d="M3.668,8.607l.1.3.313,0a.042.042,0,0,1,.025.076l-.252.186.094.3a.042.042,0,0,1-.065.047l-.255-.182-.255.182a.042.042,0,0,1-.065-.047l.094-.3-.252-.186a.042.042,0,0,1,.025-.076l.313,0,.1-.3A.042.042,0,0,1,3.668,8.607Z" fill="#f5f5f5"/>
        <path id="Path_44" data-name="Path 44" d="M3.668,10.161l.1.3.313,0a.042.042,0,0,1,.025.076l-.252.186.094.3a.042.042,0,0,1-.065.047l-.255-.182-.255.182a.042.042,0,0,1-.065-.047l.094-.3-.252-.186a.042.042,0,0,1,.025-.076l.313,0,.1-.3A.042.042,0,0,1,3.668,10.161Z" fill="#f5f5f5"/>
        <path id="Path_45" data-name="Path 45" d="M3.668,11.714l.1.3.313,0a.042.042,0,0,1,.025.076l-.252.186.094.3a.042.042,0,0,1-.065.047l-.255-.182-.255.182a.042.042,0,0,1-.065-.047l.094-.3-.252-.186a.042.042,0,0,1,.025-.076l.313,0,.1-.3A.042.042,0,0,1,3.668,11.714Z" fill="#f5f5f5"/>
        <path id="Path_46" data-name="Path 46" d="M4.874,6.262l.1.3.313,0a.042.042,0,0,1,.025.076l-.252.186.094.3a.042.042,0,0,1-.065.047l-.255-.182-.255.182a.042.042,0,0,1-.065-.047l.094-.3-.252-.186a.042.042,0,0,1,.025-.076l.313,0,.1-.3A.042.042,0,0,1,4.874,6.262Z" fill="#f5f5f5"/>
        <path id="Path_47" data-name="Path 47" d="M4.874,7.816l.1.3.313,0a.042.042,0,0,1,.025.076l-.252.186.094.3a.042.042,0,0,1-.065.047l-.255-.182-.255.182a.042.042,0,0,1-.065-.047l.094-.3-.252-.186a.042.042,0,0,1,.025-.076l.313,0,.1-.3A.042.042,0,0,1,4.874,7.816Z" fill="#f5f5f5"/>
        <path id="Path_48" data-name="Path 48" d="M4.874,9.369l.1.3.313,0a.042.042,0,0,1,.025.076l-.252.186.094.3a.042.042,0,0,1-.065.047l-.255-.182-.255.182a.042.042,0,0,1-.065-.047l.094-.3-.252-.186a.042.042,0,0,1,.025-.076l.313,0,.1-.3A.042.042,0,0,1,4.874,9.369Z" fill="#f5f5f5"/>
        <path id="Path_49" data-name="Path 49" d="M4.874,10.923l.1.3.313,0a.042.042,0,0,1,.025.076l-.252.186.094.3a.042.042,0,0,1-.065.047l-.255-.182-.255.182a.042.042,0,0,1-.065-.047l.094-.3L4.357,11.3a.042.042,0,0,1,.025-.076l.313,0,.1-.3A.042.042,0,0,1,4.874,10.923Z" fill="#f5f5f5"/>
        <path id="Path_50" data-name="Path 50" d="M6.079,5.5l.1.3.313,0a.042.042,0,0,1,.025.076l-.252.186.094.3a.042.042,0,0,1-.065.047l-.255-.182-.255.182A.042.042,0,0,1,5.72,6.36l.094-.3-.252-.186A.042.042,0,0,1,5.587,5.8l.313,0L6,5.5A.042.042,0,0,1,6.079,5.5Z" fill="#f5f5f5"/>
        <path id="Path_51" data-name="Path 51" d="M6.079,7.054l.1.3.313,0a.042.042,0,0,1,.025.076l-.252.186.094.3a.042.042,0,0,1-.065.047l-.255-.182-.255.182a.042.042,0,0,1-.065-.047l.094-.3-.252-.186a.042.042,0,0,1,.025-.076l.313,0,.1-.3A.042.042,0,0,1,6.079,7.054Z" fill="#f5f5f5"/>
        <path id="Path_52" data-name="Path 52" d="M6.079,8.607l.1.3.313,0a.042.042,0,0,1,.025.076l-.252.186.094.3a.042.042,0,0,1-.065.047l-.255-.182-.255.182a.042.042,0,0,1-.065-.047l.094-.3-.252-.186a.042.042,0,0,1,.025-.076l.313,0,.1-.3A.042.042,0,0,1,6.079,8.607Z" fill="#f5f5f5"/>
        <path id="Path_53" data-name="Path 53" d="M6.079,10.161l.1.3.313,0a.042.042,0,0,1,.025.076l-.252.186.094.3a.042.042,0,0,1-.065.047l-.255-.182-.255.182a.042.042,0,0,1-.065-.047l.094-.3-.252-.186a.042.042,0,0,1,.025-.076l.313,0,.1-.3A.042.042,0,0,1,6.079,10.161Z" fill="#f5f5f5"/>
        <path id="Path_54" data-name="Path 54" d="M6.079,11.714l.1.3.313,0a.042.042,0,0,1,.025.076l-.252.186.094.3a.042.042,0,0,1-.065.047l-.255-.182-.255.182a.042.042,0,0,1-.065-.047l.094-.3-.252-.186a.042.042,0,0,1,.025-.076l.313,0,.1-.3A.042.042,0,0,1,6.079,11.714Z" fill="#f5f5f5"/>
        <path id="Path_55" data-name="Path 55" d="M7.285,6.262l.1.3.313,0a.042.042,0,0,1,.025.076l-.252.186.094.3a.042.042,0,0,1-.065.047l-.255-.182-.255.182a.042.042,0,0,1-.065-.047l.094-.3-.252-.186a.042.042,0,0,1,.025-.076l.313,0,.1-.3A.042.042,0,0,1,7.285,6.262Z" fill="#f5f5f5"/>
        <path id="Path_56" data-name="Path 56" d="M7.285,7.816l.1.3.313,0a.042.042,0,0,1,.025.076l-.252.186.094.3a.042.042,0,0,1-.065.047l-.255-.182-.255.182a.042.042,0,0,1-.065-.047l.094-.3-.252-.186a.042.042,0,0,1,.025-.076l.313,0,.1-.3A.042.042,0,0,1,7.285,7.816Z" fill="#f5f5f5"/>
        <path id="Path_57" data-name="Path 57" d="M7.285,9.369l.1.3.313,0a.042.042,0,0,1,.025.076l-.252.186.094.3a.042.042,0,0,1-.065.047l-.255-.182-.255.182a.042.042,0,0,1-.065-.047l.094-.3-.252-.186a.042.042,0,0,1,.025-.076l.313,0,.1-.3A.042.042,0,0,1,7.285,9.369Z" fill="#f5f5f5"/>
        <path id="Path_58" data-name="Path 58" d="M7.285,10.923l.1.3.313,0a.042.042,0,0,1,.025.076l-.252.186.094.3a.042.042,0,0,1-.065.047l-.255-.182-.255.182a.042.042,0,0,1-.065-.047l.094-.3L6.768,11.3a.042.042,0,0,1,.025-.076l.313,0,.1-.3A.042.042,0,0,1,7.285,10.923Z" fill="#f5f5f5"/>
        <path id="Path_59" data-name="Path 59" d="M8.491,5.5l.1.3.313,0a.042.042,0,0,1,.025.076l-.252.186.094.3a.042.042,0,0,1-.065.047l-.255-.182L8.2,6.407a.042.042,0,0,1-.065-.047l.094-.3-.252-.186A.042.042,0,0,1,8,5.8l.313,0,.1-.3A.042.042,0,0,1,8.491,5.5Z" fill="#f5f5f5"/>
        <path id="Path_60" data-name="Path 60" d="M8.491,7.054l.1.3.313,0a.042.042,0,0,1,.025.076l-.252.186.094.3a.042.042,0,0,1-.065.047l-.255-.182L8.2,7.961a.042.042,0,0,1-.065-.047l.094-.3-.252-.186A.042.042,0,0,1,8,7.353l.313,0,.1-.3A.042.042,0,0,1,8.491,7.054Z" fill="#f5f5f5"/>
        <path id="Path_61" data-name="Path 61" d="M8.491,8.607l.1.3.313,0a.042.042,0,0,1,.025.076l-.252.186.094.3a.042.042,0,0,1-.065.047l-.255-.182L8.2,9.514a.042.042,0,0,1-.065-.047l.094-.3-.252-.186A.042.042,0,0,1,8,8.907l.313,0,.1-.3A.042.042,0,0,1,8.491,8.607Z" fill="#f5f5f5"/>
        <path id="Path_62" data-name="Path 62" d="M8.491,10.161l.1.3.313,0a.042.042,0,0,1,.025.076l-.252.186.094.3a.042.042,0,0,1-.065.047l-.255-.182-.255.182a.042.042,0,0,1-.065-.047l.094-.3-.252-.186A.042.042,0,0,1,8,10.46l.313,0,.1-.3A.042.042,0,0,1,8.491,10.161Z" fill="#f5f5f5"/>
        <path id="Path_63" data-name="Path 63" d="M8.491,11.714l.1.3.313,0a.042.042,0,0,1,.025.076l-.252.186.094.3a.042.042,0,0,1-.065.047l-.255-.182-.255.182a.042.042,0,0,1-.065-.047l.094-.3-.252-.186A.042.042,0,0,1,8,12.014l.313,0,.1-.3A.042.042,0,0,1,8.491,11.714Z" fill="#f5f5f5"/>
        <path id="Path_64" data-name="Path 64" d="M9.7,6.262l.1.3.313,0a.042.042,0,0,1,.025.076l-.252.186.094.3a.042.042,0,0,1-.065.047l-.255-.182L9.4,7.169a.042.042,0,0,1-.065-.047l.094-.3L9.18,6.638A.042.042,0,0,1,9.2,6.561l.313,0,.1-.3A.042.042,0,0,1,9.7,6.262Z" fill="#f5f5f5"/>
        <path id="Path_65" data-name="Path 65" d="M9.7,7.816l.1.3.313,0a.042.042,0,0,1,.025.076l-.252.186.094.3a.042.042,0,0,1-.065.047l-.255-.182L9.4,8.723a.042.042,0,0,1-.065-.047l.094-.3L9.18,8.191A.042.042,0,0,1,9.2,8.115l.313,0,.1-.3A.042.042,0,0,1,9.7,7.816Z" fill="#f5f5f5"/>
        <path id="Path_66" data-name="Path 66" d="M9.7,9.369l.1.3.313,0a.042.042,0,0,1,.025.076l-.252.186.094.3a.042.042,0,0,1-.065.047l-.255-.182-.255.182a.042.042,0,0,1-.065-.047l.094-.3L9.18,9.745A.042.042,0,0,1,9.2,9.668l.313,0,.1-.3A.042.042,0,0,1,9.7,9.369Z" fill="#f5f5f5"/>
        <path id="Path_67" data-name="Path 67" d="M9.7,10.923l.1.3.313,0a.042.042,0,0,1,.025.076l-.252.186.094.3a.042.042,0,0,1-.065.047l-.255-.182L9.4,11.83a.042.042,0,0,1-.065-.047l.094-.3L9.18,11.3a.042.042,0,0,1,.025-.076l.313,0,.1-.3A.042.042,0,0,1,9.7,10.923Z" fill="#f5f5f5"/>
        <path id="Path_68" data-name="Path 68" d="M10.9,5.5l.1.3.313,0a.042.042,0,0,1,.025.076l-.252.186.094.3a.042.042,0,0,1-.065.047l-.255-.182-.255.182a.042.042,0,0,1-.065-.047l.094-.3-.252-.186a.042.042,0,0,1,.025-.076l.313,0,.1-.3A.042.042,0,0,1,10.9,5.5Z" fill="#f5f5f5"/>
        <path id="Path_69" data-name="Path 69" d="M10.9,7.054l.1.3.313,0a.042.042,0,0,1,.025.076l-.252.186.094.3a.042.042,0,0,1-.065.047l-.255-.182-.255.182a.042.042,0,0,1-.065-.047l.094-.3-.252-.186a.042.042,0,0,1,.025-.076l.313,0,.1-.3A.042.042,0,0,1,10.9,7.054Z" fill="#f5f5f5"/>
        <path id="Path_70" data-name="Path 70" d="M10.9,8.607l.1.3.313,0a.042.042,0,0,1,.025.076l-.252.186.094.3a.042.042,0,0,1-.065.047l-.255-.182-.255.182a.042.042,0,0,1-.065-.047l.094-.3-.252-.186a.042.042,0,0,1,.025-.076l.313,0,.1-.3A.042.042,0,0,1,10.9,8.607Z" fill="#f5f5f5"/>
        <path id="Path_71" data-name="Path 71" d="M10.9,10.161l.1.3.313,0a.042.042,0,0,1,.025.076l-.252.186.094.3a.042.042,0,0,1-.065.047l-.255-.182-.255.182a.042.042,0,0,1-.065-.047l.094-.3-.252-.186a.042.042,0,0,1,.025-.076l.313,0,.1-.3A.042.042,0,0,1,10.9,10.161Z" fill="#f5f5f5"/>
        <path id="Path_72" data-name="Path 72" d="M10.9,11.714l.1.3.313,0a.042.042,0,0,1,.025.076l-.252.186.094.3a.042.042,0,0,1-.065.047l-.255-.182-.255.182a.042.042,0,0,1-.065-.047l.094-.3-.252-.186a.042.042,0,0,1,.025-.076l.313,0,.1-.3A.042.042,0,0,1,10.9,11.714Z" fill="#f5f5f5"/>
      </g>
    </g>
  </g>
</svg>
